<?xml version="1.0" encoding="UTF-8" standalone="no"?>
<!-- Created with Inkscape (http://www.inkscape.org/) -->

<svg
   xmlns:dc="http://purl.org/dc/elements/1.1/"
   xmlns:cc="http://creativecommons.org/ns#"
   xmlns:rdf="http://www.w3.org/1999/02/22-rdf-syntax-ns#"
   xmlns:svg="http://www.w3.org/2000/svg"
   xmlns="http://www.w3.org/2000/svg"
   xmlns:xlink="http://www.w3.org/1999/xlink"
   xmlns:sodipodi="http://sodipodi.sourceforge.net/DTD/sodipodi-0.dtd"
   xmlns:inkscape="http://www.inkscape.org/namespaces/inkscape"
   width="210mm"
   height="297mm"
   viewBox="0 0 744.09448819 1052.3622047"
   id="svg2"
   version="1.1"
   inkscape:version="0.91 r13725"
   sodipodi:docname="tshirt_nb.svg">
  <defs
     id="defs4">
    <linearGradient
       id="linearGradient30537">
      <stop
         id="stop3341"
         stop-color="#adadb0"
         offset="0" />
      <stop
         id="stop3343"
         stop-opacity=".38776"
         stop-color="#b7b7b9"
         offset="1" />
    </linearGradient>
    <linearGradient
       id="linearGradient13037">
      <stop
         id="stop3346"
         stop-color="#fdfdfe"
         offset="0" />
      <stop
         id="stop3348"
         stop-opacity=".46939"
         stop-color="#f1f1f2"
         offset="1" />
    </linearGradient>
    <linearGradient
       id="linearGradient4385">
      <stop
         id="stop3351"
         stop-color="#7d7d7f"
         offset="0" />
      <stop
         id="stop3353"
         stop-color="#515056"
         offset="1" />
    </linearGradient>
    <linearGradient
       y2="405.89166"
       y1="563.51562"
       x2="213.06595"
       x1="212.77257"
       id="linearGradient2557"
       gradientUnits="userSpaceOnUse"
       gradientTransform="matrix(0.9732,0,0,0.9732,-1924.6658,-307.9944)">
      <stop
         id="stop3356"
         stop-color="#4a4a4c"
         offset="0" />
      <stop
         id="stop3358"
         stop-color="#626266"
         offset="1" />
    </linearGradient>
    <linearGradient
       y2="71.88852"
       y1="137.03729"
       xlink:href="#linearGradient30537"
       x2="282.51432"
       x1="520.4053"
       id="linearGradient2428"
       gradientUnits="userSpaceOnUse" />
    <linearGradient
       y2="250.97045"
       y1="621.176"
       xlink:href="#linearGradient30537"
       x2="362.792"
       x1="578.45222"
       id="linearGradient2433"
       gradientUnits="userSpaceOnUse"
       gradientTransform="translate(-1865.7633,-49.80477)" />
    <linearGradient
       y2="298.9493"
       y1="575.43926"
       xlink:href="#linearGradient30537"
       x2="33.2918"
       x1="160.29267"
       id="linearGradient2436"
       gradientUnits="userSpaceOnUse" />
    <radialGradient
       r="11.19179"
       id="radialGradient31693"
       gradientUnits="userSpaceOnUse"
       gradientTransform="matrix(1,0,0,0.73529,0,164.1604)"
       cy="620.16174"
       cx="1089.5532">
      <stop
         id="stop3364"
         stop-color="#8c8c8c"
         offset="0" />
      <stop
         id="stop3366"
         stop-color="#8c8c8c"
         offset=".67308" />
      <stop
         id="stop3368"
         stop-opacity="0"
         stop-color="#8c8c8c"
         offset="1" />
    </radialGradient>
    <radialGradient
       r="350.78738"
       id="radialGradient31695"
       gradientUnits="userSpaceOnUse"
       cy="362.48032"
       cx="381.48129"
       gradientTransform="matrix(0.97605,0,0,0.96239,-2426.0174,-297.60881)">
      <stop
         id="stop3371"
         stop-opacity=".40816"
         stop-color="#fff"
         offset="0" />
      <stop
         id="stop3373"
         stop-opacity="0"
         stop-color="#dbdbdc"
         offset=".5" />
      <stop
         id="stop3375"
         stop-opacity=".12245"
         stop-color="#121212"
         offset=".81971" />
      <stop
         id="stop3377"
         stop-opacity=".35686"
         stop-color="#121212"
         offset=".90639" />
      <stop
         id="stop3379"
         stop-opacity=".7551"
         stop-color="#121212"
         offset="1" />
    </radialGradient>
    <radialGradient
       r="229.93484"
       id="radialGradient2417"
       gradientUnits="userSpaceOnUse"
       gradientTransform="matrix(0.20091,-0.15373,0.28486,0.37229,324.567,133.7805)"
       cy="149.88368"
       cx="437.13998">
      <stop
         id="stop3382"
         stop-color="#8b8b8e"
         offset="0" />
      <stop
         id="stop3384"
         stop-color="#58575d"
         offset="1" />
    </radialGradient>
    <radialGradient
       xlink:href="#linearGradient13037"
       r="167.42391"
       id="radialGradient2371"
       gradientUnits="userSpaceOnUse"
       gradientTransform="matrix(0.81016,0.31654,-0.36613,0.93709,-1445.7908,-397.26199)"
       cy="525.46906"
       cx="341.69849" />
    <radialGradient
       xlink:href="#linearGradient13037"
       r="167.42391"
       id="radialGradient2378"
       gradientUnits="userSpaceOnUse"
       gradientTransform="matrix(1.0561,0.17271,-0.35123,2.14774,167.2003,-582.0054)"
       cy="525.46906"
       cx="341.69849" />
    <radialGradient
       xlink:href="#linearGradient4385"
       r="229.93484"
       id="radialGradient2421"
       gradientUnits="userSpaceOnUse"
       gradientTransform="matrix(0.79814,0.38689,-0.11176,0.23056,55.28328,52.2174)"
       cy="467.92062"
       cx="695.00012" />
    <radialGradient
       xlink:href="#linearGradient4385"
       r="229.93484"
       id="radialGradient2555"
       gradientUnits="userSpaceOnUse"
       gradientTransform="matrix(0.95867,0.09901272,-0.17219,1.66722,-1613.7024,-395.32507)"
       cy="306.29892"
       cx="128.43826" />
    <linearGradient
       gradientTransform="matrix(0.875,0,0,-0.49999998,60,478.54327)"
       gradientUnits="userSpaceOnUse"
       xlink:href="#linearGradient3969-0"
       id="linearGradient3980-4"
       y2="332.36218"
       x2="480"
       y1="292.36218"
       x1="480" />
    <linearGradient
       id="linearGradient3969-0">
      <stop
         offset="0"
         style="stop-color:#d9532f;stop-opacity:1"
         id="stop3971-9" />
      <stop
         offset="1"
         style="stop-color:#8a5b2f;stop-opacity:1"
         id="stop3973-4" />
    </linearGradient>
    <linearGradient
       gradientTransform="matrix(0,-0.1060606,-0.49999998,0,1076.1811,283.27127)"
       gradientUnits="userSpaceOnUse"
       xlink:href="#linearGradient3969-0"
       id="linearGradient3997-8"
       y2="332.36218"
       x2="480"
       y1="292.36218"
       x1="480" />
    <radialGradient
       gradientTransform="matrix(0.578566,0,0,0.121455,71.6859,158.626)"
       gradientUnits="userSpaceOnUse"
       id="RadialGradient"
       r="46.206299"
       cy="170.10001"
       cx="170.10001">
      <stop
         offset="0"
         style="stop-color:#fbf8ff;stop-opacity:1"
         id="stop21" />
      <stop
         offset="1"
         style="stop-color:#e8e8e8;stop-opacity:1"
         id="stop23" />
    </radialGradient>
    <radialGradient
       gradientTransform="matrix(0.65453,0,0,0.0865311,58.7644,160.458)"
       gradientUnits="userSpaceOnUse"
       id="RadialGradient_2"
       r="46.206299"
       cy="170.10001"
       cx="170.10001">
      <stop
         offset="0"
         style="stop-color:#fbf8ff;stop-opacity:1"
         id="stop26" />
      <stop
         offset="1"
         style="stop-color:#d0d0d0;stop-opacity:1"
         id="stop28" />
    </radialGradient>
    <linearGradient
       gradientTransform="matrix(1.28968,0,0,1.28968,-49.3033,-42.3144)"
       gradientUnits="userSpaceOnUse"
       id="LinearGradient_3"
       y2="109.451"
       x2="195.61501"
       y1="109.451"
       x1="144.58501">
      <stop
         offset="0"
         style="stop-color:#b2b2b2;stop-opacity:1"
         id="stop31" />
      <stop
         offset="0.270677"
         style="stop-color:#d5d5d5;stop-opacity:1"
         id="stop33" />
      <stop
         offset="0.63157898"
         style="stop-color:#fcfcfc;stop-opacity:1"
         id="stop35" />
    </linearGradient>
    <linearGradient
       gradientTransform="matrix(1.28968,0,0,1.28968,-60.2721,-21.1562)"
       gradientUnits="userSpaceOnUse"
       id="LinearGradient_4"
       y2="122.675"
       x2="204.12"
       y1="122.675"
       x1="153.09">
      <stop
         offset="0"
         style="stop-color:#b2b2b2;stop-opacity:1"
         id="stop38" />
      <stop
         offset="0.270677"
         style="stop-color:#d5d5d5;stop-opacity:1"
         id="stop40" />
      <stop
         offset="0.63157898"
         style="stop-color:#fcfcfc;stop-opacity:1"
         id="stop42" />
    </linearGradient>
    <linearGradient
       gradientTransform="matrix(1.28968,0,0,1.28968,-60.2721,-21.1562)"
       gradientUnits="userSpaceOnUse"
       id="LinearGradient_5"
       y2="92.610603"
       x2="192.911"
       y1="157.979"
       x1="180.632">
      <stop
         offset="0.0263158"
         style="stop-color:#dedede;stop-opacity:0.67811197"
         id="stop45" />
      <stop
         offset="0.142857"
         style="stop-color:#f5f5f5;stop-opacity:0.74248898"
         id="stop47" />
      <stop
         offset="0.454887"
         style="stop-color:#e9e9e9;stop-opacity:0.80257499"
         id="stop49" />
      <stop
         offset="0.90977401"
         style="stop-color:#fcfcfc;stop-opacity:0.77253199"
         id="stop51" />
      <stop
         offset="1"
         style="stop-color:#e7e7e7;stop-opacity:0.81115901"
         id="stop53" />
    </linearGradient>
    <linearGradient
       gradientUnits="userSpaceOnUse"
       id="LinearGradient_6"
       y2="133.244"
       x2="194.655"
       y1="126.036"
       x1="144.394">
      <stop
         offset="0.0225564"
         style="stop-color:#6667ca;stop-opacity:0.2103"
         id="stop57" />
      <stop
         offset="1"
         style="stop-color:#e75f5f;stop-opacity:0.46351901"
         id="stop59" />
    </linearGradient>
    <path
       inkscape:connector-curvature="0"
       id="TextPath"
       d="m 144.827,181.58 c 0.373,-25.008 15.037,-24.737 29.673,-37.885 11.011,-9.891 27.247,-9.518 27.06,-50.7613" />
    <linearGradient
       gradientUnits="userSpaceOnUse"
       xlink:href="#LinearGradient_6"
       id="linearGradient3659"
       y2="133.244"
       x2="194.655"
       y1="126.036"
       x1="144.394" />
    <linearGradient
       gradientUnits="userSpaceOnUse"
       id="LinearGradient_7"
       y2="222.88"
       x2="100.942"
       y1="73.767601"
       x1="200.80901">
      <stop
         offset="0"
         style="stop-color:#cdaaaa;stop-opacity:1"
         id="stop62" />
      <stop
         offset="1"
         style="stop-color:#6a6a6a;stop-opacity:1"
         id="stop64" />
    </linearGradient>
    <linearGradient
       gradientTransform="matrix(0.682914,0,0,0.772308,41.35,5.52649)"
       gradientUnits="userSpaceOnUse"
       id="LinearGradient_8"
       y2="73.709999"
       x2="130.41"
       y1="56.700001"
       x1="130.41">
      <stop
         offset="0"
         style="stop-color:#dbe18c;stop-opacity:1"
         id="stop67" />
      <stop
         offset="1"
         style="stop-color:#969d4b;stop-opacity:1"
         id="stop69" />
    </linearGradient>
    <linearGradient
       gradientTransform="matrix(0.682914,0,0,0.772308,41.3398,5.35711)"
       gradientUnits="userSpaceOnUse"
       id="LinearGradient_9"
       y2="39.844101"
       x2="132.25999"
       y1="39.568298"
       x1="128.7">
      <stop
         offset="0"
         style="stop-color:#9b9b91;stop-opacity:1"
         id="stop72" />
      <stop
         offset="0.488722"
         style="stop-color:#555555;stop-opacity:1"
         id="stop74" />
      <stop
         offset="1"
         style="stop-color:#2b2b2b;stop-opacity:1"
         id="stop76" />
    </linearGradient>
    <filter
       x="-.066392"
       height="3.0028"
       width="1.1328"
       y="-1.0014"
       id="filter5526">
      <feGaussianBlur
         stdDeviation="10.11582"
         id="feGaussianBlur5528" />
    </filter>
    <linearGradient
       x1="351.53"
       y1="345.26"
       gradientTransform="matrix(0.80045,0,0,0.80045,-517.86204,-105.44958)"
       x2="250.16"
       gradientUnits="userSpaceOnUse"
       xlink:href="#linearGradient5442"
       y2="436.17"
       id="linearGradient7736" />
    <linearGradient
       x1="351.53"
       y1="345.26"
       gradientTransform="matrix(0.17163249,-0.47984576,-0.47984576,-0.17163249,-87.251956,457.73344)"
       x2="250.16"
       gradientUnits="userSpaceOnUse"
       xlink:href="#linearGradient5442"
       y2="436.17"
       id="linearGradient7738" />
    <linearGradient
       x1="261.63"
       y1="664.46"
       gradientTransform="translate(54.548,-74.751)"
       x2="256.3"
       gradientUnits="userSpaceOnUse"
       y2="825.08"
       id="linearGradient7734">
      <stop
         offset="0"
         stop-color="#ff8080"
         id="stop5434" />
      <stop
         offset="1"
         stop-opacity="0"
         stop-color="#ff8080"
         id="stop5436" />
    </linearGradient>
    <linearGradient
       id="linearGradient5442">
      <stop
         offset="0"
         stop-color="#c83737"
         id="stop5444" />
      <stop
         offset="1"
         stop-opacity="0"
         stop-color="#c83737"
         id="stop5446" />
    </linearGradient>
    <radialGradient
       r="347.41"
       gradientTransform="matrix(1.2697,-0.87543,0.7719,1.1897,-149.89596,498.43049)"
       cx="243.2"
       cy="814.61"
       gradientUnits="userSpaceOnUse"
       id="radialGradient7759">
      <stop
         offset="0"
         stop-color="#501616"
         id="stop5460" />
      <stop
         offset="1"
         stop-color="#a02c2c"
         id="stop5462" />
    </radialGradient>
    <linearGradient
       inkscape:collect="always"
       xlink:href="#linearGradient7734"
       id="linearGradient6146"
       gradientUnits="userSpaceOnUse"
       gradientTransform="matrix(0.80045,0,0,0.80045,-525.94818,-95.746521)"
       x1="261.63"
       y1="664.46"
       x2="256.3"
       y2="825.08" />
    <filter
       style="color-interpolation-filters:sRGB;"
       inkscape:label="Fade to Black or White"
       id="filter4600">
      <feColorMatrix
         values="2.77556e-017 0 0 0 0 0 2.77556e-017 0 0 0 0 0 2.77556e-017 0 0 0 0 0 1 0"
         id="feColorMatrix4602"
         result="fbSourceGraphic" />
      <feColorMatrix
         result="fbSourceGraphicAlpha"
         in="fbSourceGraphic"
         values="0 0 0 -1 0 0 0 0 -1 0 0 0 0 -1 0 0 0 0 1 0"
         id="feColorMatrix4616" />
      <feColorMatrix
         id="feColorMatrix4618"
         values="2.77556e-017 0 0 0 0 0 2.77556e-017 0 0 0 0 0 2.77556e-017 0 0 0 0 0 1 0"
         in="fbSourceGraphic" />
    </filter>
    <filter
       style="color-interpolation-filters:sRGB;"
       inkscape:label="Fade to Black or White"
       id="filter4604">
      <feColorMatrix
         values="2.77556e-017 0 0 0 0 0 2.77556e-017 0 0 0 0 0 2.77556e-017 0 0 0 0 0 1 0"
         id="feColorMatrix4606"
         result="fbSourceGraphic" />
      <feColorMatrix
         result="fbSourceGraphicAlpha"
         in="fbSourceGraphic"
         values="0 0 0 -1 0 0 0 0 -1 0 0 0 0 -1 0 0 0 0 1 0"
         id="feColorMatrix4620" />
      <feColorMatrix
         id="feColorMatrix4622"
         values="2.77556e-017 0 0 0 0 0 2.77556e-017 0 0 0 0 0 2.77556e-017 0 0 0 0 0 1 0"
         in="fbSourceGraphic" />
    </filter>
    <filter
       style="color-interpolation-filters:sRGB;"
       inkscape:label="Fade to Black or White"
       id="filter4608">
      <feColorMatrix
         values="2.77556e-017 0 0 0 0 0 2.77556e-017 0 0 0 0 0 2.77556e-017 0 0 0 0 0 1 0"
         id="feColorMatrix4610"
         result="fbSourceGraphic" />
      <feColorMatrix
         result="fbSourceGraphicAlpha"
         in="fbSourceGraphic"
         values="0 0 0 -1 0 0 0 0 -1 0 0 0 0 -1 0 0 0 0 1 0"
         id="feColorMatrix4624" />
      <feColorMatrix
         id="feColorMatrix4626"
         values="2.77556e-017 0 0 0 0 0 2.77556e-017 0 0 0 0 0 2.77556e-017 0 0 0 0 0 1 0"
         in="fbSourceGraphic" />
    </filter>
    <filter
       style="color-interpolation-filters:sRGB;"
       inkscape:label="Fade to Black or White"
       id="filter4612">
      <feColorMatrix
         values="2.77556e-017 0 0 0 0 0 2.77556e-017 0 0 0 0 0 2.77556e-017 0 0 0 0 0 1 0"
         id="feColorMatrix4614"
         result="fbSourceGraphic" />
      <feColorMatrix
         result="fbSourceGraphicAlpha"
         in="fbSourceGraphic"
         values="0 0 0 -1 0 0 0 0 -1 0 0 0 0 -1 0 0 0 0 1 0"
         id="feColorMatrix4628" />
      <feColorMatrix
         id="feColorMatrix4630"
         values="2.77556e-017 0 0 0 0 0 2.77556e-017 0 0 0 0 0 2.77556e-017 0 0 0 0 0 1 0"
         in="fbSourceGraphic" />
    </filter>
    <filter
       x="-.066392"
       height="3.0028"
       width="1.1328"
       y="-1.0014"
       id="filter5526-7">
      <feGaussianBlur
         stdDeviation="10.11582"
         id="feGaussianBlur5528-2" />
    </filter>
    <linearGradient
       x1="351.53"
       y1="345.26"
       gradientTransform="translate(64.65,-86.873)"
       x2="250.16"
       gradientUnits="userSpaceOnUse"
       xlink:href="#linearGradient5442"
       y2="436.17"
       id="linearGradient7736-2" />
    <linearGradient
       x1="351.53"
       y1="345.26"
       gradientTransform="matrix(0.21442,-0.59947,-0.59947,-0.21442,602.61,616.71)"
       x2="250.16"
       gradientUnits="userSpaceOnUse"
       xlink:href="#linearGradient5442"
       y2="436.17"
       id="linearGradient7738-4" />
    <radialGradient
       r="347.41"
       gradientTransform="matrix(1.2697,-0.87543,0.7719,1.1897,-1646.9013,-139.63929)"
       cx="243.2"
       cy="814.61"
       gradientUnits="userSpaceOnUse"
       id="radialGradient7759-6">
      <stop
         offset="0"
         stop-color="#501616"
         id="stop5460-3" />
      <stop
         offset="1"
         stop-color="#a02c2c"
         id="stop5462-7" />
    </radialGradient>
    <linearGradient
       inkscape:collect="always"
       xlink:href="#linearGradient7734"
       id="linearGradient4841"
       gradientUnits="userSpaceOnUse"
       gradientTransform="translate(54.548,-74.751)"
       x1="261.63"
       y1="664.46"
       x2="256.3"
       y2="825.08" />
    <filter
       style="color-interpolation-filters:sRGB;"
       inkscape:label="Fade to Black or White"
       id="filter4858">
      <feColorMatrix
         values="2.77556e-017 0 0 0 0 0 2.77556e-017 0 0 0 0 0 2.77556e-017 0 0 0 0 0 1 0"
         id="feColorMatrix4860" />
    </filter>
  </defs>
  <sodipodi:namedview
     id="base"
     pagecolor="#ffffff"
     bordercolor="#666666"
     borderopacity="1.0"
     inkscape:pageopacity="0.0"
     inkscape:pageshadow="2"
     inkscape:zoom="0.49497474"
     inkscape:cx="-105.83176"
     inkscape:cy="564.23002"
     inkscape:document-units="px"
     inkscape:current-layer="layer1"
     showgrid="false"
     inkscape:window-width="1600"
     inkscape:window-height="837"
     inkscape:window-x="-4"
     inkscape:window-y="-4"
     inkscape:window-maximized="1"
     showguides="false" />
  <metadata
     id="metadata7">
    <rdf:RDF>
      <cc:Work
         rdf:about="">
        <dc:format>image/svg+xml</dc:format>
        <dc:type
           rdf:resource="http://purl.org/dc/dcmitype/StillImage" />
      </cc:Work>
    </rdf:RDF>
  </metadata>
  <g
     inkscape:label="Calque 1"
     inkscape:groupmode="layer"
     id="layer1">
    <g
       id="g6189"
       transform="matrix(0.3194164,0,0,0.3194164,278.36467,332.4401)"
       style="filter:url(#filter4608)">
      <g
         transform="translate(-768.57139,266.64792)"
         id="g3776">
        <g
           id="g4388"
           transform="matrix(10.748211,0,0,10.748211,-100.29227,-189.24975)">
          <path
             inkscape:connector-curvature="0"
             style="fill:#e0e0f9;fill-opacity:1"
             id="path47"
             d="M 57.56639,44.31983 C 44.03538,54.78909 25.39296,82.36759 25.39296,82.36759 l 12.17825,12.19186 c 0,0 27.6583,-18.55349 38.14509,-32.07023 10.48679,-13.51675 11.72212,-29.90839 11.72212,-29.90839 0,0 -16.34037,1.27038 -29.87203,11.739 z" />
          <path
             inkscape:connector-curvature="0"
             style="fill:#f0efff"
             id="path49"
             d="m 57.56639,44.31983 c -6.76518,5.23463 -14.80853,14.74624 -21.16043,22.94986 -6.3519,8.20359 -11.013,15.0979 -11.013,15.0979 0,0 15.50474,-23.22496 31.01594,-35.6718 15.51121,-12.44686 31.02952,-14.11496 31.02952,-14.11496 0,0 -4.08493,0.31728 -9.86197,1.94386 -5.77638,1.62592 -13.24423,4.56051 -20.01006,9.79514 z" />
          <path
             inkscape:connector-curvature="0"
             style="fill:#e8e8e8"
             id="path51"
             d="m 66.17226,53.81328 c -3.14545,-3.1487 -8.24582,-3.13896 -11.39447,0.007 -3.14871,3.14544 -3.15133,8.23279 -0.007,11.38149 3.14545,3.14869 8.24582,3.16426 11.39447,0.0188 3.14871,-3.14545 3.15198,-8.25811 0.007,-11.4068 z m -0.95575,0.9544 c 2.62121,2.6238 2.61932,6.87613 -0.007,9.49734 -2.62382,2.62121 -6.87549,2.61861 -9.49735,-0.005 -2.62121,-2.62445 -2.61859,-6.87613 0.007,-9.49734 2.62448,-2.62121 6.87614,-2.61927 9.49735,0.005 z" />
          <path
             inkscape:connector-curvature="0"
             style="fill:#f1f1f1;stroke:#ffffff;stroke-width:0.12976281;stroke-linecap:round"
             id="path53"
             d="m 66.97608,53.00809 c -3.58988,-3.59377 -9.40969,-3.58209 -13.00349,0.007 -3.59381,3.58988 -3.59635,9.39612 -0.007,12.98925 3.58989,3.59379 9.41035,3.6113 13.0035,0.0214 3.59381,-3.58924 3.59707,-9.42403 0.007,-13.01781 z m -1.08994,1.08936 c 2.99164,2.99428 2.98902,7.84677 -0.007,10.83845 -2.9949,2.99168 -7.84742,2.98908 -10.83906,-0.006 -2.99106,-2.99492 -2.98845,-7.84741 0.007,-10.83844 2.99491,-2.99168 7.84743,-2.98909 10.83907,0.006 z" />
          <rect
             transform="matrix(0.70710678,0.70710678,-0.70710678,0.70710678,0,0)"
             style="fill:#9795c2;fill-opacity:1;stroke:none"
             id="rect3037"
             y="-50.96196"
             x="84.515633"
             height="16.227236"
             width="0.69455093" />
          <path
             inkscape:connector-curvature="0"
             style="fill:#5d579d;fill-opacity:1;stroke:none"
             id="rect3037-1"
             d="M 96.04262,23.97164 96.28815,24.2172 84.8138,35.6916 84.5682,35.44603 Z" />
          <path
             inkscape:connector-curvature="0"
             style="fill:#716ea0;fill-opacity:1;stroke:none"
             id="path3807"
             d="m 97.00251,24.93155 a 1.3575319,1.3575319 0 0 1 -1.91985,-1.91983 1.3575319,1.3575319 0 1 1 1.91985,1.91983 z" />
          <path
             inkscape:connector-curvature="0"
             style="fill:#967fe1;fill-opacity:1;stroke:none"
             id="path3807-7"
             d="m 97.00033,23.01394 c -0.5302,-0.53014 -1.37382,-0.53015 -1.90394,0 -0.5302,0.53015 -0.54167,1.38527 -0.0116,1.9154 l 1.91542,-1.9154 z" />
          <path
             inkscape:connector-curvature="0"
             style="fill:#000000;fill-opacity:0.24892698"
             id="path55"
             d="M 87.43,32.57695 65.66879,54.31416 c 0.007,0.004 0.009,0.01 0.0145,0.0142 2.86775,2.87035 2.86514,7.51262 -0.007,10.37973 -2.87102,2.86776 -7.52689,2.87944 -10.39464,0.009 -0.007,-0.005 -0.009,-0.01 -0.0145,-0.0143 l -23.79784,23.7719 6.1047,6.08199 c 0,0 27.65242,-18.56257 38.13856,-32.07996 C 86.19936,48.95997 87.42823,32.57677 87.42823,32.57677 Z M 55.26892,64.70297 65.66879,54.31416 c -2.86841,-2.85608 -7.51396,-2.86841 -10.37975,-0.006 -2.86579,2.86257 -2.87298,7.523 -0.0203,10.39465 z" />
          <path
             inkscape:connector-curvature="0"
             style="fill:#68464a;fill-opacity:1"
             id="path57"
             d="m 28.22833,78.05946 -4.06228,1.35862 -4.06154,1.35927 -0.16405,1.89647 -0.16376,1.89584 7.7995,7.80848 7.80008,7.80783 1.89647,-0.16156 1.89646,-0.16156 1.36322,-4.06092 1.36314,-4.06028 -6.8333,-6.8411 -6.83394,-6.84109 z" />
          <path
             inkscape:connector-curvature="0"
             style="fill:#514e6a"
             id="path59"
             d="m 88.0989,31.92034 c -5.8e-4,1.30087 -0.32635,2.92681 -0.65205,4.22702 -0.32636,1.30023 -0.65205,2.27604 -0.65205,2.27604 0,0 -1.41703,-1.18408 -2.71722,-2.4856 -1.2996,-1.30152 -2.48235,-2.71983 -2.48235,-2.71983 0,0 0.97579,-0.32506 2.27662,-0.64946 1.30091,-0.32441 2.92687,-0.64882 4.22705,-0.64817 z" />
          <path
             inkscape:connector-curvature="0"
             style="fill:#000000;fill-opacity:0.66952802"
             id="path61"
             d="m 88.05671,31.92359 -0.0545,0.004 -3.97208,3.96101 0.0472,0.0493 0.0334,0.0318 3.98501,-3.98306 -0.0392,-0.063 z" />
          <path
             inkscape:connector-curvature="0"
             style="fill:#000000;fill-opacity:0.66952802"
             id="path63"
             d="m 85.17211,34.05624 c 0.0566,-0.0564 0.14793,-0.0564 0.2037,0 0.0566,0.0564 0.0566,0.14793 0,0.20372 -0.0566,0.0564 -0.14793,0.0564 -0.2037,0 -0.0566,-0.0564 -0.0566,-0.14792 0,-0.20372 z" />
          <path
             inkscape:connector-curvature="0"
             style="fill:#000000;fill-opacity:0.66952802"
             id="path65"
             d="m 86.14078,34.27813 c 0.0566,-0.0564 0.14793,-0.0558 0.20435,0 0.0566,0.0564 0.0566,0.14793 0,0.20438 -0.0566,0.0564 -0.14792,0.0564 -0.20435,0 -0.0566,-0.0564 -0.0566,-0.14793 0,-0.20438 z" />
          <path
             inkscape:connector-curvature="0"
             style="fill:#000000;fill-opacity:0.66952802"
             id="path67"
             d="m 87.06792,33.20954 c 0.0566,-0.0564 0.14792,-0.0564 0.20442,0 0.0566,0.0564 0.0566,0.14793 0,0.20437 -0.0566,0.0564 -0.14792,0.0564 -0.20442,0 -0.0567,-0.0564 -0.0567,-0.14793 0,-0.20437 z" />
          <path
             inkscape:connector-curvature="0"
             style="fill:#000000;fill-opacity:0.66952802"
             id="path69"
             d="m 86.0389,33.19007 c 0.0566,-0.0564 0.14792,-0.0564 0.20442,0 0.0566,0.0564 0.0566,0.14793 0,0.20438 -0.0566,0.0564 -0.14792,0.0564 -0.20442,0 -0.0567,-0.0564 -0.0567,-0.14793 0,-0.20438 z" />
          <path
             inkscape:connector-curvature="0"
             style="fill:#000000;fill-opacity:0.66952802"
             id="path71"
             d="m 84.49413,35.7983 c 0.0566,-0.0564 0.14793,-0.0564 0.20435,0 0.0566,0.0564 0.0566,0.14793 0,0.20438 -0.0566,0.0564 -0.14792,0.0564 -0.20435,0 -0.0566,-0.0564 -0.0566,-0.14793 0,-0.20438 z" />
          <path
             inkscape:connector-curvature="0"
             style="fill:#000000;fill-opacity:0.66952802"
             id="path73"
             d="m 84.41498,34.98858 c 0.0566,-0.0564 0.14792,-0.0564 0.20435,0 0.0566,0.0564 0.0566,0.14793 0,0.20438 -0.0566,0.0558 -0.14793,0.0558 -0.20435,-5.8e-4 -0.0567,-0.0564 -0.0567,-0.14728 0,-0.20373 z" />
          <path
             inkscape:connector-curvature="0"
             style="fill:#000000;fill-opacity:0.66952802"
             id="path75"
             d="m 85.25519,35.02233 c 0.0566,-0.0564 0.14792,-0.0564 0.20435,0 0.0559,0.0564 0.0559,0.14792 -5.8e-4,0.20437 -0.0566,0.0564 -0.14728,0.0564 -0.2037,0 -0.0566,-0.0564 -0.0566,-0.14793 0,-0.20437 z" />
          <path
             inkscape:connector-curvature="0"
             style="fill:#000000;fill-opacity:0.66952802"
             id="path77"
             d="m 87.7907,32.37646 c 0.0516,-0.0513 0.13435,-0.0513 0.18562,0 0.0516,0.0513 0.0516,0.13431 0,0.18491 -0.0516,0.0513 -0.13435,0.0513 -0.18562,0 -0.0516,-0.0513 -0.0516,-0.1343 0,-0.18491 z" />
          <path
             inkscape:connector-curvature="0"
             style="fill:#000000;fill-opacity:0.66952802"
             id="path79"
             d="m 87.08673,32.27459 c 0.0566,-0.0558 0.14734,-0.0558 0.20377,5.8e-4 0.0566,0.0564 0.0566,0.14728 0,0.20373 -0.0566,0.0564 -0.14793,0.0564 -0.20435,0 -0.0559,-0.0564 -0.0559,-0.14792 5.8e-4,-0.20437 z" />
          <path
             inkscape:connector-curvature="0"
             style="fill:#000000;fill-opacity:0.171674"
             id="path81"
             d="m 35.06227,84.90055 -7.48607,7.47759 7.80008,7.80783 3.79293,-0.32312 2.72636,-8.1212 -6.8333,-6.8411 z" />
          <path
             inkscape:connector-curvature="0"
             style="fill:#c4c3cd"
             id="path85"
             d="M 58.30929,75.87815 66.62838,90.8943 64.33542,93.18396 51.92624,81.48974 58.30929,75.87815 Z" />
          <path
             inkscape:connector-curvature="0"
             style="fill:#81809e;fill-opacity:1"
             id="path87"
             d="M 55.98393,77.43659 64.33542,93.18396 51.92624,81.48974 55.98393,77.43659 Z" />
          <path
             inkscape:connector-curvature="0"
             style="fill:#d2d1e5;fill-opacity:1"
             id="path89"
             d="m 79.48526,80.5535 c 0,0 -4.70517,1.98732 -9.46292,5.83544 0,0 -5.94574,5.76601 -9.56808,9.55768 -3.62169,3.79167 -4.92064,5.60964 -4.92064,5.60964 l 2.92294,2.92551 c 0,0 1.81927,-1.29633 5.61481,-4.91412 3.79554,-3.61844 9.56808,-9.55768 9.56808,-9.55768 3.85327,-4.75386 5.84581,-9.45647 5.84581,-9.45647 z" />
          <path
             inkscape:connector-curvature="0"
             style="fill:#9f9cb6;fill-opacity:1"
             id="path91"
             d="m 79.48526,80.5535 -22.66242,22.52488 1.63372,1.40339 c 0,0 1.81927,-1.29633 5.61481,-4.91412 3.79554,-3.61844 9.56808,-9.55768 9.56808,-9.55768 3.85327,-4.75386 5.84581,-9.45647 5.84581,-9.45647 z" />
          <path
             inkscape:connector-curvature="0"
             style="fill:#dedde8"
             id="path93"
             d="m 56.14936,100.39164 3.47246,3.47569 -1.27884,1.77257 -3.9675,-3.97204 1.77388,-1.27622 z" />
          <path
             inkscape:connector-curvature="0"
             style="fill:#9795a8;fill-opacity:1"
             id="path95"
             d="m 58.89257,103.13807 0.72925,0.72926 -1.27884,1.77257 -0.79286,-0.79415 1.34245,-1.70768 z" />
          <path
             inkscape:connector-curvature="0"
             style="fill:#c9c8d2"
             id="path97"
             d="m 54.37548,101.66786 0.70986,0.71045 1.83873,-1.21134 -0.77471,-0.77533 -1.77388,1.27622 z" />
          <path
             inkscape:connector-curvature="0"
             style="fill:#5c55c3;fill-opacity:1;stroke:#000000;stroke-width:0.07090694;stroke-linecap:round;stroke-opacity:0.13304701"
             id="path99"
             d="m 79.48526,80.5535 c 0,0 -1.20098,2.72567 -1.70576,3.59313 l -1.88935,-1.89194 c 0.85582,-0.53268 3.59511,-1.70119 3.59511,-1.70119 z" />
          <path
             inkscape:connector-curvature="0"
             style="fill:#c4c3cd"
             id="path103"
             d="m 44.06196,61.61592 -15.00642,-8.33532 -2.2929,2.29032 11.68124,12.42219 5.61808,-6.37719 z" />
          <path
             inkscape:connector-curvature="0"
             style="fill:#81809e;fill-opacity:1"
             id="path105"
             d="m 42.50158,63.93932 -15.73894,-8.3684 11.68124,12.42219 4.0577,-4.05379 z" />
          <path
             inkscape:connector-curvature="0"
             style="fill:#9f9cb6;fill-opacity:1"
             id="path107"
             d="m 39.40994,40.43473 c 0,0 -1.99246,4.70325 -5.84581,9.45646 0,0 -5.77247,5.9399 -9.56808,9.55768 -3.79554,3.61844 -5.61452,4.91477 -5.61452,4.91477 l -2.92279,-2.92615 c 0,0 1.29858,-1.81733 4.92085,-5.60899 3.62234,-3.79168 9.56808,-9.55769 9.56808,-9.55769 4.7571,-3.84876 9.46227,-5.83608 9.46227,-5.83608 z" />
          <path
             inkscape:connector-curvature="0"
             style="fill:#d2d1e5;fill-opacity:1"
             id="path109"
             d="M 39.40994,40.43473 16.86059,63.0725 15.45874,61.43749 c 0,0 1.29858,-1.81733 4.92085,-5.60899 3.62234,-3.79168 9.56808,-9.55769 9.56808,-9.55769 4.7571,-3.84876 9.46227,-5.83608 9.46227,-5.83608 z" />
          <path
             inkscape:connector-curvature="0"
             style="fill:#dedde8"
             id="path111"
             d="m 19.54657,63.74921 -3.47209,-3.47569 -1.77388,1.27622 3.96772,3.97203 1.27825,-1.77256 z" />
          <path
             inkscape:connector-curvature="0"
             style="fill:#c9c8d2"
             id="path113"
             d="m 16.80322,61.00278 -0.72874,-0.72926 -1.77388,1.27622 0.79308,0.79414 1.70954,-1.3411 z" />
          <path
             inkscape:connector-curvature="0"
             style="fill:#9795a8;fill-opacity:1"
             id="path115"
             d="m 18.26832,65.52177 -0.7095,-0.71045 1.21341,-1.83744 0.77434,0.77533 -1.27825,1.77256 z" />
          <path
             inkscape:connector-curvature="0"
             style="fill:#5c55c3;fill-opacity:1;stroke:#000000;stroke-width:0.07090694;stroke-linecap:round;stroke-opacity:0.13304701"
             id="path117"
             d="m 39.40994,40.43473 c 0,0 -2.72694,1.19836 -3.59503,1.70184 l 1.89,1.89194 c 0.53331,-0.85579 1.70503,-3.59378 1.70503,-3.59378 z" />
        </g>
        <g
           id="layer1-9"
           inkscape:label="Rakete"
           transform="translate(0,880)" />
        <rect
           style="opacity:1;fill:#ffffff;fill-opacity:0;stroke:none;stroke-width:0.75;stroke-linecap:round;stroke-linejoin:miter;stroke-miterlimit:4;stroke-dasharray:3, 3;stroke-dashoffset:0;stroke-opacity:1"
           id="rect4428"
           width="1000"
           height="1000"
           x="0"
           y="-6.7224004e-014" />
      </g>
      <g
         id="g6175">
        <path
           style="fill:#ff5555;fill-rule:evenodd"
           d="m -235.4082,162.24805 c -14.65303,0.24735 -33.60113,7.10017 -57.65625,27.26367 -54.98291,46.08911 -37.61642,91.77271 -33.16993,99.45703 2.09047,3.61083 4.6928,13.05039 8.55665,21.48633 -12.56146,9.15715 -20.6875,23.63569 -20.6875,39.94726 0,17.51144 9.37269,32.9262 23.53906,41.89844 -2.59859,3.23806 -5.86315,7.89586 -9.85547,14.6836 -0.0193,0.0327 -0.0317,0.067 -0.0508,0.0996 -5.82896,-0.30454 -11.88242,1.34054 -17.85938,5.9043 -15.19655,-15.4719 -68.21698,-67.87059 -77.01953,-55.15625 -10.29139,14.86516 -6.85333,53.74732 -14.85742,68.61328 -8.0045,14.86515 -11.41956,-10.29733 -21.71094,-9.15429 -10.29139,1.14352 -6.86569,13.72942 3.42578,17.16015 5.07101,1.69031 9.01971,1.97995 11.73243,1.85156 2.49164,-0.45786 4.27734,-0.72657 4.27734,-0.72656 0,0 -1.48417,0.5944 -4.27734,0.72656 -8.14538,1.49676 -24.74118,5.2017 -18.61133,9.58008 8.0045,5.71754 25.16406,-5.72851 25.16406,-5.72851 0,-2e-5 -21.72108,16.02365 -11.42969,18.31054 10.29138,2.28704 18.29906,-16.00917 20.58594,-24.01367 2.28697,-8.0045 5.71831,-66.324 16.00977,-64.03711 8.28066,1.84015 44.2936,37.32345 58.20703,51.2793 -1.11423,1.46098 -2.231,3.0309 -3.32618,4.75195 -16.009,25.15734 -21.71348,43.43655 -13.70898,113.19336 0.32649,2.84512 0.75542,5.53583 1.25195,8.10352 -1.96983,-0.79736 -4.13573,-1.22461 -6.40429,-1.22461 -9.15234,0 -16.58399,7.17084 -16.58399,16.00781 0,8.83697 7.43125,16.00977 16.58399,16.00977 0.71932,0 1.43176,-0.0645 2.12695,-0.15039 -4.87602,7.96416 -8.7667,17.51363 -7.2793,26.43945 3.43048,20.58277 42.31272,48.03329 44.59961,57.18164 2.28696,9.14834 -8.00763,-12.57769 -36.5957,-8.00391 -28.58728,4.57401 -48.01704,22.86328 -34.29492,22.86328 13.72211,-3e-5 92.62121,3.43325 91.47656,-3.42773 -1.14352,-6.86098 -43.44922,-46.89461 -43.44922,-61.75977 0,-12.34774 14.97757,-19.14824 27.26367,-21.76171 12.64791,-3.78565 17.88047,-4.23097 29.11719,-6.92969 9.71267,-3.06648 20.83118,-6.77613 30.65625,-9.71094 a 242.85715,121.42857 0 0 1 27.74805,-18.44531 c -11.04872,-6.06127 -28.89801,-4.35127 -45.3711,-15.44336 -5.7325,-7.13313 -14.65094,-13.66039 -21.38672,-23.76367 -13.72212,-20.58277 16.00562,-45.74342 19.43555,-60.60938 1.22237,-5.29706 1.1374,-10.87376 -0.0996,-16.2832 11.34637,-1.69263 31.09914,-4.27735 45.82422,-4.27735 21.72661,0 33.18023,-6.8682 46.90234,-17.16015 13.72211,-10.29138 22.86569,-38.89129 27.43946,-45.75195 4.57401,-6.86098 22.86704,8.01584 35.44531,-2.2754 12.57827,-10.29122 -21.72679,-0.011 -24.01367,-5.72851 -2.28705,-5.71753 24.01013,-5.70253 19.43555,-13.70703 -4.57401,-8.0045 -34.29493,11.43012 -34.29493,3.42578 0,-8.0045 13.71574,-11.42749 22.86328,-14.85742 9.14834,-3.43049 -11.4354,-9.1507 -24.01367,3.42773 -12.57827,12.57844 -4.58184,25.15198 -9.15625,35.44336 -4.57401,10.29139 -26.29936,43.45772 -40.02148,44.60156 -13.05614,1.08806 -69.11169,0.12134 -74.66602,0.0234 -2.48988,-3.0526 -5.4417,-5.78619 -8.80664,-8.0293 -0.15508,-0.10338 -0.31837,-0.19693 -0.47461,-0.29882 0.15672,-0.28422 0.30653,-0.55742 0.47461,-0.85157 3.62196,-6.33837 6.67239,-10.30633 9.00586,-13.33203 3.60386,0.75865 7.34212,1.17578 11.18164,1.17578 28.78899,0 52.1543,-22.47998 52.1543,-50.15234 0,-25.23499 -19.42239,-46.11676 -44.67578,-49.60352 -0.008,-5.38094 1.46812,-12.29204 6.67969,-19.93554 12.12842,-17.7884 12.9348,-8.88936 52.55468,-12.93164 39.62067,-4.04291 43.66418,-17.7839 39.6211,-40.42383 -4.04291,-22.63993 -29.92808,-10.51679 -41.24805,5.6543 -11.31996,16.17149 -53.36597,24.27378 -62.25977,35.59375 -6.95327,8.84977 -4.01041,18.20288 -2.40039,31.51757 -0.14124,-8e-4 -0.28427,0 -0.42578,0 -1.75706,0 -15.61792,3.34632 -17.33008,3.50977 -1.69423,-5.71961 -3.03143,-19.938 -4.89648,-28.56445 -6.4686,-29.91762 26.68049,-35.59058 63.875,-44.48438 37.19451,-8.8946 57.42153,-37.99085 46.10156,-50.92773 -6.36758,-7.27721 -18.10591,-17.87833 -36.94531,-17.56055 l -0.002,-0.002 z"
           id="path5315"
           inkscape:connector-curvature="0" />
        <path
           d="m -287.41408,337.47303 c 0,8.93142 -7.42121,16.17149 -16.57572,16.17149 -9.15451,0 -16.57572,-7.24023 -16.57572,-16.17149 0,-8.93126 7.42121,-16.17149 16.57572,-16.17149 9.15451,0 16.57572,7.24023 16.57572,16.17149 z"
           id="path5322"
           inkscape:connector-curvature="0"
           style="fill:#ffffff" />
        <path
           d="m -262.35199,331.00539 c 0,5.80535 -5.06813,10.51151 -11.31996,10.51151 -6.25192,0 -11.31997,-4.70616 -11.31997,-10.51151 0,-5.80534 5.06813,-10.51151 11.31997,-10.51151 6.25191,0 11.31996,4.70617 11.31996,10.51151 z"
           id="path5324"
           inkscape:connector-curvature="0"
           style="fill:#ffffff" />
        <path
           d="m -269.62808,360.11776 c 0,4.01906 -3.62012,7.27721 -8.08615,7.27721 -4.46563,0 -8.08614,-3.25815 -8.08614,-7.27721 0,-4.01906 3.62011,-7.27721 8.08614,-7.27721 4.46563,0 8.08615,3.25815 8.08615,7.27721 z"
           id="path5326"
           inkscape:connector-curvature="0"
           style="fill:#280b0b" />
        <path
           d="m -276.09412,363.35238 4.04291,36.38605"
           id="path5328"
           inkscape:connector-curvature="0"
           style="fill:none;stroke:#501616;stroke-width:0.80045003" />
        <path
           d="m -296.36392,336.37321 c 0,2.67943 -1.99103,4.85145 -4.44714,4.85145 -2.4561,0 -4.44714,-2.1721 -4.44714,-4.85145 0,-2.67943 1.99104,-4.85145 4.44714,-4.85145 2.45611,0 4.44714,2.1721 4.44714,4.85145 z"
           id="path5336"
           inkscape:connector-curvature="0"
           style="fill:#280b0b" />
        <path
           d="m -268.81963,331.81305 c 0,3.57248 -2.89611,6.46859 -6.4686,6.46859 -3.57249,0 -6.46859,-2.89611 -6.46859,-6.46859 0,-3.57249 2.8961,-6.4686 6.46859,-6.4686 3.57249,0 6.4686,2.89611 6.4686,6.4686 z"
           id="path5338"
           inkscape:connector-curvature="0"
           style="fill:#280b0b" />
        <path
           d="m -294.33878,336.47887 c 0,3.62836 -2.94133,6.56969 -6.56969,6.56969 -3.62836,0 -6.5697,-2.94133 -6.5697,-6.56969 0,-3.62836 2.94134,-6.56969 6.5697,-6.56969 3.62836,0 6.56969,2.94133 6.56969,6.56969 z"
           id="path5340"
           inkscape:connector-curvature="0"
           style="fill:none;stroke:#2b0000;stroke-width:1.3503592" />
        <path
           d="m -291.47385,336.48388 c 0,5.05285 -4.22405,9.14895 -9.43474,9.14895 -5.21068,0 -9.43473,-4.0961 -9.43473,-9.14895 0,-5.05286 4.22405,-9.14896 9.43473,-9.14896 5.21069,0 9.43474,4.0961 9.43474,9.14896 z"
           id="path5342"
           inkscape:connector-curvature="0"
           style="fill:none;stroke:#2b0000;stroke-width:1.90965462" />
        <path
           d="m -339.97803,526.6842 c 0,0 -4.04292,-54.98291 1.61715,-74.38902 5.66006,-19.40611 16.97994,-25.06609 28.2999,-20.21457 11.31997,4.85145 1.61715,14.55459 -5.66006,44.47141 -7.27721,29.91762 -4.85144,38.00296 4.85145,50.13218 9.70306,12.12842 16.97995,22.63993 2.42568,27.49145 -14.55458,4.85145 -25.06609,8.89461 -27.49145,0 -2.42577,-8.8946 -4.04291,-27.49145 -4.04291,-27.49145 z"
           id="path5422"
           inkscape:connector-curvature="0"
           style="fill:url(#linearGradient6146);fill-rule:evenodd" />
        <path
           d="m -317.3333,240.45128 c 0,0 18.59765,-42.85449 46.89756,-58.21752 28.29991,-15.36304 54.98291,-16.97995 44.4714,-4.04292 -10.51151,12.93704 -45.27985,27.49146 -58.21753,37.19451 -12.93687,9.70306 -27.49145,24.25764 -28.29991,31.53453 -0.80861,7.27721 -6.46859,-5.66006 -4.85144,-6.4686 z"
           id="path5440"
           inkscape:connector-curvature="0"
           style="fill:url(#linearGradient7736);fill-rule:evenodd" />
        <path
           d="m -251.60835,263.36016 c 0,0 29.67748,-1.95966 44.95487,-15.63038 15.27739,-13.67073 21.96835,-29.31969 11.95872,-25.7921 -10.00963,3.52734 -26.18912,21.24954 -34.77955,26.92393 -8.59043,5.67495 -20.43629,11.27914 -24.97164,10.20334 -4.53583,-1.07565 2.00601,5.09134 2.83744,4.29529 z"
           id="path5450"
           inkscape:connector-curvature="0"
           style="fill:url(#linearGradient7738);fill-rule:evenodd" />
      </g>
    </g>
    <flowRoot
       xml:space="preserve"
       id="flowRoot6246"
       style="fill:black;stroke:none;stroke-opacity:1;stroke-width:1px;stroke-linejoin:miter;stroke-linecap:butt;fill-opacity:1;font-family:sans-serif;font-style:normal;font-weight:normal;font-size:40px;line-height:562.00007057%;letter-spacing:0px;word-spacing:0px;"><flowRegion
         id="flowRegion6248"><rect
           id="rect6250"
           width="2969.8484"
           height="501.03568"
           x="-1632.4065"
           y="-361.85135"
           style="line-height:562.00007057%;" /></flowRegion><flowPara
         id="flowPara6252" /></flowRoot>    <flowRoot
       xml:space="preserve"
       id="flowRoot6254"
       style="fill:black;stroke:none;stroke-opacity:1;stroke-width:1px;stroke-linejoin:miter;stroke-linecap:butt;fill-opacity:1;font-family:sans-serif;font-style:normal;font-weight:normal;font-size:40px;line-height:125%;letter-spacing:0px;word-spacing:0px"><flowRegion
         id="flowRegion6256"><rect
           id="rect6258"
           width="2484.9753"
           height="335.37064"
           x="-1729.3811"
           y="-369.93259" /></flowRegion><flowPara
         id="flowPara6260" /></flowRoot>    <text
       xml:space="preserve"
       style="font-style:normal;font-weight:normal;font-size:90px;line-height:125%;font-family:sans-serif;letter-spacing:0px;word-spacing:0px;fill:#000000;fill-opacity:1;stroke:none;stroke-width:1px;stroke-linecap:butt;stroke-linejoin:miter;stroke-opacity:1;filter:url(#filter4604)"
       x="390.11377"
       y="935.18451"
       id="text6262"
       sodipodi:linespacing="125%"><tspan
         sodipodi:role="line"
         id="tspan6264"
         x="390.11377"
         y="935.18451"
         style="font-style:normal;font-variant:normal;font-weight:normal;font-stretch:condensed;font-family:Impact;-inkscape-font-specification:'Impact Condensed';text-align:center;text-anchor:middle">ESIAL ROBOTIK</tspan></text>
    <text
       xml:space="preserve"
       style="font-style:normal;font-weight:normal;font-size:90px;line-height:125%;font-family:sans-serif;letter-spacing:0px;word-spacing:0px;fill:#000000;fill-opacity:1;stroke:none;stroke-width:1px;stroke-linecap:butt;stroke-linejoin:miter;stroke-opacity:1;filter:url(#filter4600)"
       id="text6266"
       sodipodi:linespacing="125%"
       transform="translate(-4.0406102,-16.162444)"><textPath
         xlink:href="#path3532"
         startOffset="50%"
         id="textPath3534"><tspan
   style="font-style:normal;font-variant:normal;font-weight:normal;font-stretch:normal;font-family:'Bauhaus 93';-inkscape-font-specification:'Bauhaus 93, ';text-align:center;text-anchor:middle"
   id="tspan6268">Moon Village</tspan></textPath></text>
    <path
       style="fill:#000000"
       d="m 531.73007,590.10066 c -58.33585,-7.90199 -107.7566,-43.20889 -134.11176,-95.81136 -11.7381,-23.4282 -17.5375,-47.45653 -18.11206,-75.04286 -0.21183,-10.17061 -0.98563,-17.42588 -1.96272,-18.40298 -2.77571,-2.77569 -1.80436,-6.5712 4.19686,-16.39899 5.68049,-9.30255 5.79244,-9.73599 5.02701,-19.46199 -0.43058,-5.47115 -1.20261,-12.29862 -1.71564,-15.17217 -0.78823,-4.41506 -0.36607,-5.79135 2.72434,-8.88174 2.01139,-2.01141 5.18598,-3.65711 7.05463,-3.65711 2.72764,0 4.81383,-2.31157 10.58073,-11.72388 23.3155,-38.05381 59.9215,-64.68012 103.0606,-74.96372 14.17452,-3.37895 20.49547,-6.58039 21.58814,-10.93398 1.06287,-4.23478 4.26554,-4.18639 15.13115,0.22871 17.88873,7.26885 28.09783,7.30334 40.32751,0.13628 7.11268,-4.16832 9.25766,-3.82951 9.25766,1.46229 0,1.93239 0.95922,3.88153 2.13162,4.33141 1.17239,0.44991 2.13161,1.58067 2.13161,2.51287 0,0.93219 4.93516,3.14685 10.96703,4.92145 48.87115,14.37812 88.7167,52.94189 106.99121,103.54941 2.90787,8.05275 3.50796,8.78556 6.5658,8.0181 l 3.36545,-0.84469 -0.82529,16.85079 c -0.70096,14.31198 -0.37924,18.54434 2.13537,28.09145 3.48048,13.21419 3.68477,18.60142 0.90728,23.92582 -1.11973,2.14652 -3.07835,9.50061 -4.35247,16.3424 -3.86673,20.76392 -10.71498,38.36602 -23.21338,59.66563 -3.0963,5.27668 -6.1694,8.86694 -7.60233,8.88173 -1.80875,0.0186 -2.51354,1.5225 -2.84216,6.06441 -0.3634,5.0226 -0.9759,6.11612 -3.63751,6.4941 -1.76031,0.24999 -3.84496,1.6586 -4.63257,3.13026 -0.78761,1.47168 -4.95901,6.01143 -9.26978,10.08837 l -7.83773,7.41261 3.94385,4.11834 3.94382,4.11834 -7.46065,-0.98878 -7.46067,-0.9888 0,4.44633 c 0,2.64132 -1.22818,5.67449 -3.02544,7.47175 -2.63446,2.63447 -4.08774,2.9144 -11.24579,2.16624 -7.49297,-0.78317 -9.26864,-0.37101 -20.06708,4.65785 -6.5157,3.03436 -14.56453,6.31742 -17.88629,7.2957 -4.27533,1.25909 -6.03958,2.54319 -6.03958,4.39588 0,3.11196 -1.19455,3.2363 -4.80796,0.50049 -2.32329,-1.75907 -3.3543,-1.74298 -7.81593,0.12178 -6.31387,2.63895 -41.72365,3.82055 -56.10688,1.87224 z"
       id="path4778"
       inkscape:connector-curvature="0" />
    <path
       inkscape:connector-curvature="0"
       id="path4780"
       d="m 532.25516,576.11781 c -54.65919,-7.40399 -100.96517,-40.48563 -125.65928,-89.77283 -10.9983,-21.95159 -16.43218,-44.46552 -16.97055,-70.31323 -0.19847,-9.52959 -0.92349,-16.32759 -1.83902,-17.2431 -2.60076,-2.60076 -1.69062,-6.15705 3.93236,-15.36545 5.32248,-8.71624 5.42736,-9.12235 4.71019,-18.23538 -0.40346,-5.12632 -1.12683,-11.5235 -1.60752,-14.21593 -0.73854,-4.13681 -0.343,-5.42635 2.55264,-8.32198 1.88462,-1.88464 4.85912,-3.4266 6.61001,-3.4266 2.55574,0 4.51042,-2.16588 9.91387,-10.98499 21.84604,-35.65545 56.14492,-60.60361 96.56516,-70.23908 13.28115,-3.16599 19.20371,-6.16565 20.22752,-10.24486 0.99588,-3.96791 3.9967,-3.92254 14.1775,0.21428 16.76129,6.81074 26.32696,6.84305 37.78584,0.12771 6.66441,-3.90559 8.67419,-3.58814 8.67419,1.37015 0,1.8106 0.89878,3.6369 1.99729,4.05842 1.0985,0.42154 1.99727,1.48106 1.99727,2.35448 0,0.87345 4.62412,2.94852 10.27582,4.61129 45.79101,13.47194 83.12528,49.6052 100.24803,97.02316 2.7246,7.54522 3.28687,8.23184 6.15198,7.51274 l 3.15335,-0.79145 -0.77329,15.78877 c -0.65678,13.40995 -0.35533,17.37555 2.0008,26.32095 3.26112,12.38137 3.45253,17.42906 0.8501,22.41789 -1.04919,2.01123 -2.88435,8.90183 -4.07816,15.31241 -3.62302,19.45526 -10.03966,35.94799 -21.75034,55.90518 -2.90117,4.94411 -5.78057,8.3081 -7.1232,8.32194 -1.69474,0.0174 -2.35512,1.42657 -2.66302,5.68221 -0.34049,4.70606 -0.91441,5.73065 -3.40828,6.0848 -1.64935,0.23422 -3.60261,1.55407 -4.34057,2.93297 -0.73799,1.37892 -4.64645,5.63257 -8.68554,9.45254 l -7.34376,6.94543 3.69528,3.85879 3.69527,3.85878 -6.99046,-0.92648 -6.99044,-0.92646 0,4.16609 c 0,2.47485 -1.15078,5.31684 -2.83477,7.00084 -2.46843,2.46842 -3.8301,2.7307 -10.53703,2.02971 -7.0207,-0.73381 -8.68448,-0.34762 -18.80233,4.36428 -6.10504,2.84313 -13.64658,5.91927 -16.75899,6.83589 -4.00589,1.17974 -5.65894,2.38291 -5.65894,4.11883 0,2.91582 -1.11926,3.03233 -4.50492,0.46894 -2.17687,-1.64818 -3.14291,-1.63312 -7.32333,0.11415 -5.91595,2.47263 -39.09402,3.57975 -52.57073,1.75423 z"
       style="fill:#ffffff" />
    <g
       id="g3570"
       transform="matrix(0.52733838,0,0,0.52733838,342.89973,230.50541)"
       style="filter:url(#filter4612)">
      <path
         style="fill:#000000"
         d="m 451.77042,668.99872 c -0.77992,-1.20176 -18.85754,-2.91136 -40.17272,-3.79915 -44.4863,-1.85284 -80.88816,-8.87667 -122.86977,-23.70806 -29.00048,-10.24536 -80.00437,-34.61808 -80.00437,-38.23088 0,-1.20169 2.18697,-1.52378 4.86018,-0.71569 9.04389,2.73388 45.22073,6.47009 63.42552,6.55031 l 18.10037,0.0798 3.29964,-9.68886 c 7.35144,-21.58622 21.40429,-32.16207 43.04476,-32.3945 15.58437,-0.16742 33.91633,8.49649 39.41783,18.62917 3.88472,7.15487 4.52159,7.36797 13.86059,4.63807 8.50787,-2.48695 9.0705,-3.1144 4.29957,-4.79537 -8.56739,-3.01858 -12.15455,-11.34789 -7.00096,-16.25635 8.62789,-8.21763 22.33055,-1.9552 19.36395,8.84972 -0.91139,3.31969 -0.0901,5.18117 2.28553,5.18117 3.74654,0 5.21124,-1.29981 14.46199,-12.83342 4.19199,-5.22661 7.243,-6.29327 16.94679,-5.9247 14.16286,0.53789 35.89774,-9.92859 115.60916,-55.67206 35.48991,-20.36638 52.21984,-31.39549 52.21984,-34.42576 0,-2.45229 4.11145,-8.61083 9.13658,-13.68563 7.44914,-7.52265 11.0954,-9.22688 19.74174,-9.22688 5.83295,0 13.17781,1.71619 16.32195,3.81376 5.12841,3.4212 5.67916,3.37408 5.35085,-0.45773 -0.22945,-2.68022 5.445,-7.41208 15.23218,-12.7018 11.57591,-6.2564 15.5981,-7.44574 15.5981,-4.61224 0,6.30045 -17.46821,47.39647 -30.10858,70.83369 -6.93,12.84935 -11.52283,24.68157 -11.09396,28.5806 0.55947,5.08595 -2.3525,9.4015 -12.35983,18.31693 -7.20038,6.41485 -18.89846,18.13694 -25.99555,26.04912 -10.20232,11.37389 -12.55853,15.69654 -11.25419,20.64649 1.30592,4.95553 -0.84915,8.88966 -10.33736,18.87126 -11.97603,12.59877 -11.99376,12.60639 -19.08514,8.181 -6.98065,-4.35638 -7.5138,-4.21986 -32.27309,8.26308 -13.84629,6.98097 -32.49955,14.78212 -41.45145,17.3359 -8.95206,2.55378 -19.72702,7.30966 -23.94447,10.56864 -7.55272,5.83626 -21.85606,8.00877 -24.62568,3.74039 z M 357.37944,641.7167 c 10.75064,-5.32746 19.32475,-15.01537 22.14601,-25.02278 2.05681,-7.2958 1.92906,-7.92581 -0.74301,-3.66416 -6.62874,10.57219 -21.28885,21.8248 -30.60196,23.48883 -5.27204,0.94201 -15.00257,1.1312 -21.6233,0.42045 -14.31507,-1.53678 -15.13562,-0.37635 -3.2214,4.55579 11.38079,4.71128 24.80765,4.79879 34.04366,0.22193 z m 219.72824,-30.59912 c 1.95481,-1.54517 4.79024,-5.23035 6.30087,-8.1893 2.56092,-5.01598 2.41329,-4.99392 -2.18269,0.32609 -2.71112,3.13829 -9.20181,7.55581 -14.42378,9.81672 -9.03216,3.91061 -9.09896,4.03152 -1.37144,2.48332 4.46752,-0.89507 9.72224,-2.89163 11.67704,-4.43683 z m -239.54939,-7.08035 c 0.95045,-1.46459 -0.13875,-1.89772 -2.55261,-1.01541 -4.69954,1.71761 -5.55943,3.56951 -1.65726,3.56951 1.40391,0 3.29835,-1.14934 4.20987,-2.5541 z m 112.77532,-13.03895 c 2.88592,-1.47103 5.24714,-3.97657 5.24714,-5.56783 0,-1.69818 -1.96096,-1.22431 -4.74732,1.14718 -2.61099,2.22221 -7.79906,4.56942 -11.52899,5.21596 -6.52761,1.1315 -6.54634,1.18876 -0.49982,1.52744 3.45499,0.19351 8.64305,-0.85173 11.52899,-2.32275 z m 110.81706,-6.87821 c 0.62156,-0.43009 -0.15865,-0.78199 -1.73408,-0.78199 -1.57543,0 -5.74611,2.39434 -9.26847,5.32074 l -6.40416,5.32074 8.13823,-4.53876 c 4.47595,-2.49631 8.64678,-4.89066 9.26848,-5.32073 z M 403.30441,581.7771 c -0.90137,-0.85854 -3.24113,-0.95032 -5.19937,-0.20386 -2.16408,0.82477 -1.52121,1.437 1.63895,1.56096 2.85961,0.11213 4.46179,-0.49846 3.56042,-1.35701 z m 249.68004,-74.79052 c 3.30436,-2.20442 7.27476,-6.26233 8.82287,-9.01753 2.43475,-4.33304 1.47072,-4.14069 -7.13929,1.42434 -10.91587,7.05533 -15.83729,7.74608 -27.33136,3.83607 l -7.63655,-2.5978 6.40401,5.18148 c 7.65871,6.19651 18.63266,6.67555 26.88032,1.17344 z m -463.4137,105.16541 -6.19014,-4.77412 6.32547,0.25269 c 7.47976,0.29875 10.84334,-8.33764 7.95141,-20.4169 l -1.85568,-7.75109 -0.32101,9.17212 c -1.12166,32.05741 -35.58617,7.99217 -35.58617,-24.84856 0,-12.23652 2.4841,-16.61977 9.41882,-16.61977 9.19839,0 18.42081,8.23955 26.72984,23.88091 8.36839,15.75309 11.4742,29.47487 8.89053,39.27935 -2.05765,7.80852 -6.86463,8.37967 -15.36307,1.82537 z m 254.85696,-65.9544 c -12.8764,-6.39931 -23.8874,-17.67516 -28.50469,-29.19032 -3.98056,-9.92723 -4.09271,-12.68502 -0.89149,-21.92326 2.01388,-5.81217 7.14258,-13.88291 11.39709,-17.935 8.55465,-8.14779 26.14733,-13.7917 35.38905,-11.35316 25.21549,6.65345 33.90461,15.84368 36.35437,38.45098 2.97405,27.44476 -10.52734,45.51676 -33.98314,45.48731 -6.9725,-0.009 -15.86504,-1.60019 -19.76119,-3.53655 z m 29.31649,-11.83602 c 9.38593,-5.45078 15.47136,-13.18492 18.38576,-23.36695 1.59531,-5.57354 1.09377,-5.32708 -3.65713,1.79741 -10.17086,15.25195 -29.61748,22.78051 -48.41408,18.74284 -12.71918,-2.7322 -14.28545,-1.41093 -4.38511,3.6992 10.72289,5.53467 27.70802,5.14539 38.07056,-0.8725 z m -158.44879,-50.3685 c -17.88179,-5.3227 -35.21253,-16.11303 -55.7186,-34.69101 -28.26693,-25.60928 -39.73726,-52.16723 -36.26253,-83.96072 7.24687,-66.30803 86.29596,-105.01452 150.96718,-73.92129 29.84293,14.34819 45.98848,35.28804 52.07277,67.53532 2.42988,12.8788 4.99737,18.19903 11.97045,24.8053 14.87683,14.09412 15.78664,38.93518 1.93034,52.7101 -4.06511,4.04126 -10.16641,7.34777 -13.55846,7.34777 -3.39191,0 -7.74126,1.94406 -9.66517,4.32013 -12.97667,16.02722 -32.28139,31.46326 -44.17674,35.32363 -15.58322,5.05719 -41.54815,5.29659 -57.55924,0.53077 z m 51.02635,-27.55022 c 10.05869,-4.41585 21.59498,-11.3158 25.63606,-15.3332 6.61071,-6.5719 8.63919,-7.1587 20.2274,-5.85153 10.75364,1.21305 13.83141,0.54671 18.64325,-4.03628 3.16974,-3.01904 5.76328,-7.41334 5.76328,-9.76516 0,-3.91199 -0.44118,-3.89568 -5.18321,0.19146 -2.85059,2.45714 -11.78877,5.32133 -19.86262,6.36485 -8.07385,1.04354 -18.86426,4.33735 -23.97865,7.31962 -35.85026,20.90448 -71.51083,25.20283 -107.7848,12.99182 -21.48096,-7.23122 -22.18249,-4.12243 -1.32079,5.85251 31.58172,15.10066 57.1235,15.75935 87.86008,2.26582 z m 33.04357,-71.84418 c -1.05959,-1.48947 -14.31521,10.5473 -14.31521,12.99896 0,1.08269 3.39477,-1.15462 7.54414,-4.97183 4.14936,-3.81722 7.19636,-7.42941 6.77107,-8.02713 z m 17.55921,-1.98613 c -2.61099,-0.64985 -6.88353,-0.64985 -9.49451,0 -2.61098,0.64988 -0.47479,1.1816 4.74718,1.1816 5.22197,0 7.3583,-0.53172 4.74733,-1.1816 z m -75.90252,-25.48027 c 3.30449,-2.20445 7.4181,-6.56443 9.14145,-9.68886 2.74216,-4.97185 2.23218,-4.83349 -4.08671,1.1087 -7.83052,7.36377 -18.8378,10.51901 -29.11937,8.34711 -5.15546,-1.08906 -5.66186,-0.79958 -2.43789,1.39369 5.94967,4.04773 19.59067,3.45032 26.50252,-1.16064 z m -14.90559,-40.20945 c 8.24051,-2.07159 8.12793,-2.13169 -1.94036,-1.03499 -6.13536,0.6683 -13.06894,3.53346 -16.27631,6.72582 l -5.5876,5.56156 7.52796,-4.52657 c 4.14036,-2.48961 11.46476,-5.51626 16.27631,-6.72582 z M 168.24085,468.13398 c -10.93904,-8.76688 -11.49837,-21.54811 -1.36514,-31.19938 5.8162,-5.53964 8.64506,-6.39535 16.95451,-5.1285 12.54194,1.91211 19.4678,9.80392 19.4678,22.18308 0,19.07326 -19.22747,26.83111 -35.05717,14.1448 z m 19.86033,-1.41214 c 3.71821,-1.61352 7.42168,-4.57539 8.23021,-6.58191 1.18533,-2.94205 0.30971,-2.8743 -4.52344,0.34996 -3.29635,2.19901 -9.68906,4.07994 -14.20607,4.17983 -7.04302,0.1558 -7.43999,0.49787 -2.78737,2.40208 2.98407,1.22128 5.67316,2.30222 5.976,2.4021 0.30284,0.1 3.59261,-1.13854 7.31067,-2.75206 z m 469.30558,-98.86392 c -7.8597,-7.48593 -9.22313,-10.57095 -9.22313,-20.86831 0,-9.9108 1.42594,-13.44186 7.92951,-19.63608 4.36109,-4.15382 9.91508,-7.55235 12.34181,-7.55235 7.91521,0 19.69211,7.40995 21.39385,13.46093 3.6062,12.8218 1.81691,29.66975 -3.884,36.57268 -7.81421,9.46162 -17.23276,8.80963 -28.55804,-1.97687 z m 19.13878,-0.57148 c 4.90768,-1.79368 13.59551,-16.13563 11.1725,-18.4435 -0.85602,-0.81528 -1.5564,-0.12589 -1.5564,1.53194 0,5.78281 -10.85378,13.34911 -19.14908,13.34911 -4.84146,0 -7.59992,1.07632 -6.62174,2.5837 1.89201,2.91576 9.58048,3.38156 16.15472,0.97875 z m -120.59438,-59.3471 c -35.71922,-12.59243 -46.13011,-21.72194 -48.20307,-42.27025 -2.23506,-22.15338 16.22051,-45.07921 41.77503,-51.89373 15.84673,-4.2258 43.09426,-1.82406 52.28149,4.6084 11.06335,7.74611 23.01348,30.91906 22.97528,44.5523 -0.0744,26.57778 -18.17403,43.82817 -47.72242,45.48342 -9.37048,0.5249 -18.86826,0.30885 -21.10631,-0.48014 z m 28.59581,-13.6642 c 6.02963,-2.60865 14.23753,-8.44929 18.23955,-12.97922 8.3179,-9.41515 14.59573,-28.0363 10.70229,-31.74465 -1.57458,-1.49956 -3.15087,0.50561 -4.15438,5.28436 -4.02104,19.14918 -34.56464,39.0206 -60.16493,39.14291 -9.76444,0.0466 -12.42392,0.76633 -9.49451,2.56938 6.78238,4.17466 33.04372,2.84451 44.87198,-2.27278 z m -342.267,-42.6529 c -13.91524,-5.98885 -12.63664,-8.41502 3.9026,-7.40558 19.97649,1.21924 31.11595,-5.01412 39.34945,-22.01888 l 5.9089,-12.20366 0.85416,8.31965 c 1.05015,10.2269 -6.27397,25.60391 -14.69944,30.86193 -8.93432,5.57555 -25.39573,6.71594 -35.31567,2.44654 z m -28.11072,-45.50366 c 0,-9.30525 9.20183,-22.31835 19.29801,-27.29097 13.06192,-6.43331 33.35098,-3.89847 42.63748,5.32698 5.87672,5.83805 6.21004,6.77387 1.79302,5.03461 -2.98392,-1.175 -12.13939,-2.54404 -20.34542,-3.04231 -17.5097,-1.06319 -29.38702,4.56721 -37.9926,18.01031 -5.2008,8.12415 -5.39049,8.19321 -5.39049,1.96138 z m 263.11319,-32.52951 -6.7818,-3.92575 8.0009,1.1738 c 11.78047,1.72833 20.23155,-2.34843 24.56774,-11.85131 l 3.84066,-8.41667 0.10586,7.94663 c 0.12016,9.0239 -9.34859,19.23626 -17.7014,19.0906 -2.88764,-0.0503 -8.3023,-1.85813 -12.03224,-4.0173 z m -13.56361,-20.18726 c 0,-0.98859 1.786,-5.0868 3.96869,-9.10713 6.41259,-11.81072 18.40321,-13.96621 28.96159,-5.20628 l 6.40415,5.31326 -6.35623,-2.94926 c -8.41431,-3.90416 -18.37574,-1.26 -26.42756,7.01481 -3.60291,3.70262 -6.55064,5.92318 -6.55064,4.9346 z M 321.3013,122.40875 c 16.83393,-3.94157 24.24058,-7.69271 29.88685,-15.13649 l 4.39441,-5.79333 -0.86446,6.45924 c -1.1304,8.44781 -20.74025,18.17275 -36.02621,17.86614 l -10.9542,-0.21974 13.56361,-3.17582 z m -30.62599,-12.48314 c 2.06952,-6.41966 24.41052,-14.914681 38.66064,-14.700521 l 13.66705,0.205414 -17.2073,3.556979 c -9.46402,1.956328 -21.47553,5.955568 -26.69235,8.887198 -5.8594,3.29267 -9.08108,4.07667 -8.42804,2.05093 z"
         id="path4759"
         inkscape:connector-curvature="0" />
    </g>
    <g
       id="g5464"
       transform="matrix(-0.26713037,0,0,-0.26713037,718.65217,799.84184)"
       style="filter:url(#filter4858)">
      <path
         style="fill:#ff5555;fill-rule:evenodd"
         inkscape:connector-curvature="0"
         id="path5315-6"
         d="m 417.52,247.56 c -18.306,0.30901 -41.979,8.8718 -72.031,34.062 -68.69,57.579 -46.993,114.65 -41.438,124.25 2.6116,4.511 5.8609,16.305 10.688,26.844 -15.693,11.44 -25.844,29.528 -25.844,49.906 0,21.877 11.708,41.135 29.406,52.344 -3.2464,4.0453 -7.3244,9.8641 -12.312,18.344 -0.0241,0.0409 -0.0386,0.0842 -0.0625,0.125 -7.2821,-0.38047 -14.845,1.6735 -22.312,7.375 -18.985,-19.329 -85.222,-84.79 -96.219,-68.906 -12.857,18.571 -8.5625,67.147 -18.562,85.719 -10,18.571 -14.268,-12.866 -27.125,-11.438 -12.857,1.4286 -8.5759,17.152 4.2812,21.438 6.3352,2.1117 11.267,2.4729 14.656,2.3125 3.1128,-0.572 5.3438,-0.90626 5.3438,-0.90625 0,0 -1.8543,0.74114 -5.3438,0.90625 -10.176,1.8699 -30.908,6.4991 -23.25,11.969 10,7.1429 31.438,-7.1562 31.438,-7.1562 0,-3e-5 -27.138,20.018 -14.281,22.875 12.857,2.8572 22.862,-20 25.719,-30 2.8571,-10 7.1429,-82.857 20,-80 10.345,2.2989 55.337,46.627 72.719,64.062 -1.392,1.8252 -2.788,3.7874 -4.1562,5.9375 -20,31.429 -27.125,54.263 -17.125,141.41 0.40788,3.5544 0.94218,6.9172 1.5625,10.125 -2.4609,-0.99614 -5.1659,-1.5312 -8,-1.5312 -11.434,0 -20.719,8.96 -20.719,20 0,11.04 9.2845,20 20.719,20 0.89864,0 1.7877,-0.0802 2.6562,-0.1875 -6.0916,9.9496 -10.952,21.88 -9.0938,33.031 4.2857,25.714 52.862,60.009 55.719,71.438 2.8571,11.429 -10.004,-15.714 -45.719,-10 -35.714,5.7143 -59.987,28.562 -42.844,28.562 17.143,-3e-5 115.71,4.2902 114.28,-4.2812 -1.4286,-8.5714 -54.281,-58.585 -54.281,-77.156 0,-15.426 18.713,-23.923 34.062,-27.188 15.801,-4.7294 22.337,-5.2847 36.375,-8.6562 24.136,-7.6202 55.249,-18.438 66.688,-18.438 17.143,-3e-5 52.866,35.732 61.438,52.875 8.5714,17.143 20.004,35.71 25.719,24.281 5.7143,-11.429 28.554,-47.156 47.125,-47.156 18.571,-3e-5 38.594,0 38.594,0 -2e-5,-3e-5 4.2857,-21.42 -20,-28.562 -24.286,-7.1428 -62.862,21.42 -65.719,38.562 -2.8572,17.143 -8.5625,11.438 -8.5625,11.438 10e-6,2e-5 -54.308,-54.29 -68.594,-65.719 -13.239,-10.592 -37.857,-6.5667 -60.406,-21.75 -7.1616,-8.9114 -18.304,-17.066 -26.719,-29.688 -17.143,-25.714 19.996,-57.147 24.281,-75.719 1.5271,-6.6176 1.4204,-13.586 -0.125,-20.344 14.175,-2.1146 38.854,-5.3438 57.25,-5.3438 27.143,0 41.451,-8.5803 58.594,-21.438 17.143,-12.857 28.567,-48.585 34.281,-57.156 5.7143,-8.5714 28.567,10.013 44.281,-2.8438 15.714,-12.8568 -27.143,-0.0134 -30,-7.1562 -2.8572,-7.1429 29.996,-7.125 24.281,-17.125 -5.7143,-10 -42.844,14.281 -42.844,4.2812 0,-10 17.134,-14.277 28.562,-18.562 11.429,-4.2857 -14.286,-11.433 -30,4.2812 -15.714,15.7142 -5.7232,31.424 -11.438,44.281 -5.7143,12.857 -32.857,54.29 -50,55.719 -16.311,1.3593 -86.342,0.15353 -93.281,0.0312 -3.1106,-3.8136 -6.7962,-7.2287 -11,-10.031 -0.19375,-0.12916 -0.39856,-0.2477 -0.59375,-0.375 0.19579,-0.35507 0.38376,-0.69502 0.59375,-1.0625 4.5249,-7.9185 8.3348,-12.876 11.25,-16.656 4.5023,0.94777 9.1723,1.4688 13.969,1.4688 35.966,0 65.156,-28.085 65.156,-62.656 0,-31.526 -24.263,-57.613 -55.812,-61.969 -0.01,-6.7224 1.833,-15.357 8.3438,-24.906 15.152,-22.223 16.159,-11.106 65.656,-16.156 49.498,-5.0508 54.551,-22.216 49.5,-50.5 -5.0508,-28.284 -37.389,-13.14 -51.531,7.0625 -14.142,20.203 -66.67,30.327 -77.781,44.469 -8.6867,11.056 -5.0114,22.741 -3,39.375 -0.17645,-0.001 -0.35447,0 -0.53125,0 -2.1951,0 -19.513,4.1802 -21.652,4.3844 -2.1166,-7.1455 -3.7848,-24.908 -6.1148,-35.685 -8.0812,-37.376 33.331,-44.463 79.798,-55.574 46.467,-11.112 71.736,-47.463 57.594,-63.625 -7.955,-9.0914 -22.62,-22.335 -46.156,-21.938 z" />
      <path
         style="fill:#ffffff"
         inkscape:connector-curvature="0"
         id="path5322-4"
         transform="translate(54.548,-74.751)"
         d="m 298,541.22 c 0,11.158 -9.2713,20.203 -20.708,20.203 -11.4367,0 -20.708,-9.0452 -20.708,-20.203 0,-11.1578 9.2713,-20.203 20.708,-20.203 11.4367,0 20.708,9.0452 20.708,20.203 z" />
      <path
         style="fill:#ffffff"
         inkscape:connector-curvature="0"
         id="path5324-0"
         transform="translate(54.548,-74.751)"
         d="m 329.31,533.14 c 0,7.2526 -6.3316,13.132 -14.142,13.132 -7.8105,0 -14.142,-5.8794 -14.142,-13.132 0,-7.2526 6.3316,-13.132 14.142,-13.132 7.8105,0 14.142,5.8794 14.142,13.132 z" />
      <path
         style="fill:#280b0b"
         inkscape:connector-curvature="0"
         id="path5326-7"
         transform="translate(54.548,-74.751)"
         d="m 320.22,569.51 c 0,5.021 -4.5226,9.0914 -10.102,9.0914 -5.5789,0 -10.102,-4.0704 -10.102,-9.0914 0,-5.021 4.5226,-9.0914 10.102,-9.0914 5.5789,0 10.102,4.0704 10.102,9.0914 z" />
      <path
         style="fill:none;stroke:#501616"
         inkscape:connector-curvature="0"
         id="path5328-0"
         d="m 366.69,498.8 5.0508,45.457" />
      <path
         style="fill:#280b0b"
         inkscape:connector-curvature="0"
         id="path5336-2"
         transform="translate(52.467,-71.075)"
         d="m 288.9,536.17 c 0,3.3474 -2.4874,6.0609 -5.5558,6.0609 -3.0684,0 -5.5558,-2.7136 -5.5558,-6.0609 0,-3.3474 2.4874,-6.0609 5.5558,-6.0609 3.0684,0 5.5558,2.7136 5.5558,6.0609 z" />
      <path
         style="fill:#280b0b"
         inkscape:connector-curvature="0"
         id="path5338-1"
         transform="translate(55.558,-77.782)"
         d="m 320.22,537.18 c 0,4.4631 -3.6181,8.0812 -8.0812,8.0812 -4.4631,0 -8.0812,-3.6181 -8.0812,-8.0812 0,-4.4631 3.6181,-8.0812 8.0812,-8.0812 4.4631,0 8.0812,3.6181 8.0812,8.0812 z" />
      <path
         style="fill:none;stroke:#2b0000;stroke-width:1.68700004"
         inkscape:connector-curvature="0"
         id="path5340-9"
         d="m 290.42,536.05 c 0,4.5329 -3.6746,8.2075 -8.2075,8.2075 -4.5329,0 -8.2075,-3.6746 -8.2075,-8.2075 0,-4.5329 3.6746,-8.2075 8.2075,-8.2075 4.5329,0 8.2075,3.6746 8.2075,8.2075 z"
         transform="translate(53.477,-70.823)" />
      <path
         style="fill:none;stroke:#2b0000;stroke-width:1.68700004"
         inkscape:connector-curvature="0"
         id="path5342-0"
         d="m 290.42,536.05 c 0,4.5329 -3.6746,8.2075 -8.2075,8.2075 -4.5329,0 -8.2075,-3.6746 -8.2075,-8.2075 0,-4.5329 3.6746,-8.2075 8.2075,-8.2075 4.5329,0 8.2075,3.6746 8.2075,8.2075 z"
         transform="matrix(1.4361,0,0,1.3926,-69.596,-281.27)" />
      <path
         style="fill:url(#linearGradient4841);fill-rule:evenodd"
         inkscape:connector-curvature="0"
         id="path5422-4"
         d="m 286.88,702.85 c 0,0 -5.0508,-68.69 2.0203,-92.934 7.0711,-24.244 21.213,-31.315 35.355,-25.254 14.142,6.0609 2.0203,18.183 -7.0711,55.558 -9.0914,37.376 -6.0609,47.477 6.0609,62.63 12.122,15.152 21.213,28.284 3.0304,34.345 -18.183,6.0609 -31.315,11.112 -34.345,0 -3.0305,-11.112 -5.0508,-34.345 -5.0508,-34.345 z" />
      <path
         inkscape:connector-curvature="0"
         id="path5440-2"
         d="m 315.17,345.26 c 0,0 23.234,-53.538 58.589,-72.731 35.355,-19.193 68.69,-21.213 55.558,-5.0508 -13.132,16.1622 -56.568,34.345 -72.731,46.467 -16.162,12.122 -34.345,30.305 -35.355,39.396 -1.0102,9.0914 -8.0812,-7.0711 -6.0609,-8.0812 z"
         style="fill:url(#linearGradient7736-2);fill-rule:evenodd" />
      <path
         inkscape:connector-curvature="0"
         id="path5450-7"
         d="m 397.28,373.88 c 0,0 37.076,-2.4482 56.162,-19.527 19.086,-17.0788 27.445,-36.629 14.94,-32.222 -12.505,4.4067 -32.718,26.547 -43.45,33.636 -10.732,7.0897 -25.531,14.091 -31.197,12.747 -5.6666,-1.3438 2.5061,6.3606 3.5448,5.3661 z"
         style="fill:url(#linearGradient7738-4);fill-rule:evenodd" />
    </g>
    <path
       style="fill:#000000;fill-rule:evenodd;stroke:#000000;stroke-width:0.43033677px;stroke-linecap:butt;stroke-linejoin:miter;stroke-opacity:1"
       d="M 35.980152,575.21248 -65.398209,620.77877 -15.14033,609.6793 -91.140064,671.34311 -0.43070641,617.07896 -7.7855184,637.42801 14.278917,621.39542 -6.9001882,682.78337 55.002769,591.58584 Z"
       id="path4870"
       inkscape:connector-curvature="0"
       sodipodi:nodetypes="cccccccccc" />
    <path
       inkscape:connector-curvature="0"
       id="path4872"
       d="m 196.53934,731.28807 -57.53909,94.18135 11.90463,-44.9004 -66.136906,67.89819 58.200476,-81.03977 -21.82517,6.5708 17.19559,-19.71239 -65.547929,23.77219 100.419489,-65.65175 z"
       style="fill:#000000;fill-rule:evenodd;stroke:#000000;stroke-width:0.42124841px;stroke-linecap:butt;stroke-linejoin:miter;stroke-opacity:1"
       sodipodi:nodetypes="cccccccccc" />
    <path
       style="fill:none;fill-rule:evenodd;stroke:#000000;stroke-width:1.14662206px;stroke-linecap:butt;stroke-linejoin:miter;stroke-opacity:1"
       d="m 101.05482,300.70191 c 95.76163,-210.363025 430.02786,-215.388089 517.11802,0"
       id="path3532"
       inkscape:connector-curvature="0"
       sodipodi:nodetypes="cc" />
  </g>
</svg>
