<?xml version="1.0" encoding="UTF-8"?>
<svg viewBox="0 0 340 400" xmlns="http://www.w3.org/2000/svg" xmlns:xlink="http://www.w3.org/1999/xlink">
 <defs>
  <linearGradient id="e">
   <stop stop-color="#99aab4" offset="0"/>
   <stop stop-color="#d9dfe3" offset="1"/>
  </linearGradient>
  <linearGradient id="f">
   <stop stop-color="#a4a569" offset="0"/>
   <stop stop-color="#9f7f25" offset=".4527"/>
   <stop stop-color="#866e24" offset=".7622"/>
   <stop stop-color="#775c15" offset="1"/>
  </linearGradient>
  <linearGradient id="d">
   <stop stop-color="#733d20" offset="0"/>
   <stop stop-color="#7a3a0d" stop-opacity="0" offset=".2957"/>
   <stop stop-color="#53280e" stop-opacity="0" offset=".357"/>
   <stop stop-color="#1e1814" offset=".6857"/>
   <stop stop-color="#0f0c0a" stop-opacity=".5255" offset=".8607"/>
   <stop stop-opacity="0" offset="1"/>
  </linearGradient>
  <linearGradient id="b">
   <stop stop-color="#fff" offset="0"/>
   <stop stop-color="#fff" stop-opacity="0" offset="1"/>
  </linearGradient>
  <radialGradient id="p" cx="272.51" cy="154.7" r="54.176" gradientTransform="matrix(.95385 0 0 5.3076 332.19 -655.7)" gradientUnits="userSpaceOnUse" spreadMethod="reflect">
   <stop stop-color="#733d20" offset="0"/>
   <stop stop-color="#7a3a0d" offset=".2957"/>
   <stop stop-color="#53280e" offset=".5557"/>
   <stop stop-color="#1e1814" offset=".8427"/>
   <stop offset="1"/>
  </radialGradient>
  <radialGradient id="w" cx="343.13" cy="193.14" r="51.609" gradientTransform="matrix(1.8026 0 0 3.724 -276.46 -239.96)" gradientUnits="userSpaceOnUse" xlink:href="#f"/>
  <radialGradient id="v" cx="485.46" cy="225.26" r="51.609" gradientTransform="matrix(.70044 0 0 1.3645 114.66 221.04)" gradientUnits="userSpaceOnUse" xlink:href="#b" spreadMethod="reflect"/>
  <radialGradient id="u" cx="374.84" cy="364.62" r="50.861" gradientTransform="matrix(1 0 0 .41409 0 213.64)" gradientUnits="userSpaceOnUse" xlink:href="#e"/>
  <radialGradient id="t" cx="365.02" cy="526.83" r="48.797" gradientTransform="matrix(.62104 0 0 .38947 145.29 358.27)" gradientUnits="userSpaceOnUse" xlink:href="#e" spreadMethod="reflect"/>
  <radialGradient id="s" cx="371.08" cy="580" r="48.797" gradientTransform="matrix(1.2413 -.41074 .13543 .62419 -171.1 404.35)" gradientUnits="userSpaceOnUse" xlink:href="#e" spreadMethod="reflect"/>
  <radialGradient id="a" cx="591.62" cy="-32.763" r="15.125" gradientTransform="matrix(1 0 0 .1405 0 -28.16)" gradientUnits="userSpaceOnUse" xlink:href="#b"/>
  <radialGradient id="r" cx="266.58" cy="85.747" r="45.822" gradientTransform="matrix(1 0 0 .35187 0 55.575)" gradientUnits="userSpaceOnUse" xlink:href="#d"/>
  <radialGradient id="q" cx="403.65" cy="610.49" r="48.797" gradientTransform="matrix(.92388 -.24755 .1008 .3762 -30.694 459.26)" gradientUnits="userSpaceOnUse" xlink:href="#e" spreadMethod="reflect"/>
  <radialGradient id="c" cx="583.36" cy="41.553" r="2.8284" gradientTransform="matrix(1 0 0 12.625 0 -483.05)" gradientUnits="userSpaceOnUse" xlink:href="#b"/>
  <radialGradient id="o" cx="275.39" cy="145.64" r="54.176" gradientTransform="matrix(.98146 0 0 5.3076 324.66 -655.7)" gradientUnits="userSpaceOnUse" xlink:href="#d" spreadMethod="reflect"/>
  <radialGradient id="n" cx="589.1" cy="87.644" r="49.078" gradientTransform="matrix(2.1361 0 0 1.1934 -664.85 -54.699)" gradientUnits="userSpaceOnUse" xlink:href="#d"/>
  <radialGradient id="m" cx="255.46" cy="107.31" r="6.2578" gradientTransform="matrix(-1.2524 .15589 .49077 3.3221 882.73 -279.6)" gradientUnits="userSpaceOnUse" xlink:href="#b"/>
  <radialGradient id="l" cx="266.7" cy="72.331" r="3.7895" gradientTransform="matrix(.57173 -.1532 .51725 1.9304 420.12 -20.315)" gradientUnits="userSpaceOnUse" xlink:href="#b"/>
  <radialGradient id="k" cx="255.46" cy="107.31" r="6.2578" gradientTransform="matrix(-.62003 .01404 .07503 1.6485 765.28 -65.001)" gradientUnits="userSpaceOnUse" xlink:href="#b"/>
  <radialGradient id="j" cx="592.45" cy="-16.625" r="25.12" gradientTransform="matrix(2.927 0 0 1.2022 -1141.2 -3.1589)" gradientUnits="userSpaceOnUse" xlink:href="#d" spreadMethod="reflect"/>
  <radialGradient id="i" cx="266.7" cy="72.331" r="3.7895" gradientTransform="matrix(.93697 -.25106 .84768 3.1636 298.97 -83.047)" gradientUnits="userSpaceOnUse" xlink:href="#b"/>
  <radialGradient id="h" cx="260.43" cy="124.28" r="45.808" fx="275.06" fy="93.246" gradientTransform="matrix(.92502 .50067 -.09839 .7352 38.924 -135.12)" gradientUnits="userSpaceOnUse" xlink:href="#f"/>
  <radialGradient id="g" cx="267.6" cy="88.276" r="45.808" gradientTransform="matrix(.99997 0 0 .35167 .00669 55.592)" gradientUnits="userSpaceOnUse" xlink:href="#d"/>
 </defs>
 <g transform="translate(-499.16 49.067)">
  <path d="m592.2-42.161c-6.5414 0-12.484 0.67892-16.782 1.7812-3.2231 0.82675-5.5182 1.903-6.4683 3.0938-0.31673 0.39692-0.50674 0.79764-0.50674 1.2188 0.0534 0.86731-0.25512 1.8219-0.35769 2.5625 0 1.0999 0.66045 2.1623 1.7885 3.125-1.8918 5.4597-3.6563 10.054-2.4442 15.125 0.34068 1.4254 2.2846 1.9574 2.6529 3.375 1.1542 4.4423-1.4006 11.621-2.0269 13.656-0.70088 2.2778-1.3307 4.5818-1.8779 6.9062s-1.022 4.6601-1.4308 6.9688-0.78735 4.6135-1.0731 6.8438-0.47779 4.4106-0.65577 6.5-0.33181 4.0827-0.41732 5.9688-0.11087 3.661-0.11923 5.2812c0 12.488 3.8068 18.531 1.7885 27.5-3.5452 15.754-22.483 24.348-22.999 43.754s-0.43735 36.244-0.43262 53.035c5e-3 16.791-0.0641 33.534-0.14548 50.066s-0.1753 32.851-0.2207 48.795c-0.0227 7.9718-0.3785 15.75-0.0241 23.613 0.34552 7.6659 0 0 2.0944 22.926 0 12.701 21.133 23 49.657 23s49.598-10.299 49.598-23c1.9997-24.441 1.6662-16.274 1.9997-24.441 0.33266-8.1457-1.1e-4 -16.305-1.3e-4 -24.457-4e-5 -16.316-2e-5 -32.627 4e-5 -48.947s1.5e-4 -32.643 2.3e-4 -48.962 1.3e-4 -32.635-0.62196-51.834-19.565-27.903-23.105-43.546c-2.0325-8.9808 1.8183-15.012 1.8183-27.5-0.0675-1.5799-0.19175-3.318-0.32789-5.1875s-0.32137-3.8777-0.53654-5.9688-0.44059-4.2867-0.7452-6.5312-0.63883-4.5451-1.0433-6.875-0.88629-4.684-1.401-7.0312-1.0637-4.6722-1.699-6.9688c-0.56286-2.0346-3.0251-9.2117-1.8481-13.625 0.36981-1.3866 2.2595-1.9155 2.5933-3.3125 1.2135-5.0782-0.52594-9.684-2.4144-15.156 1.1203-0.95752 1.7885-1.9989 1.7885-3.0938-0.16366-0.93712-0.30927-1.7462-0.38751-2.5625 0-3.3689-10.585-6.0938-23.668-6.0938z" fill="url(#p)" opacity=".9581"/>
  <path d="m592.2-42.161c-6.7308 0-12.846 0.67892-17.268 1.7812-3.3164 0.82675-5.6779 1.903-6.6555 3.0938-0.32589 0.39692-0.5214 0.79764-0.5214 1.2188 0.0549 0.86731-0.26251 1.8219-0.36805 2.5625 0 1.0999 0.67956 2.1623 1.8402 3.125-1.9466 5.4597-3.7621 10.054-2.515 15.125 0.35054 1.4254 2.3507 1.9574 2.7297 3.375 1.1876 4.4423-1.4411 11.621-2.0856 13.656-0.72116 2.2778-1.3692 4.5818-1.9322 6.9062s-1.0515 4.6601-1.4722 6.9688-0.81013 4.6135-1.1041 6.8438-0.49162 4.4106-0.67475 6.5-0.34142 4.0827-0.4294 5.9688-0.11408 3.661-0.12268 5.2812c0 12.488 3.917 18.531 1.8402 27.5-3.6478 15.754-23.134 24.348-23.664 43.754s-0.45 36.244-0.44514 53.035c5e-3 16.791-0.0659 33.534-0.14969 50.066s-0.18038 32.851-0.22709 48.795c-0.0234 7.9718-0.38946 15.75-0.0248 23.613 0.35552 7.6659 0 0 2.155 22.926 0 12.701 21.745 23 51.094 23s51.033-10.299 51.033-23c2.0576-24.441 1.7144-16.274 2.0576-24.441 0.34229-8.1457-1.1e-4 -16.305-1.3e-4 -24.457-5e-5 -16.316-3e-5 -32.627 4e-5 -48.947s1.6e-4 -32.643 2.3e-4 -48.962 1.4e-4 -32.635-0.63995-51.834-20.131-27.903-23.774-43.546c-2.0914-8.9808 1.8709-15.012 1.8709-27.5-0.0694-1.5799-0.1973-3.318-0.33738-5.1875s-0.33068-3.8777-0.55207-5.9688-0.45335-4.2867-0.76677-6.5312-0.65732-4.5451-1.0735-6.875-0.91193-4.684-1.4415-7.0312-1.0945-4.6722-1.7482-6.9688c-0.57916-2.0346-3.1127-9.2117-1.9016-13.625 0.3805-1.3866 2.3249-1.9155 2.6683-3.3125 1.2486-5.0782-0.54116-9.684-2.4843-15.156 1.1527-0.95752 1.8402-1.9989 1.8402-3.0938-0.16841-0.93712-0.31823-1.7462-0.39873-2.5625 0-3.3689-10.891-6.0938-24.353-6.0938z" fill="url(#o)" opacity=".9581"/>
  <path d="m564.09 55.094c0.7194 4.2785 1.2136 8.0966 0.1875 12.656-3.5452 15.754-22.484 24.344-23 43.75-4e-3 0.16093 4e-3 0.30817 0 0.46875 17.378 4.1908 37.42 6.5938 58.75 6.5938 15.267 0 29.829-1.259 43.25-3.5-0.0367-1.2793-0.0515-2.4762-0.0937-3.7812-0.62209-19.198-19.585-27.887-23.125-43.531-0.8982-3.9687-0.62213-7.3715-0.0625-11-6.4938 0.47246-13.158 0.71875-19.969 0.71875-12.523 0-24.585-0.84455-35.938-2.375z" fill="url(#n)" opacity=".9581"/>
  <path d="m631.68 140.7c-10.962 6.5804-22.205-2.2152-26.36-8.721-4.2995-8.506-1.3275-18.269-5.7858-26.823-4.567-12.928-13.404-24.74-17.438-37.775 0.16075-8.4565 14.953-9.6142 23.274-7.4318 31.654 11.952 43.428 63.639 26.31 80.75z" fill="url(#m)" opacity=".493"/>
  <path d="m609.22 87.556c-1.6596-4.7844-0.85986-10.12-2.9868-14.773-0.73416-0.99308-0.63214-2.2194-0.15685-3.2888 0.21241-1.0669 1.1838-2.746 2.4506-1.8895 1.3197 1.059 2.0046 2.6892 2.6953 4.1916 1.3166 3.3426 2.2344 6.8684 2.5516 10.452 0.0609 1.7612 0.20106 3.6762-0.69488 5.2651-0.66506 1.1724-2.238 1.0455-3.2325 0.40767-0.21325-0.11375-0.42074-0.23785-0.62647-0.36456z" fill="url(#l)" opacity=".6558"/>
  <path d="m621.68 128.01c-5.686 2.6729-10.746-2.1852-12.454-5.572-1.6798-4.3719 0.25781-8.9975-1.4972-13.4-1.5911-6.5469-5.3251-12.76-6.6502-19.333 0.49833-4.1262 7.7876-3.958 11.747-2.4781 14.882 7.4143 18.072 33.268 8.8546 40.783z" fill="url(#k)"/>
  <path d="m592.19-42.156c-6.5414 0-12.484 0.67892-16.781 1.7812-3.2231 0.82675-5.5186 1.903-6.4688 3.0938-0.31673 0.39692-0.5 0.79764-0.5 1.2188 0.0534 0.86731-0.24118 1.8219-0.34375 2.5625 0 1.0999 0.65323 2.1623 1.7812 3.125-1.8918 5.4597-3.6495 10.054-2.4375 15.125 0.11001 0.46029 0.38142 0.82237 0.71875 1.1562 6.9396 2.1879 15.159 3.4688 23.969 3.4688 8.8384 0 17.078-1.2992 24.031-3.5 0.3287-0.32818 0.61095-0.67389 0.71875-1.125 1.2135-5.0782-0.51775-9.684-2.4062-15.156 1.1203-0.95752 1.7812-1.9989 1.7812-3.0938-0.16366-0.93712-0.29676-1.7462-0.375-2.5625 0-3.3689-10.605-6.0938-23.688-6.0938z" fill="url(#j)" opacity=".9581"/>
  <path transform="matrix(.93919 -.00372 -.05388 .70331 33.748 -9.2305)" d="m586.19 41.553c0 19.721-1.2663 35.709-2.8284 35.709s-2.8284-15.987-2.8284-35.709 1.2663-35.709 2.8284-35.709 2.8284 15.987 2.8284 35.709z" fill="url(#c)" opacity=".493"/>
  <path d="m608.87 93.734c-2.7198-7.8408-1.4092-16.586-4.8949-24.211-1.2032-1.6275-1.036-3.6373-0.25705-5.3898 0.34811-1.7485 1.9401-4.5003 4.0161-3.0966 2.1627 1.7356 3.2851 4.4072 4.4171 6.8692 2.1577 5.478 3.6618 11.256 4.1817 17.129 0.0998 2.8862 0.3295 6.0247-1.1388 8.6286-1.0899 1.9213-3.6677 1.7134-5.2975 0.66811-0.34948-0.18642-0.68952-0.38979-1.0267-0.59745z" fill="url(#i)"/>
  <path transform="matrix(.05656 .3251 -.70073 .05945 548.62 -213.63)" d="m606.75-32.763c0 1.1736-6.7717 2.125-15.125 2.125s-15.125-0.95139-15.125-2.125 6.7717-2.125 15.125-2.125 15.125 0.95139 15.125 2.125z" fill="url(#a)" opacity=".493"/>
  <path transform="matrix(.99954 -.01686 .08246 .91104 19.173 .81807)" d="m587.78 41.553c0 19.721-1.977 35.709-4.4156 35.709s-4.4156-15.987-4.4156-35.709 1.977-35.709 4.4156-35.709 4.4156 15.987 4.4156 35.709z" fill="url(#c)" opacity=".493"/>
  <path transform="matrix(.53335 -.009 .044 .48613 294.73 15.887)" d="m587.78 41.553c0 19.721-1.977 35.709-4.4156 35.709s-4.4156-15.987-4.4156-35.709 1.977-35.709 4.4156-35.709 4.4156 15.987 4.4156 35.709z" fill="url(#c)"/>
  <path transform="matrix(.52764 -.00209 -.03027 .39513 272.85 2.6246)" d="m586.19 41.553c0 19.721-1.2663 35.709-2.8284 35.709s-2.8284-15.987-2.8284-35.709 1.2663-35.709 2.8284-35.709 2.8284 15.987 2.8284 35.709z" fill="url(#c)"/>
  <path transform="matrix(.46432 .06586 -.09913 .69889 324.16 -54.951)" d="m606.75-32.763c0 1.1736-6.7717 2.125-15.125 2.125s-15.125-0.95139-15.125-2.125 6.7717-2.125 15.125-2.125 15.125 0.95139 15.125 2.125z" fill="url(#a)" opacity=".493"/>
  <path transform="matrix(.39942 .05665 -.08527 .60119 363.01 -52.705)" d="m606.75-32.763c0 1.1736-6.7717 2.125-15.125 2.125s-15.125-0.95139-15.125-2.125 6.7717-2.125 15.125-2.125 15.125 0.95139 15.125 2.125z" fill="url(#a)"/>
 </g>
 <g transform="translate(-134.16 -226.84)">
  <path d="m374.75 343.58c-26.352 0-47.81 3.5617-48.75 8.0312-0.0437-0.028-0.0812-0.0659-0.125-0.0937-1.7274 16.195-2.7188 33.478-2.7188 51.5 0 70.839 35.665 102.62 24.625 153.12-2.2995 10.519-15.834 20.03-17.969 26.844-4e-3 0.0124-0.0274 0.0188-0.0312 0.0312-2.4481 2.2174-3.8125 4.6307-3.8125 7.1875 0 10.274 21.831 18.625 48.781 18.625s48.812-8.3512 48.812-18.625c0-2.5568-1.3644-4.9701-3.8125-7.1875l-0.0312-0.0312c-2.1303-6.8133-15.642-16.33-17.938-26.844-11.025-50.507 24.594-82.286 24.594-153.12 0-18.022-0.99131-35.305-2.7188-51.5-0.0438 0.0279-0.0813 0.0658-0.125 0.0937-0.93991-4.4696-22.429-8.0312-48.781-8.0312z" fill="url(#w)"/>
  <path d="m374.75 343.58c-20.575 0-37.329 3.5617-38.063 8.0312-0.0341-0.028-0.0634-0.0659-0.0976-0.0937-1.3487 16.195-2.1228 33.478-2.1228 51.5 0 70.839 27.847 102.62 19.227 153.12-1.7954 10.519-12.363 20.03-14.03 26.844-4e-3 0.0124-0.0214 0.0188-0.0244 0.0312-1.9114 2.2174-2.9767 4.6307-2.9767 7.1875 0 10.274 17.045 18.625 38.088 18.625s38.112-8.3512 38.112-18.625c0-2.5568-1.0653-4.9701-2.9767-7.1875l-0.0244-0.0312c-1.6633-6.8133-12.213-16.33-14.005-26.844-8.6079-50.507 19.202-82.286 19.202-153.12 0-18.022-0.77401-35.305-2.1228-51.5-0.0342 0.0279-0.0635 0.0658-0.0976 0.0937-0.73387-4.4696-17.512-8.0312-38.088-8.0312z" fill="url(#v)" opacity=".1379"/>
  <path d="m374.41 343.56c-14.909 0.21443-30.097 0.56638-44.482 4.8808-5.4959 1.1692-4.3676 6.9461-4.8556 11.106-0.41665 5.9454-1.1689 11.948-1.0854 17.879 1.9064 3.586 6.5922 3.9238 10.114 4.9013 17.773 3.639 36.053 3.6627 54.111 3.062 10.929-0.51436 21.983-1.4478 32.494-4.6364 3.4881-0.39695 5.6418-5.0691 1.2958-6.0646-8.1382-3.4829-17.134-3.9458-25.837-4.8174-19.892-1.4735-40.018-1.2369-59.731 2.0054-3.8827 0.67497-7.7928 1.656-11.212 3.6835 5.7345-3.7653 12.831-4.136 19.419-5.1913 21.043-2.4273 42.397-2.2705 63.408 0.38898 5.394 0.83723 11.081 1.6718 15.835 4.4436 3.4849 4.2293 0.80679-5.4431 1.2396-7.4802-0.39204-5.52-0.87738-11.033-1.4641-16.536-0.8642 2.3718-0.42368 1.4734-0.94365-0.2669-3.1669-3.2906-8.0856-3.5296-12.276-4.6073-11.874-2.1846-23.982-2.6762-36.03-2.7508z" fill="url(#u)"/>
  <path d="m407.06 566.16c-0.32952 0.15363-0.63694 0.35094-0.96875 0.5-2.4077 1.0816-4.8543 2.0423-7.375 2.875s-5.0986 1.5243-7.7188 2.0938-5.2938 0.98935-8 1.2812-5.4401 0.46875-8.2188 0.46875-5.5438-0.17685-8.25-0.46875-5.3798-0.71178-8-1.2812-5.1981-1.261-7.7188-2.0938-4.9673-1.7934-7.375-2.875c-0.33181-0.14906-0.63923-0.34637-0.96875-0.5-4.8523 6.4524-11.231 12.294-12.656 16.844-4e-3 0.0124-0.0274 0.0189-0.0312 0.0312-2.4481 2.2174-3.8125 4.6307-3.8125 7.1875 0 10.274 21.831 18.625 48.781 18.625s48.812-8.3512 48.812-18.625c0-2.5568-1.3644-4.9701-3.8125-7.1875l-0.0312-0.0312c-1.4236-4.5532-7.8111-10.385-12.656-16.844z" fill="url(#t)"/>
  <path d="m330.27 581.72c-0.77286 1.2691-1.5772 2.4944-2.3932 3.7332 0.22088 0.14103 0.44208 0.29417 0.67178 0.4148 3.4172 1.7946 6.877 3.3885 10.455 4.7702s7.2396 2.5291 10.958 3.4739 7.4955 1.6415 11.336 2.1258 7.7704 0.77775 11.714 0.77775 7.8314-0.29344 11.672-0.77775 7.6175-1.181 11.336-2.1258 7.3808-2.0923 10.958-3.4739 7.0374-2.9755 10.455-4.7702c0.47094-0.24733 0.91787-0.5747 1.3856-0.8296-5.9508 1.5945-5.336 0.25423-1.7634-3.3184-0.44273 0.2549-0.85577 0.58228-1.3016 0.82959-3.2349 1.7946-6.522 3.3886-9.9088 4.7702s-6.8502 2.5291-10.371 3.4739-7.1126 1.6415-10.748 2.1258-7.3091 0.77774-11.042 0.77774-7.4485-0.29343-11.084-0.77774-7.2281-1.181-10.748-2.1258-6.9839-2.0923-10.371-3.4739-6.6738-2.9755-9.9088-4.7702c-0.44581-0.24731-0.85884-0.57469-1.3016-0.82959z" fill="url(#s)"/>
  <g transform="matrix(-.21982 1.9495 1.7058 .25122 551.2 -804.38)" fill="url(#a)">
   <path transform="matrix(.46432 .06586 -.09913 .69889 324.37 -56.615)" d="m606.75-32.763c0 1.1736-6.7717 2.125-15.125 2.125s-15.125-0.95139-15.125-2.125 6.7717-2.125 15.125-2.125 15.125 0.95139 15.125 2.125z" opacity=".493"/>
   <path transform="matrix(.39942 .05665 -.08527 .60119 363.23 -54.369)" d="m606.75-32.763c0 1.1736-6.7717 2.125-15.125 2.125s-15.125-0.95139-15.125-2.125 6.7717-2.125 15.125-2.125 15.125 0.95139 15.125 2.125z"/>
   <path transform="matrix(.46432 .06586 -.09913 .69889 324.16 -54.951)" d="m606.75-32.763c0 1.1736-6.7717 2.125-15.125 2.125s-15.125-0.95139-15.125-2.125 6.7717-2.125 15.125-2.125 15.125 0.95139 15.125 2.125z" opacity=".493"/>
   <path transform="matrix(.39942 .05665 -.08527 .60119 363.01 -52.705)" d="m606.75-32.763c0 1.1736-6.7717 2.125-15.125 2.125s-15.125-0.95139-15.125-2.125 6.7717-2.125 15.125-2.125 15.125 0.95139 15.125 2.125z"/>
  </g>
  <g transform="matrix(-.22554 2.581 1.7503 .33259 551.96 -1175.1)" fill="url(#a)">
   <path transform="matrix(.46432 .06586 -.09913 .69889 324.37 -56.615)" d="m606.75-32.763c0 1.1736-6.7717 2.125-15.125 2.125s-15.125-0.95139-15.125-2.125 6.7717-2.125 15.125-2.125 15.125 0.95139 15.125 2.125z" opacity=".493"/>
   <path transform="matrix(.39942 .05665 -.08527 .60119 363.23 -54.369)" d="m606.75-32.763c0 1.1736-6.7717 2.125-15.125 2.125s-15.125-0.95139-15.125-2.125 6.7717-2.125 15.125-2.125 15.125 0.95139 15.125 2.125z"/>
   <path transform="matrix(.46432 .06586 -.09913 .69889 324.16 -54.951)" d="m606.75-32.763c0 1.1736-6.7717 2.125-15.125 2.125s-15.125-0.95139-15.125-2.125 6.7717-2.125 15.125-2.125 15.125 0.95139 15.125 2.125z" opacity=".493"/>
   <path transform="matrix(.39942 .05665 -.08527 .60119 363.01 -52.705)" d="m606.75-32.763c0 1.1736-6.7717 2.125-15.125 2.125s-15.125-0.95139-15.125-2.125 6.7717-2.125 15.125-2.125 15.125 0.95139 15.125 2.125z"/>
  </g>
  <path transform="matrix(1.293 -.19067 -.27605 -2.0234 -424.53 397.44)" d="m606.75-32.763c0 1.1736-6.7717 2.125-15.125 2.125s-15.125-0.95139-15.125-2.125 6.7717-2.125 15.125-2.125 15.125 0.95139 15.125 2.125z" fill="url(#a)" opacity=".493"/>
  <path transform="matrix(1.1311 -.0636 .05106 -1.7489 -318.02 331.25)" d="m606.75-32.763c0 1.1736-6.7717 2.125-15.125 2.125s-15.125-0.95139-15.125-2.125 6.7717-2.125 15.125-2.125 15.125 0.95139 15.125 2.125z" fill="url(#a)"/>
  <path transform="matrix(1.1358 0 0 .56227 71.994 329.17)" d="m311.13 85.747c0 8.201-19.945 14.849-44.548 14.849s-44.548-6.6482-44.548-14.849 19.945-14.849 44.548-14.849 44.548 6.6482 44.548 14.849z" fill="url(#h)" stroke="url(#g)" stroke-width="2.5027"/>
  <g transform="matrix(-.87905 1.7164 6.8216 .22117 1141.1 -654.65)" fill="url(#a)" opacity=".6977">
   <path transform="matrix(.46432 .06586 -.09913 .69889 324.37 -56.615)" d="m606.75-32.763c0 1.1736-6.7717 2.125-15.125 2.125s-15.125-0.95139-15.125-2.125 6.7717-2.125 15.125-2.125 15.125 0.95139 15.125 2.125z" opacity=".493"/>
   <path transform="matrix(.39942 .05665 -.08527 .60119 363.23 -54.369)" d="m606.75-32.763c0 1.1736-6.7717 2.125-15.125 2.125s-15.125-0.95139-15.125-2.125 6.7717-2.125 15.125-2.125 15.125 0.95139 15.125 2.125z"/>
   <path transform="matrix(.46432 .06586 -.09913 .69889 324.16 -54.951)" d="m606.75-32.763c0 1.1736-6.7717 2.125-15.125 2.125s-15.125-0.95139-15.125-2.125 6.7717-2.125 15.125-2.125 15.125 0.95139 15.125 2.125z" opacity=".493"/>
   <path transform="matrix(.39942 .05665 -.08527 .60119 363.01 -52.705)" d="m606.75-32.763c0 1.1736-6.7717 2.125-15.125 2.125s-15.125-0.95139-15.125-2.125 6.7717-2.125 15.125-2.125 15.125 0.95139 15.125 2.125z"/>
  </g>
  <g transform="matrix(.40959 1.3338 -1.8596 .40636 75.082 -201.32)" fill="url(#a)">
   <path transform="matrix(.46432 .06586 -.09913 .69889 324.37 -56.615)" d="m606.75-32.763c0 1.1736-6.7717 2.125-15.125 2.125s-15.125-0.95139-15.125-2.125 6.7717-2.125 15.125-2.125 15.125 0.95139 15.125 2.125z" opacity=".493"/>
   <path transform="matrix(.39942 .05665 -.08527 .60119 363.23 -54.369)" d="m606.75-32.763c0 1.1736-6.7717 2.125-15.125 2.125s-15.125-0.95139-15.125-2.125 6.7717-2.125 15.125-2.125 15.125 0.95139 15.125 2.125z"/>
   <path transform="matrix(.46432 .06586 -.09913 .69889 324.16 -54.951)" d="m606.75-32.763c0 1.1736-6.7717 2.125-15.125 2.125s-15.125-0.95139-15.125-2.125 6.7717-2.125 15.125-2.125 15.125 0.95139 15.125 2.125z" opacity=".493"/>
   <path transform="matrix(.39942 .05665 -.08527 .60119 363.01 -52.705)" d="m606.75-32.763c0 1.1736-6.7717 2.125-15.125 2.125s-15.125-0.95139-15.125-2.125 6.7717-2.125 15.125-2.125 15.125 0.95139 15.125 2.125z"/>
  </g>
  <g transform="matrix(.47006 1.7746 -1.9016 .46928 42.452 -460.53)" fill="url(#a)">
   <path transform="matrix(.46432 .06586 -.09913 .69889 324.37 -56.615)" d="m606.75-32.763c0 1.1736-6.7717 2.125-15.125 2.125s-15.125-0.95139-15.125-2.125 6.7717-2.125 15.125-2.125 15.125 0.95139 15.125 2.125z" opacity=".493"/>
   <path transform="matrix(.39942 .05665 -.08527 .60119 363.23 -54.369)" d="m606.75-32.763c0 1.1736-6.7717 2.125-15.125 2.125s-15.125-0.95139-15.125-2.125 6.7717-2.125 15.125-2.125 15.125 0.95139 15.125 2.125z"/>
   <path transform="matrix(.46432 .06586 -.09913 .69889 324.16 -54.951)" d="m606.75-32.763c0 1.1736-6.7717 2.125-15.125 2.125s-15.125-0.95139-15.125-2.125 6.7717-2.125 15.125-2.125 15.125 0.95139 15.125 2.125z" opacity=".493"/>
   <path transform="matrix(.39942 .05665 -.08527 .60119 363.01 -52.705)" d="m606.75-32.763c0 1.1736-6.7717 2.125-15.125 2.125s-15.125-0.95139-15.125-2.125 6.7717-2.125 15.125-2.125 15.125 0.95139 15.125 2.125z"/>
  </g>
  <path d="m342.47 566.16c-0.57523 0.76491-1.1739 1.5034-1.7812 2.25 0.1644 0.085 0.32904 0.1773 0.5 0.25 2.5434 1.0816 5.1185 2.0423 7.7812 2.875s5.3884 1.5243 8.1562 2.0938 5.5788 0.98935 8.4375 1.2812 5.7835 0.46875 8.7188 0.46875 5.8288-0.17685 8.6875-0.46875 5.6697-0.71178 8.4375-1.2812 5.4935-1.261 8.1562-2.0938 5.2378-1.7934 7.7812-2.875c0.35051-0.14906 0.68316-0.34637 1.0312-0.5 2.1893 2.7627 4.6586 5.3614 6.9062 7.8438-2.4996-3.0346-5.5862-6.3346-8.2188-9.8438-0.32952 0.15363-0.63694 0.35094-0.96875 0.5-2.4077 1.0816-4.8543 2.0423-7.375 2.875s-5.0986 1.5243-7.7188 2.0938-5.2938 0.98935-8 1.2812-5.4401 0.46875-8.2188 0.46875-5.5438-0.17685-8.25-0.46875-5.3798-0.71178-8-1.2812-5.1981-1.261-7.7188-2.0938-4.9673-1.7934-7.375-2.875c-0.33181-0.14906-0.63923-0.34637-0.96875-0.5z" fill="url(#q)"/>
  <g fill="url(#c)" opacity=".2326">
   <path transform="matrix(-1.0017 .04279 -.07319 1.1748 975.98 447.53)" d="m587.78 41.553c0 19.721-1.977 35.709-4.4156 35.709s-4.4156-15.987-4.4156-35.709 1.977-35.709 4.4156-35.709 4.4156 15.987 4.4156 35.709z" opacity=".493"/>
   <path transform="matrix(-.53449 .02283 -.03906 .62687 700.04 484.64)" d="m587.78 41.553c0 19.721-1.977 35.709-4.4156 35.709s-4.4156-15.987-4.4156-35.709 1.977-35.709 4.4156-35.709 4.4156 15.987 4.4156 35.709z"/>
  </g>
  <path transform="matrix(1.0954 0 0 .56227 82.754 303.71)" d="m311.13 85.747c0 8.201-19.945 14.849-44.548 14.849s-44.548-6.6482-44.548-14.849 19.945-14.849 44.548-14.849 44.548 6.6482 44.548 14.849z" fill="none" stroke="url(#r)" stroke-width="2.5484"/>
 </g>
</svg>
