<?xml version="1.0" encoding="UTF-8"?>
<!DOCTYPE svg  PUBLIC '-//W3C//DTD SVG 1.1//EN'  'http://www.w3.org/Graphics/SVG/1.1/DTD/svg11.dtd'>
<svg enable-background="new 0 0 602.5347 253.8168" version="1.1" viewBox="0 0 602.5347 253.8168" xml:space="preserve" xmlns="http://www.w3.org/2000/svg">
	<path d="m586.03 130.95c0.0449-1.3457 0.1035-2.6885 0.1035-4.0459 0-1.3565-0.0586-2.6992-0.1035-4.0459-16.256-6.5801-17.219-13.63-3.2461-24.089-0.6055-2.5146-1.2598-5.0098-2.0195-7.46-17.373-1.7597-20.064-8.1025-9.1581-21.68-1.2072-2.2178-2.5059-4.378-3.8457-6.5098-17.137 2.8545-21.293-2.5147-14.174-18.341-1.7207-1.8311-3.4961-3.6075-5.3281-5.3272-15.826 7.1182-21.195 2.961-18.34-14.175-2.1329-1.3398-4.293-2.6387-6.5118-3.8457-13.576 10.907-19.92 8.2149-21.68-9.1582-2.4493-0.7598-4.9454-1.415-7.459-2.0195-10.459 13.973-17.508 13.009-24.09-3.2471-1.3457-0.0449-2.6875-0.1025-4.0449-0.1025s-2.7012 0.0576-4.0469 0.1025c-6.58 16.256-13.631 17.22-24.088 3.2471-2.5156 0.6045-5.0097 1.2597-7.4589 2.0195-1.7598 17.373-8.1036 20.065-21.682 9.1572-2.2187 1.208-4.3769 2.5059-6.5098 3.8467 2.8555 17.136-2.5156 21.293-18.342 14.174-1.8301 1.7207-3.6055 3.4971-5.3262 5.3282 7.1191 15.826 2.9609 21.195-14.174 18.341-1.3409 2.1318-2.6397 4.292-3.8467 6.5098 10.907 13.577 8.2158 19.92-9.1572 21.68-0.7598 2.4502-1.4151 4.9454-2.0196 7.46 13.973 10.459 13.009 17.509-3.247 24.089-0.045 1.3467-0.1026 2.6894-0.1026 4.0459 0 1.3574 0.0576 2.7002 0.1026 4.0459 16.256 6.582 17.22 13.63 3.247 24.089 0.6045 2.5147 1.2598 5.0098 2.0196 7.46 17.373 1.7598 20.064 8.1025 9.1572 21.68 1.207 2.2187 2.5058 4.3789 3.8467 6.5107 17.135-2.8535 21.293 2.5157 14.174 18.342 1.7207 1.8311 3.4961 3.6074 5.3281 5.3272 15.824-7.1192 21.195-2.9619 18.34 14.174 2.1329 1.3398 4.2911 2.6387 6.5098 3.8457 13.578-10.907 19.92-8.2158 21.68 9.1572 2.4512 0.7598 4.9453 1.4151 7.4609 2.0196 10.459-13.971 17.506-13.008 24.088 3.247 1.3457 0.045 2.6895 0.1026 4.0469 0.1026s2.6992-0.0576 4.0469-0.1026c6.5801-16.255 13.629-17.218 24.086-3.247 2.5156-0.6045 5.0098-1.2598 7.461-2.0196 1.7597-17.373 8.1035-20.064 21.68-9.1572 2.2188-1.207 4.3789-2.5059 6.5098-3.8457-2.8535-17.137 2.5156-21.293 18.342-14.175 1.832-1.7197 3.6074-3.4961 5.3281-5.3272-7.1191-15.825-2.9629-21.194 14.174-18.341 1.3398-2.1318 2.6385-4.292 3.8457-6.5107-10.906-13.577-8.2149-19.92 9.1581-21.68 0.7597-2.4502 1.414-4.9453 2.0195-7.46-13.973-10.459-13.01-17.507 3.2461-24.089z" fill="#ED1C24"/>
			<linearGradient id="x" x1="356.83" x2="575.44" y1="78.242" y2="175.58" gradientUnits="userSpaceOnUse">
				<stop stop-color="#E6E6E6" offset="0"/>
				<stop stop-color="#666" offset="1"/>
			</linearGradient>
			<path d="m586.03 130.95c0.045-1.3457 0.1016-2.6885 0.1016-4.0459 0-1.3565-0.0566-2.6992-0.1016-4.0459-16.256-6.5801-17.221-13.63-3.248-24.089-0.6035-2.5146-1.2598-5.0098-2.0195-7.46-17.373-1.7597-20.064-8.1025-9.1563-21.68-1.207-2.2178-2.5058-4.378-3.8476-6.5098-17.135 2.8545-21.293-2.5147-14.174-18.341-1.7187-1.8311-3.4961-3.6075-5.326-5.3272-15.826 7.1182-21.197 2.961-18.342-14.175-2.1309-1.3398-4.2911-2.6387-6.5098-3.8457-13.578 10.907-19.922 8.2149-21.682-9.1582-2.4493-0.7598-4.9434-1.415-7.459-2.0195-10.457 13.973-17.508 13.009-24.088-3.2471-1.3457-0.0449-2.6895-0.1025-4.0469-0.1025s-2.6992 0.0576-4.0449 0.1025c-6.582 16.256-13.631 17.22-24.09 3.2471-2.5136 0.6045-5.0097 1.2597-7.4589 2.0195-1.7598 17.373-8.1016 20.065-21.68 9.1572-2.2188 1.208-4.3789 2.5059-6.5098 3.8467 2.8535 17.136-2.5156 21.293-18.342 14.174-1.832 1.7207-3.6074 3.4971-5.3281 5.3282 7.1191 15.826 2.9629 21.195-14.174 18.341-1.3399 2.1318-2.6387 4.292-3.8457 6.5098 10.906 13.577 8.2148 19.92-9.1582 21.68-0.7598 2.4502-1.4141 4.9454-2.0196 7.46 13.973 10.459 13.01 17.509-3.2461 24.089-0.0449 1.3467-0.1035 2.6894-0.1035 4.0459 0 1.3574 0.0586 2.7002 0.1035 4.0459 16.256 6.582 17.219 13.63 3.2461 24.089 0.6055 2.5147 1.2598 5.0098 2.0196 7.46 17.373 1.7598 20.064 8.1025 9.1582 21.68 1.207 2.2187 2.5058 4.3789 3.8457 6.5107 17.135-2.8535 21.293 2.5157 14.176 18.342 1.7188 1.8311 3.4961 3.6074 5.3262 5.3272 15.826-7.1192 21.195-2.9619 18.342 14.174 2.1309 1.3398 4.291 2.6387 6.5098 3.8457 13.576-10.907 19.92-8.2158 21.68 9.1572 2.4511 0.7598 4.9453 1.4151 7.4609 2.0196 10.457-13.971 17.506-13.008 24.086 3.247 1.3477 0.045 2.6895 0.1026 4.0469 0.1026s2.7012-0.0576 4.0469-0.1026c6.582-16.255 13.629-17.218 24.088-3.247 2.5156-0.6045 5.0097-1.2598 7.4609-2.0196 1.7598-17.373 8.1016-20.064 21.68-9.1572 2.2187-1.207 4.3769-2.5059 6.5098-3.8457-2.8555-17.137 2.5156-21.293 18.342-14.175 1.83-1.7197 3.6053-3.4961 5.326-5.3272-7.1191-15.825-2.9609-21.194 14.174-18.341 1.3418-2.1318 2.6406-4.292 3.8476-6.5107-10.908-13.577-8.2168-19.92 9.1563-21.68 0.7597-2.4502 1.416-4.9453 2.0195-7.46-13.973-10.459-13.008-17.507 3.248-24.089z" fill="url(#x)"/>
			<linearGradient id="y" x1="356.83" x2="575.44" y1="78.242" y2="175.58" gradientUnits="userSpaceOnUse">
				<stop stop-color="#808080" offset="0"/>
				<stop stop-color="#ccc" offset="1"/>
			</linearGradient>
			<path d="m586.13 126.91c0-1.3565-0.0566-2.6992-0.1016-4.0459-2.5878-1.0479-4.7851-2.1075-6.5995-3.1905l-33.982-3.206 30.291-11.259c1.625-2.001 3.9727-4.1348 7.043-6.4336-0.6035-2.5146-1.2598-5.0098-2.0195-7.46-2.2227-0.2251-4.2032-0.5268-5.9473-0.9082l-34.773 5.8882 26.351-18.72c1.0723-2.3154 2.8125-4.9522 5.213-7.9399-1.207-2.2178-2.5058-4.378-3.8476-6.5098-2.5529 0.4253-4.8106 0.6636-6.793 0.7163l-31.365 14.367 21.176-25.587c0.5294-2.2525 1.4688-4.8594 2.8086-7.8369-1.7187-1.8311-3.4961-3.6075-5.326-5.3272-2.9786 1.3399-5.586 2.2793-7.8399 2.8086l-25.586 21.175 14.367-31.367c0.0527-1.9819 0.291-4.2397 0.7169-6.792-2.1309-1.3398-4.2911-2.6387-6.5098-3.8457-2.9883 2.4004-5.627 4.1406-7.9414 5.2124l-18.719 26.35 5.8868-34.77c-0.3809-1.7461-0.6817-3.7261-0.9082-5.9512-2.4493-0.7598-4.9434-1.415-7.459-2.0195-2.2989 3.0718-4.4336 5.4204-6.4336 7.0444l-11.26 30.29-3.2051-33.985c-1.084-1.814-2.1425-4.0103-3.1894-6.5972-1.3457-0.0449-2.6895-0.1025-4.0469-0.1025s-2.6992 0.0576-4.0449 0.1025c-1.0488 2.5869-2.1074 4.7832-3.1914 6.5972l-3.2051 33.985-11.26-30.29c-2-1.624-4.1347-3.9726-6.4336-7.0444-2.5136 0.6045-5.0097 1.2597-7.4589 2.0195-0.2247 2.2251-0.5274 4.2051-0.9082 5.9512l5.8867 34.77-18.719-26.351c-2.3144-1.0717-4.9531-2.812-7.9394-5.2124-2.2188 1.208-4.3789 2.5059-6.5098 3.8467 0.4238 2.5528 0.6621 4.8111 0.7148 6.7935l14.367 31.365-25.588-21.176c-2.2519-0.5298-4.8593-1.4692-7.8359-2.8091-1.832 1.7207-3.6074 3.4971-5.3281 5.3282 1.3398 2.9775 2.2793 5.584 2.8086 7.8359l21.176 25.588-31.364-14.367c-1.9824-0.0527-4.2412-0.291-6.7949-0.7163-1.3399 2.1318-2.6387 4.292-3.8457 6.5098 2.4003 2.9877 4.1406 5.6245 5.2109 7.9399l26.352 18.72-34.772-5.8882c-1.7451 0.3814-3.7246 0.6831-5.9492 0.9082-0.7598 2.4502-1.4141 4.9454-2.0196 7.46 3.0723 2.2988 5.4199 4.4326 7.044 6.4336l30.292 11.259-33.985 3.206c-1.8145 1.083-4.0098 2.1426-6.5977 3.1905-0.0449 1.3467-0.1035 2.6894-0.1035 4.0459 0 1.3574 0.0586 2.7002 0.1035 4.0459 2.5869 1.0478 4.7832 2.1074 6.5967 3.1904l33.986 3.2061-30.292 11.259c-1.625 2.001-3.9726 4.1348-7.0449 6.4336 0.6055 2.5147 1.2598 5.0098 2.0196 7.46 2.2246 0.2256 4.2031 0.5264 5.9482 0.9082l34.773-5.8887-26.351 18.72c-1.0713 2.3154-2.8116 4.9521-5.2119 7.9404 1.207 2.2187 2.5058 4.3789 3.8457 6.5107 2.5527-0.4248 4.8105-0.6631 6.791-0.7158l31.368-14.368-21.174 25.587c-0.5293 2.2529-1.4687 4.8603-2.8086 7.8388 1.7188 1.8311 3.4961 3.6074 5.3262 5.3272 2.9766-1.3389 5.582-2.2783 7.834-2.8086l25.59-21.178-14.367 31.364c-0.0527 1.9834-0.291 4.2422-0.7148 6.7959 2.1309 1.3398 4.291 2.6387 6.5098 3.8457 2.9863-2.4004 5.623-4.1406 7.9394-5.2119l18.719-26.352-5.8867 34.772c0.3808 1.7451 0.6816 3.7246 0.9082 5.9482 2.4511 0.7598 4.9453 1.4151 7.4609 2.0196 2.2988-3.0704 4.4316-5.419 6.4316-7.042l11.26-30.293 3.207 33.987c1.0821 1.8135 2.1407 4.0088 3.1875 6.5947 1.3477 0.045 2.6895 0.1026 4.0469 0.1026s2.7012-0.0576 4.0469-0.1026c1.0469-2.5859 2.1074-4.7812 3.1894-6.5947l3.2051-33.987 11.26 30.293c2 1.623 4.1347 3.9716 6.4336 7.042 2.5156-0.6045 5.0097-1.2598 7.4609-2.0196 0.2246-2.2236 0.5254-4.2031 0.9063-5.9482l-5.8868-34.772 18.719 26.352c2.3164 1.0713 4.9531 2.8115 7.9414 5.2119 2.2187-1.207 4.3769-2.5059 6.5098-3.8457-0.4258-2.5537-0.6641-4.8125-0.7169-6.7949l-14.367-31.365 25.588 21.177c2.252 0.5303 4.8593 1.4697 7.838 2.8086 1.83-1.7197 3.6053-3.4961 5.326-5.3272-1.3398-2.9785-2.2792-5.5859-2.8086-7.8378l-21.176-25.588 31.369 14.369c1.9824 0.0527 4.2383 0.291 6.7891 0.7158 1.3418-2.1318 2.6406-4.292 3.8476-6.5107-2.4005-2.9883-4.1406-5.625-5.213-7.9404l-26.351-18.72 34.773 5.8887c1.7441-0.3809 3.7246-0.6826 5.9473-0.9082 0.7597-2.4502 1.416-4.9453 2.0195-7.46-3.0703-2.2988-5.4199-4.4326-7.043-6.4336l-30.291-11.259 33.984-3.2061c1.8144-1.083 4.0098-2.1426 6.5976-3.1904 0.0451-1.3457 0.1017-2.6885 0.1017-4.0459z" fill="url(#y)"/>
			<linearGradient id="z" x1="466.13" x2="466.13" y1="6.9084" y2="246.91" gradientUnits="userSpaceOnUse">
				<stop stop-color="#fff" offset="0"/>
				<stop stop-color="#4D4D4D" offset="1"/>
			</linearGradient>
			<path d="m586.06 123.65l-70.352-3.2695 66.518-21.179c0.1875-0.1431 0.3672-0.2852 0.5606-0.4297-0.4902-2.0391-1.0293-4.0586-1.6152-6.0586l-68.842 15.059 59.059-37.858c0.076-0.0947 0.1445-0.186 0.2226-0.2817-1.0215-1.8746-2.1152-3.7022-3.2363-5.5123l-62.57 32.349 47.43-52.054c-1.4922-1.5772-3.0294-3.1133-4.6055-4.607l-52.055 47.43 32.35-62.57c-1.8086-1.1201-3.6367-2.2144-5.5117-3.2344-0.0957 0.0772-0.1875 0.1465-0.2832 0.2222l-37.857 59.057 15.059-68.841c-2-0.5854-4.0196-1.1255-6.0586-1.6157-0.1446 0.1933-0.2871 0.3735-0.4297 0.561l-21.178 66.517-3.2695-70.352c-1.082-0.038-2.166-0.0761-3.2578-0.0761s-2.1738 0.0381-3.2559 0.0761l-3.2695 70.352-21.18-66.517c-0.1426-0.1875-0.2851-0.3677-0.4297-0.561-2.039 0.4902-4.0586 1.0303-6.0586 1.6157l15.059 68.841-37.857-59.059c-0.0937-0.0757-0.1855-0.1445-0.2812-0.2217-1.877 1.021-3.7032 2.1148-5.5137 3.2359l32.35 62.57-52.055-47.43c-1.5762 1.4942-3.1113 3.0298-4.6055 4.607l47.43 52.054-62.57-32.349c-1.1211 1.8101-2.2158 3.6377-3.2353 5.5123 0.0761 0.0957 0.1455 0.1875 0.2207 0.2822l59.059 37.857-68.841-15.059c-0.5849 2-1.1259 4.0195-1.6162 6.0586 0.1934 0.145 0.3731 0.2866 0.5615 0.4302l66.517 21.178-70.352 3.2695c-0.0371 1.083-0.0762 2.1651-0.0762 3.2569s0.0391 2.1748 0.0762 3.2568l70.352 3.2695-66.517 21.179c-0.1884 0.1436-0.3681 0.2852-0.5615 0.4297 0.4903 2.0391 1.0313 4.0586 1.6162 6.0586l68.841-15.059-59.059 37.858c-0.0752 0.0947-0.1446 0.1865-0.2207 0.2822 1.0195 1.875 2.1132 3.7031 3.2343 5.5127l62.571-32.35-47.43 52.055c1.4922 1.5761 3.0293 3.1123 4.6055 4.6064l52.055-47.431-32.35 62.57c1.8105 1.121 3.6367 2.2148 5.5137 3.2353 0.0957-0.0771 0.1875-0.1465 0.2812-0.2217l37.857-59.059-15.059 68.841c2 0.586 4.0196 1.126 6.0606 1.6163 0.1445-0.1924 0.2851-0.3721 0.4277-0.5586l21.18-66.52 3.2695 70.352c1.0821 0.0381 2.1641 0.0762 3.2559 0.0762s2.1738-0.0381 3.2578-0.0762l3.2695-70.352 21.178 66.52c0.1426 0.1865 0.2851 0.3662 0.4297 0.5586 2.039-0.4903 4.0586-1.0303 6.0586-1.6163l-15.059-68.841 37.857 59.059c0.0957 0.0762 0.1875 0.1446 0.2832 0.2217 1.875-1.0205 3.7031-2.1143 5.5117-3.2353l-32.35-62.57 52.055 47.431c1.5762-1.4941 3.1133-3.0293 4.6074-4.6064l-47.432-52.055 62.57 32.35c1.1211-1.8096 2.2148-3.6377 3.2363-5.5127-0.0781-0.0957-0.1465-0.1875-0.2226-0.2822l-59.059-37.858 68.842 15.059c0.5859-2 1.125-4.0195 1.6152-6.0586-0.1934-0.1445-0.3731-0.2861-0.5606-0.4297l-66.518-21.179 70.352-3.2695c0.0391-1.082 0.0762-2.165 0.0762-3.2568-1e-4 -1.0918-0.0372-2.1739-0.0762-3.2569z" fill="url(#z)"/>
				<linearGradient id="aa" x1="390.12" x2="542.15" y1="50.894" y2="202.92" gradientUnits="userSpaceOnUse">
					<stop stop-color="#fff" offset="0"/>
					<stop stop-color="#333" offset="1"/>
				</linearGradient>
				<circle cx="466.13" cy="126.91" r="107.5" fill="url(#aa)"/>
				<linearGradient id="ab" x1="390.92" x2="541.35" y1="51.698" y2="202.12" gradientUnits="userSpaceOnUse">
					<stop stop-color="#fff" offset="0"/>
					<stop stop-color="#414141" offset="1"/>
				</linearGradient>
				<circle cx="466.13" cy="126.91" r="106.36" fill="url(#ab)"/>
				<linearGradient id="ac" x1="391.73" x2="540.54" y1="52.501" y2="201.32" gradientUnits="userSpaceOnUse">
					<stop stop-color="#fff" offset="0"/>
					<stop stop-color="#4F4F4F" offset="1"/>
				</linearGradient>
				<circle cx="466.13" cy="126.91" r="105.23" fill="url(#ac)"/>
				<linearGradient id="ad" x1="392.53" x2="539.74" y1="53.305" y2="200.51" gradientUnits="userSpaceOnUse">
					<stop stop-color="#fff" offset="0"/>
					<stop stop-color="#5D5D5D" offset="1"/>
				</linearGradient>
				<circle cx="466.13" cy="126.91" r="104.09" fill="url(#ad)"/>
				<linearGradient id="ae" x1="393.33" x2="538.93" y1="54.108" y2="199.71" gradientUnits="userSpaceOnUse">
					<stop stop-color="#fff" offset="0"/>
					<stop stop-color="#6B6B6B" offset="1"/>
				</linearGradient>
				<circle cx="466.13" cy="126.91" r="102.95" fill="url(#ae)"/>
				<linearGradient id="af" x1="394.14" x2="538.13" y1="54.912" y2="198.9" gradientUnits="userSpaceOnUse">
					<stop stop-color="#fff" offset="0"/>
					<stop stop-color="#797979" offset="1"/>
				</linearGradient>
				<circle cx="466.13" cy="126.91" r="101.82" fill="url(#af)"/>
				<linearGradient id="q" x1="394.94" x2="537.33" y1="55.715" y2="198.1" gradientUnits="userSpaceOnUse">
					<stop stop-color="#fff" offset="0"/>
					<stop stop-color="#868686" offset="1"/>
				</linearGradient>
				<circle cx="466.13" cy="126.91" r="100.68" fill="url(#q)"/>
				<linearGradient id="r" x1="395.75" x2="536.52" y1="56.519" y2="197.3" gradientUnits="userSpaceOnUse">
					<stop stop-color="#fff" offset="0"/>
					<stop stop-color="#949494" offset="1"/>
				</linearGradient>
				<circle cx="466.13" cy="126.91" r="99.546" fill="url(#r)"/>
				<linearGradient id="s" x1="396.55" x2="535.72" y1="57.322" y2="196.49" gradientUnits="userSpaceOnUse">
					<stop stop-color="#fff" offset="0"/>
					<stop stop-color="#A2A2A2" offset="1"/>
				</linearGradient>
				<circle cx="466.13" cy="126.91" r="98.409" fill="url(#s)"/>
				<linearGradient id="t" x1="397.35" x2="534.92" y1="58.126" y2="195.69" gradientUnits="userSpaceOnUse">
					<stop stop-color="#fff" offset="0"/>
					<stop stop-color="#B0B0B0" offset="1"/>
				</linearGradient>
				<circle cx="466.13" cy="126.91" r="97.273" fill="url(#t)"/>
				<linearGradient id="u" x1="398.16" x2="534.11" y1="58.929" y2="194.89" gradientUnits="userSpaceOnUse">
					<stop stop-color="#fff" offset="0"/>
					<stop stop-color="#BEBEBE" offset="1"/>
				</linearGradient>
				<circle cx="466.13" cy="126.91" r="96.137" fill="url(#u)"/>
				<linearGradient id="v" x1="398.96" x2="533.31" y1="59.733" y2="194.08" gradientUnits="userSpaceOnUse">
					<stop stop-color="#fff" offset="0"/>
					<stop stop-color="#ccc" offset="1"/>
				</linearGradient>
				<circle cx="466.13" cy="126.91" r="95" fill="url(#v)"/>
		<linearGradient id="w" x1="393.55" x2="467.76" y1="54.452" y2="128.66" gradientUnits="userSpaceOnUse">
			<stop stop-color="#fff" stop-opacity=".5" offset="0"/>
			<stop stop-color="#fff" stop-opacity="0" offset="1"/>
		</linearGradient>
		<path d="m371.26 132.16c0-55.228 44.772-100 100-100 25.834 0 49.377 9.7969 67.123 25.877-18.297-20.193-44.729-32.877-74.123-32.877-55.228 0-100 44.772-100 100 0 29.396 12.684 55.827 32.878 74.123-16.08-17.745-25.878-41.29-25.878-67.123z" fill="url(#w)"/>
	<path d="m28.406 93.565s-1.9771 6.9199-4.2837 12.851c-2.3066 5.9312-6.5903 12.522-4.6133 14.499 1.9771 1.977 4.1948 2.8193 4.1948 2.8193s-2.0605 6.5-3.0605 11-6.7832 9.25-1.6416 13.75 8.1416 4.5 8.1416 4.5 0.5 5.5-1 10.25-2.9746 8.75 2.2627 11.75 5.9873 0.75 8.4873 2.5 6.75 8 6.75 8-2.5 10.75 2 11.75 10.5-1 13 1.25 9.5 7 9.5 7-1.75 11.25 6.25 10.75 12.75-3.2168 20.75 0.0166 5.75 10.733 12 10.483 8-3.5 16.75-3.25 13.25 8.25 19.75 8.25 11.75-7.25 21-7.25 11.75 3 19 1.5 7.25-8.5 14.5-10.5 15.5 1.5 20.5-0.25 1.7441-8.9707 10-14.75c10-7 12.978-1.8447 19.25-7.25 2.4365-2.0996 1.25-13 1.25-13s3.5-4.75 6.5-5.5 10.25-3.75 10.25-6.5-4-14.359-2.5-16.36c1.5-2 7-2.1401 9.25-5.8901s-4-19.75-2.5-23 1.5-7.5 0.5-10.75-4-16.75-4-16.75-13 91.25-124.25 88.537c-117.74-2.8711-113.98-90.456-113.98-90.456z" fill="#939598" stroke="#000" stroke-miterlimit="10"/>
	<path d="m26.143 110.48s-2 3-3 5.25-2.2725 6.3579-2.2725 6.3579l2.833 1.6421s5.4395-9.25 3.9395-11.25-1.5-2-1.5-2z" fill="#58595B" stroke="#000" stroke-miterlimit="10"/>
	<path d="m29.393 123.73s-5.2607 7.75-5.0054 10.25c0.2554 2.5-1.7446 4.5-1.9946 7.25s-4.2124 6.4243-4.2124 6.4243l2.6899 2.3423s2.7618-2.2666 3.5171-4.5166c0.7554-2.25 1.2554-3.5 1.2554-3.5s2.5234 0.5 2.2617 4.75-0.6855 7.999-0.6855 7.999 2.9238-9.25 3.6738-15.5 0-11.802 0-11.802 0.7378 12.617-2.9883 10.553 1.4883-14.25 1.4883-14.25z" fill="#58595B" stroke="#000" stroke-miterlimit="10"/>
	<path d="m41.643 142.98s-8 13-8.5 15.5-1.333 5-1.9165 6-4.0601 3.5-3.3218 6 0.501 4.5 0.501 4.5l2.8208 1.2988s-2.4165-3.7988 0-5.7988 2.5757-4 3.4961-5.75 1.4204-5.7012 2.6704-5.1006 1.5 0.9326 0.5 3.0166-1 4.084 0.25 4.834 5.5 0.75 6.5 1-0.5 5.25 0 9.75-1.4355 9.7236-1.4355 9.7236 3.4355-6.9736 3.4355-13.974 0.75-9.5 0-14 0.3335-9.75 0.3335-9.75-2.3335 9.832-1.8335 12.416-3 0.834-3.5-2.416-1-2e-3 -1-5.501 1-11.749 1-11.749z" fill="#58595B" stroke="#000" stroke-miterlimit="10"/>
	<path d="m47.867 197.51s3.5259-10.772 5.2759-14.522 2.25-3.5 4-7 2-5.75 3.5-8.5 2.5-4.834 2.5-4.834-3.25 9.084-3 11.584 1.25 5.25 3 7.25 3.75 4 4.75 2 2-4.25 2-7.75 1.25-6 1.25-6-1 8.75 0 12.25 2.25 5.75 2 10.25-0.75 7.75-1.25 11.25-2.6406 10.234-2.6406 10.234-1.6094-4.2344-1.1094-8.2344 2.25-8.25 2-12.25-0.25-4-0.25-4-3.75-3.0996-5.5-1.0498-3.75 6.5498-5.25 4.5498-4-3.8496-2.5-4.5498 4.5-4.9502 2.25-4.4502-2.75 0.0498-2.5 2.25-1.75 5.5-1.5 5.5-1.75-0.75-2.75 1.25-0.5137 4.7148-0.5137 4.7148l-3.7622 0.0577z" fill="#58595B" stroke="#000" stroke-miterlimit="10"/>
	<path d="m90.393 181.48s-5 6.25-6.25 10.25-3.25 6.75-4.5 10.5-2.75 6.5-3 8.5 0 5.2939 0 5.2939l3.5869-0.5136s3.5518-2.5303 3.2324-4.7803c-0.3193-2.25 2.1807-6.25 2.6807-4.75s1.75 5.25 2.75 3.25 2-5.5 4.25-4.5 4.75 1.75 5.75 1.25 2.5 1.25 2.5 1.25-1 7.3379-1 8.7939c0 1.4561-0.0537 4.3194-0.0537 4.3194l2.6816 4.4795s0.378-6.8428 0-13.593c-0.3779-6.75 2.4639-7.75 0.168-12.25s-2.5459-16.25-2.5459-16.25-2.75 12.25-2.5 15 0.75 4.5-1.5 3.75-2.6602-1.5-6.3301-3.75-2.6699-1.75-2.4199-6 2.5-10.25 2.5-10.25z" fill="#58595B" stroke="#000" stroke-miterlimit="10"/>
	<path d="m123.64 188.18s-3 7.2998-5.25 11.8-1.5 6.25-5 11-4 3.5-3.75 6.25-0.0547 9.2246-0.0547 9.2246l5.2715-1.6318s0.2832-3.5928 0.2832-6.3428-0.0547-4 1.4727-6c1.5273-2 2.5273-5.75 3.0273-3.75s1.25 3.4688-0.5 4.9844-1.75 1.5156-1.75 1.5156 2.75 3.5 4 1.75 0.25-4.25 2.25-4.5 4.5 0.25 7-0.25 4-1.25 4-1.25 1.5 0.9688 2 2.7344 0 6.0156 0 9.0156-1.0752 5.6113-1.0752 5.6113l4.4819 2.6026s1.1568-7.7139 0-14.714c-1.1567-7-3.9067-8.6562-4.4067-13.078s-0.25-4.9219-0.75-8.9219-1.5-6.0498-1.5-6.0498 0.1162 18.269-8.3169 17.3c-8.4331-0.9687-1.4331-17.3-1.4331-17.3z" fill="#58595B" stroke="#000" stroke-miterlimit="10"/>
	<path d="m158.14 188.18s-3.25 6.2998-3.75 10.55-3.25 9.5-4.75 13-2 12-2 14.25-0.1309 4.9639-0.1309 4.9639l4.3169-2.126s-2.686-3.0879-1.436-6.3379 2.1191-3.75 2.4346-5c0.3154-1.25-2.3155-4.25 0-6 2.3154-1.75 4.3154-2.5 3.3154 0.75s-2 3.75-2 4.75-1.8809 2-1.3154 5c0.5654 3 1.1499 5.6563 1.1499 5.6563l2.6728-1.3272s-1.2573-11.86 1.4927-12.595 3-1.2656 6.5 0 6.75 10.016 6.75 10.016 1.5-1 0-6-4-7.5859-1.75-8.168c2.25-0.582 5.25 3.168 5.5 6.418s-1.0312 9.6465-1.0312 9.6465l4.2529 0.708s1.4717-4.8545 0-11.354-4.7217-7.5-6.2217-15.75-3.25-11.05-3.25-11.05 2 17.55-1.25 17.8-8 2.75-9.75 0.5 0.25-18.3 0.25-18.3z" fill="#58595B" stroke="#000" stroke-miterlimit="10"/>
	<path d="m191.64 181.48s-3 14-3.75 17-2 9.25-2.25 13.25-1.1704 9.9629 0 11.5l1.1704 1.5371 3.8423-3.5664s-2.3428-3.4707-2.3027-6.2207c0.04-2.75-0.46-4.25 1.29-7.75s3.5-6.4629 4-4.1064c0.5 2.3564 0.25 2.3564-1.25 3.8564s-4.5967 2-2.9233 4.25l1.6733 2.25-0.25 2.5 2.1885 2.4678s1.8115-1.749 1.8115-4.7334-2-4.4844 0-5.7344 4.5 2 6.25 0.25-0.25-0.9629 2.5-5.1064c2.75-4.1436 0.75-4.6436 2.75-4.1436s1.25 3.5 2.5 6.5 2.5244 10.022 2.5244 10.022l4.4971 0.2119s-0.7715-5.4844-1.2715-7.9844-1-6-3.5-10.25-3.75-2.75-4.75-7.75-3.25-11-4.25-11 1.5 7.5 1.25 11.25 0.25 7-1.75 6.75-2.25-1-3.5-0.75-5.5 4.5-6.25 3.25-0.25-17.75-0.25-17.75z" fill="#58595B" stroke="#000" stroke-miterlimit="10"/>
	<path d="m224.39 165.47s-1.75 5.5137-5 6.2637-10 1.75-9.5 4.5 1.5 11.25 3 13.75 4.2236 7 4.2368 10.75 1.5132 14.5 1.5132 14.5 2.5679-3.457 4.083-6.8037-4.083-5.4463-3.083-12.946 0.75-9 1.5-10 4.25-3.25 3.25-5.5 0-14.514 0-14.514z" fill="#58595B" stroke="#000" stroke-miterlimit="10"/>
	<path d="m230.64 160.98s-1.75 2.75-2.25 5.5 0 7.75 0 10 0.25 6.75 2.25 5 2-2.75 2.75-8.5-2.75-12-2.75-12z" fill="#58595B" stroke="#000" stroke-miterlimit="10"/>
	<path d="m228.17 190.35c-1.2778 1.8818-1.5278 1.8818-1.5278 3.8818s-2 3.75 0 5-0.8936 4.3438-2.0718 3.9219-3.6782 1.5781-3.1782-3.4219-0.5-6.25 1.25-7.5 3.7129 0.9863 2.1064-1.8818c-1.6064-2.8682-1.6093-1.3223-1.3564-4.3682s2.3057-4.5 4.7778-4.5c2.4722 0 5.2222-0.5 6.2222-2.75s1.25-4.75 1.25-4.75 1.5 2.5 2.75 4.75 1.75 7.6504 3.5 9.4502 4.2363 6.3574 4.2363 6.3574l-3.8994 1.4356s-2.0869-1.0069-3.3369-5.625c-1.25-4.6182-2-14.368-3.25-11.618s-5.6172 5.25-4.8086 6.25 1.7295 7 2.894 8.25c1.1646 1.25 3.0855 2.75 0 3-3.0854 0.25-1.9526-0.5-2.894-2.75s-2.6636-3.1318-2.6636-3.1318z" fill="#58595B" stroke="#000" stroke-miterlimit="10"/>
	<path d="m247.39 146.48s-3.5 2.5-4.25 3.75-0.5 4-1.5 5.5-5 3.5-4.25 5.25 0.0635 2.2227-0.0933 4.4863c-0.1567 2.2637-1.3432 5.9082 0 5.961 1.3433 0.0527 6.3433 7.8027 6.5933 10.053s1.9727 4.1973 2.2363 6.4736c0.2637 2.2764 0 5.5264 0 5.5264s2.5137-0.75 1.2637-9.5-2.0273-6.1055-1.2637-12.553c0.7637-6.4473 2.0137-4.4473 3.0137-3.1973s4 2.25 1.5 4.5-3.5 0.75-2.5 2.25 3.4712 2.4346 3.4712 2.4346 5.0288-3.2901 3.7788-5.9873c-1.25-2.6973-3.25-6.6153-1.75-8.7813s2.75 1.5567 3 2.8203c0.25 1.2637 1.25 7.1582 2.75 5.961 1.5-1.1973 2.75-2.4746 1.25-5.961-1.5-3.4863-3.75-4.9883-4.5-10.737s-0.75-10.249-2.5-11.749-3-1-2.75 2.5 1.5 15.75-1 15.5-2.25-5.7197-2.25-9.1099c0-3.3901-0.25-5.3901-0.25-5.3901z" fill="#58595B" stroke="#000" stroke-miterlimit="10"/>
	<path d="m259.14 128.48s-2 2-2.5 7.25 0.25 8.5 1.25 11.25 4.1045 8.5 3.4272 10.75c-0.6772 2.25 0.0718 8.3887 2.0728 10.102s0.0728-0.2696-1-5.1856-1.5381-10.209-2.019-14.188c-0.481-3.9785 0.7309-4.9785 0-7.7285-0.731-2.75-1.5191-4.75 0-3.5 1.519 1.25 0.769 6.25 2.519 7s2.0059 3.3813 3.75 4.2285 0.25-1.4785 0-5.4785 0.25-3.5-1-10.25-3.6626-9-3.6626-9 1.5874 6.5 0 7.75-2.8374-3-2.8374-3z" fill="#58595B" stroke="#000" stroke-miterlimit="10"/>
	<path d="m265.93 108.23s-0.416 3.8276 0 5.6406c0.416 1.8135 2.917 5.772 2.917 5.772s-1.6006-4.7647-1.5508-7.1821c0.0498-2.4175-1.3662-4.2305-1.3662-4.2305z" fill="#58595B" stroke="#000" stroke-miterlimit="10" stroke-width=".8977"/>
	<path d="m27.802 95.596s10.079-69.362 119.71-73.362c109.63-4 119.13 73.25 119.13 73.25s-13.499 88.584-121.62 88.584c-117.22 0-117.22-88.472-117.22-88.472z" fill="#939598" stroke="#000" stroke-miterlimit="10"/>
	<path d="m42.143 83.734s5.7568-19 18.378-28.5 38.622-18 38.622-18-26.122 10.25-38.622 21.5-18.378 25-18.378 25z" fill="#fff"/>
	<path d="m258.16 85.272s1.3457 19.808-7.0933 33.162c-8.4389 13.354-29.744 30.512-29.744 30.512s20.799-18.836 28.504-33.785c7.7055-14.948 8.333-29.889 8.333-29.889z" fill="#fff"/>
</svg>
