<?xml version="1.0" encoding="UTF-8" standalone="no"?>
<!-- Created with Inkscape (http://www.inkscape.org/) -->

<svg
   xmlns:dc="http://purl.org/dc/elements/1.1/"
   xmlns:cc="http://creativecommons.org/ns#"
   xmlns:rdf="http://www.w3.org/1999/02/22-rdf-syntax-ns#"
   xmlns:svg="http://www.w3.org/2000/svg"
   xmlns="http://www.w3.org/2000/svg"
   xmlns:sodipodi="http://sodipodi.sourceforge.net/DTD/sodipodi-0.dtd"
   xmlns:inkscape="http://www.inkscape.org/namespaces/inkscape"
   id="svg3527"
   version="1.1"
   inkscape:version="0.91 r13725"
   width="1600"
   height="1347"
   viewBox="0 0 1600 1347"
   sodipodi:docname="fusee_decapsuleur.svg">
  <metadata
     id="metadata3533">
    <rdf:RDF>
      <cc:Work
         rdf:about="">
        <dc:format>image/svg+xml</dc:format>
        <dc:type
           rdf:resource="http://purl.org/dc/dcmitype/StillImage" />
      </cc:Work>
    </rdf:RDF>
  </metadata>
  <defs
     id="defs3531" />
  <sodipodi:namedview
     pagecolor="#ffffff"
     bordercolor="#666666"
     borderopacity="1"
     objecttolerance="10"
     gridtolerance="10"
     guidetolerance="10"
     inkscape:pageopacity="0"
     inkscape:pageshadow="2"
     inkscape:window-width="1600"
     inkscape:window-height="837"
     id="namedview3529"
     showgrid="false"
     inkscape:zoom="0.17520416"
     inkscape:cx="800"
     inkscape:cy="673.5"
     inkscape:window-x="-4"
     inkscape:window-y="-4"
     inkscape:window-maximized="1"
     inkscape:current-layer="svg3527" />
  <path
     style="fill:#000000"
     d="m 518.74575,1153.367 c -46.7008,-10.4982 -96.7242,-34.8278 -138.3459,-67.2863 -18.8466,-14.6975 -47.0283,-43.6412 -56.9639,-58.504 -17.3759,-25.9932 -28.1825,-45.70334 -32.8181,-59.85711 -2.5352,-7.74056 -2.7426,-9.5873 -2.682,-23.88908 0.097,-23.02848 3.2897,-35.68234 12.4044,-49.16987 15.0148,-22.21824 36.9319,-38.55233 61.9055,-46.13627 6.325,-1.92076 13.075,-3.78874 15,-4.15106 1.925,-0.36233 6.9975,-1.2884 11.2721,-2.05795 7.8745,-1.41758 48.3574,-3.52682 105.7279,-5.50861 35.2207,-1.21666 54.2932,-2.86986 74.6808,-6.47331 13.9634,-2.46798 34.0034,-8.66306 46.3192,-14.31893 3.575,-1.64177 8.525,-3.66948 11,-4.50603 3.3116,-1.11933 4.4468,-2.00387 4.2986,-3.34948 -0.1108,-1.00567 -0.7262,-6.26232 -1.3675,-11.68145 -2.5537,-21.57776 2.7073,-36.34064 15.2268,-42.72761 2.0613,-1.0516 8.7581,-5.85117 14.8816,-10.66571 6.1236,-4.81455 16.9151,-13.25372 23.9812,-18.75372 7.0661,-5.5 24.9146,-19.43908 39.6634,-30.97574 29.7157,-23.24395 101.0646,-78.84798 148.8159,-115.97607 26.79177,-20.83139 48.02396,-36.69411 108.00001,-80.68757 6.6,-4.84121 25.27504,-18.56506 41.50004,-30.49745 16.225,-11.93239 34.9,-25.15451 41.5,-29.38248 6.6,-4.22798 16.05,-10.35978 21,-13.62623 4.95,-3.26644 16.65,-10.86506 26,-16.88581 17.0068,-10.9512 25.6156,-16.69439 106,-70.71608 74.1311,-49.81922 69.6385,-46.53811 70.9583,-51.82322 1.9494,-7.80602 6.0918,-13.58244 13.8587,-19.32519 11.3152,-8.36637 18.1024,-12.43218 26.0976,-15.63362 6.4218,-2.57143 8.6726,-2.96464 16.752,-2.92665 9.5029,0.0447 15.5104,1.44881 18.7526,4.38302 2.9817,2.69838 7.0525,11.08775 7.7109,15.89093 1.1731,8.5591 0.1351,10.6577 -7.8946,15.96054 -7.7669,5.12929 -10.4219,8.60142 -9.9191,12.97162 0.2908,2.52676 2.1836,4.04375 2.1836,1.75 0,-0.55 0.7999,-1 1.7775,-1 2.8414,0 6.3699,-2.96013 5.7725,-4.84255 -0.349,-1.09966 0.6647,-2.62651 2.9596,-4.45763 3.9832,-3.17829 4.1903,-2.78923 1.4904,2.80018 -1.0627,2.2 -1.9474,4.49276 -1.9661,5.09501 -0.019,0.60226 -0.9923,1.95226 -2.1636,3 -1.1713,1.04775 -3.2545,3.6756 -4.6291,5.83969 -1.3747,2.16408 -5.7039,7.01357 -9.6203,10.77664 -10.7077,10.28828 -21.9917,15.14971 -29.1209,12.54602 -2.1106,-0.77084 -1.9863,-0.88473 -47.5975,43.5854 -9.6786,9.43648 -21.8286,21.17913 -27,26.09477 -15.0203,14.2775 -34.6104,33.24358 -60.4554,58.52971 -13.2291,12.94302 -27.4041,26.66805 -31.5,30.50008 -7.8345,7.32972 -70.104,67.89328 -104.9471,102.07185 -11.275,11.05997 -27.2082,25.70069 -35.407,32.53494 -8.1989,6.83424 -18.14723,15.12589 -22.1075,18.42589 -3.96026,3.3 -10.97712,9.20608 -15.59301,13.12462 -4.61589,3.91854 -12.89253,10.90664 -18.39253,15.52912 -5.5,4.62248 -16.3,13.72812 -24,20.23477 -7.7,6.50664 -19.14605,16.16853 -25.43566,21.47087 -32.67225,27.54373 -47.17225,40.22047 -78.01905,68.20867 -39.3902,35.73988 -62.7478,56.12909 -75.6406,66.02789 -8.1694,6.27223 -16.9086,13.48644 -19.4206,16.03158 -2.5119,2.54513 -7.0235,5.92013 -10.0256,7.5 -5.1993,2.73608 -6.0758,2.87248 -18.4585,2.87248 -12.4686,0 -13.285,-0.12963 -19.9722,-3.1717 -3.8347,-1.74443 -7.3815,-2.91873 -7.8817,-2.60955 -0.5003,0.30918 -3.4814,6.01145 -6.6246,12.6717 -4.9485,10.48531 -6.0369,13.92029 -8.1146,25.60955 -2.1629,12.16862 -2.3959,16.26137 -2.362,41.5 0.021,15.4 0.8066,41.57176 1.7464,58.15939 2.1483,37.9178 2.2274,57.2719 0.259,63.3406 -0.8028,2.475 -2.3783,8.715 -3.5012,13.8666 -5.1525,23.6392 -19.1728,42.7278 -43.3538,59.026 -12.9077,8.6999 -20.3375,12.203 -33.4106,15.7528 -8.6881,2.3591 -11.914,2.6908 -28.7847,2.96 -18.4902,0.295 -19.4025,0.2126 -34,-3.0689 z m 98.2662,-30.3041 2.7338,-2.3169 -4,1.9639 c -2.2,1.0802 -4.9,2.6607 -6,3.5122 -1.8569,1.4375 -1.7664,1.4627 1.2662,0.3529 1.7964,-0.6573 4.4964,-2.2378 6,-3.5121 z m 20.3487,-16.9058 c 4.3368,-4.2204 7.8851,-8.0228 7.8851,-8.4499 0,-0.427 1.2976,-2.7115 2.8835,-5.0766 3.4163,-5.0945 9.668,-18.2533 10.3573,-21.8001 0.2672,-1.375 0.6598,-3.1187 0.8725,-3.875 0.2127,-0.7562 -0.1077,-1.5585 -0.7119,-1.7829 -1.2307,-0.4569 -5.4014,9.6173 -5.4014,13.0469 0,1.216 -0.4019,2.6385 -0.8931,3.161 -0.4912,0.5225 -2.293,3.6044 -4.0041,6.8486 -1.7111,3.2442 -3.9942,6.8442 -5.0736,8 -10.415,11.152 -15.7245,17.6014 -14.4904,17.6014 0.38,0 4.2392,-3.453 8.5761,-7.6734 z m -49.9088,-26.2149 c 3.092,-1.1755 4.3427,-4.082 5.642,-13.1117 1.8209,-12.6538 5.8966,-38.6779 8.6696,-55.3568 3.4305,-20.63295 3.7007,-29.61324 0.9823,-32.6457 -3.7834,-4.22062 -12.2105,-7.09897 -24.5821,-8.39623 -14.0677,-1.4751 -15.5003,-2.21924 -32.9179,-17.09919 -6.875,-5.87334 -16.325,-13.17066 -21,-16.21627 -14.9185,-9.71889 -18.4083,-12.19498 -22.6251,-16.05267 -3.7397,-3.42121 -4.2,-4.37934 -4.9252,-10.25349 -0.44,-3.5638 -0.6857,-7.517 -0.546,-8.78489 0.9265,-8.40995 -11.8474,-12.27434 -30.2884,-9.16298 -3.3634,0.56747 -12.6403,2.12057 -20.6153,3.45133 -16.7925,2.80211 -50.5899,8.94528 -57.0648,10.37237 -2.4394,0.53763 -7.5852,1.4835 -11.4352,2.10193 -8.556,1.37435 -16.6782,5.13857 -18.5222,8.58408 -1.192,2.22721 -1.0905,4.17733 0.7677,14.76236 2.0433,11.63954 6.663,34.07367 9.3869,45.58476 1.5225,6.43428 3.97,8.29205 13.8996,10.55049 15.4692,3.51835 37.0491,12.52 50.2335,20.954 6.9295,4.4327 19.6441,16.3543 25.0283,23.4673 6.4857,8.568 12.7062,19.1908 12.7062,21.6985 0,1.9816 5.4635,12.751 7.1999,14.192 2.0514,1.7025 14.6248,4.1075 30.3001,5.7957 7.7,0.8292 20.075,2.5623 27.5,3.8512 10.478,1.8189 17.5708,2.3724 31.6849,2.4728 10.0017,0.071 19.2363,-0.2703 20.5212,-0.7589 z m -64.7061,-184.12786 c -3.041,-2.03035 -7.909,-3.67617 -14.7911,-5.00068 -5.3724,-1.03397 -4.2648,1.09936 1.3584,2.6162 2.438,0.65765 6.2327,1.88512 8.4327,2.72772 2.2,0.8426 4.9,1.56075 6,1.59588 1.6393,0.0523 1.4589,-0.29739 -1,-1.93912 z m 146.5,-23.54285 c 0,-0.85746 -0.45,-1.2809 -1,-0.94098 -0.55,0.33992 -1,1.04148 -1,1.55902 0,0.51754 0.45,0.94098 1,0.94098 0.55,0 1,-0.70156 1,-1.55902 z M 1178.2458,437.14905 c 0,-1.27119 -0.2783,-1.33244 -1.489,-0.32768 -0.8189,0.67967 -1.2378,1.64211 -0.9309,2.13876 0.7889,1.27647 2.4199,0.0558 2.4199,-1.81108 z m 28.8244,-13.62695 c 0.1896,-0.99463 0.092,-2.46732 -0.2171,-3.27265 -0.4688,-1.22163 -0.9385,-1.25338 -2.8346,-0.19159 -1.25,0.69996 -2.4263,1.35124 -2.614,1.44729 -0.1877,0.096 -0.037,1.13478 0.3359,2.3083 0.8326,2.62347 4.8155,2.40574 5.3298,-0.29135 z m -5.8244,-6.69159 c 0,-0.55 -0.45,-1 -1,-1 -0.55,0 -1,0.45 -1,1 0,0.55 0.45,1 1,1 0.55,0 1,-0.45 1,-1 z m 11.5,-17 c 0.3399,-0.55 0.1415,-1 -0.441,-1 -0.5824,0 -1.059,0.45 -1.059,1 0,0.55 0.1984,1 0.441,1 0.2425,0 0.7191,-0.45 1.059,-1 z m 10.05,-5.91532 c 0.5225,-0.50343 2.075,-1.06593 3.45,-1.25 1.6543,-0.22147 2.603,-1.05683 2.8045,-2.46952 0.2666,-1.86953 -0.05,-2.05594 -2.5496,-1.5 -1.5698,0.34916 -4.4068,1.86735 -6.3045,3.37375 -3.4048,2.70273 -3.4167,2.73906 -0.9004,2.75 1.4025,0.006 2.9775,-0.40081 3.5,-0.90423 z m 13.7,-7.46344 c 2.0625,-0.94329 3.8063,-2.14396 3.875,-2.66816 0.069,-0.52419 0.1813,-1.49529 0.25,-2.158 0.069,-0.6627 1.1081,-1.4502 2.3096,-1.75 2.7539,-0.6871 7.8226,-7.93786 6.4845,-9.27596 -1.5411,-1.54117 -4.5228,-0.44403 -5.8101,2.13788 -1.3771,2.76234 -6.6239,7.54751 -10.609,9.67574 -1.5125,0.80774 -2.75,2.28206 -2.75,3.27627 0,1.94598 0.9024,3.27455 1.8895,2.78196 0.3358,-0.16756 2.298,-1.07644 4.3605,-2.01973 z m 22,-20.77467 c 1.8844,-2.227 2.329,-4.84657 0.8226,-4.84657 -0.5101,0 -1.8124,1.125 -2.8939,2.5 -1.0816,1.375 -2.9143,2.5 -4.0726,2.5 -2.1167,0 -2.7252,1.04758 -1.3862,2.38655 1.184,1.18405 5.6551,-0.32408 7.5301,-2.53998 z m 28.75,-28.87795 c 0,-0.56727 -0.675,-1.29041 -1.5,-1.60699 -2.0027,-0.76852 -4.7866,0.3656 -4.0044,1.63131 0.819,1.32513 5.5044,1.30442 5.5044,-0.0243 z m 6.075,-6.24362 c -0.1237,-1.1957 -1.4953,-0.96414 -1.925,0.325 -0.22,0.66 0.14,1.02 0.8,0.8 0.66,-0.22 1.1663,-0.72625 1.125,-1.125 z"
     id="path3537"
     inkscape:connector-curvature="0" />
</svg>
