<?xml version="1.0" encoding="UTF-8" standalone="no"?>
<svg viewBox="0 0 744.09447 747.9921077" xmlns="http://www.w3.org/2000/svg" xmlns:xlink="http://www.w3.org/1999/xlink">
<defs>
<linearGradient id="linearGradient30537">
<stop offset="0" stop-color="#adadb0"/>
<stop offset="1" stop-color="#b7b7b9" stop-opacity=".38776"/>
</linearGradient>
<linearGradient id="linearGradient13037">
<stop offset="0" stop-color="#fdfdfe"/>
<stop offset="1" stop-color="#f1f1f2" stop-opacity=".46939"/>
</linearGradient>
<linearGradient id="linearGradient4385">
<stop offset="0" stop-color="#7d7d7f"/>
<stop offset="1" stop-color="#515056"/>
</linearGradient>
<linearGradient gradientUnits="userSpaceOnUse" id="linearGradient2557" x1="212.77257" x2="213.06595" y1="563.51562" y2="405.89166">
<stop offset="0" stop-color="#4a4a4c"/>
<stop offset="1" stop-color="#626266"/>
</linearGradient>
<linearGradient gradientUnits="userSpaceOnUse" id="linearGradient2428" x1="520.4053" x2="282.51432" xlink:href="#linearGradient30537" y1="137.03729" y2="71.88852"/>
<linearGradient gradientUnits="userSpaceOnUse" id="linearGradient2433" x1="578.45222" x2="362.792" xlink:href="#linearGradient30537" y1="621.176" y2="250.97045"/>
<linearGradient gradientUnits="userSpaceOnUse" id="linearGradient2436" x1="160.29267" x2="33.2918" xlink:href="#linearGradient30537" y1="575.43926" y2="298.9493"/>
<radialGradient cx="1089.5532" cy="620.16174" gradientTransform="matrix(1,9.359715e-17,2.030661e-16,.73529,-5.428600e-13,164.1604)" gradientUnits="userSpaceOnUse" id="radialGradient31693" r="11.19179">
<stop offset="0" stop-color="#8c8c8c"/>
<stop offset=".67308" stop-color="#8c8c8c"/>
<stop offset="1" stop-color="#8c8c8c" stop-opacity="0"/>
</radialGradient>
<radialGradient cx="381.48129" cy="362.48032" gradientUnits="userSpaceOnUse" id="radialGradient31695" r="350.78738">
<stop offset="0" stop-color="#fff" stop-opacity=".40816"/>
<stop offset=".5" stop-color="#dbdbdc" stop-opacity="0"/>
<stop offset=".81971" stop-color="#121212" stop-opacity=".12245"/>
<stop offset=".90639" stop-color="#121212" stop-opacity=".35686"/>
<stop offset="1" stop-color="#121212" stop-opacity=".7551"/>
</radialGradient>
<radialGradient cx="437.13998" cy="149.88368" gradientTransform="matrix(.20091,-.15373,.28486,.37229,324.5670,133.7805)" gradientUnits="userSpaceOnUse" id="radialGradient2417" r="229.93484">
<stop offset="0" stop-color="#8b8b8e"/>
<stop offset="1" stop-color="#58575d"/>
</radialGradient>
<radialGradient cx="341.69849" cy="525.46906" gradientTransform="matrix(.81016,.31654,-.36613,.93709,259.0648,5.0073)" gradientUnits="userSpaceOnUse" id="radialGradient2371" r="167.42391" xlink:href="#linearGradient13037"/>
<radialGradient cx="341.69849" cy="525.46906" gradientTransform="matrix(1.0561,.17271,-.35123,2.14774,167.2003,-582.0054)" gradientUnits="userSpaceOnUse" id="radialGradient2378" r="167.42391" xlink:href="#linearGradient13037"/>
<radialGradient cx="695.00012" cy="467.92062" gradientTransform="matrix(.79814,.38689,-.11176,.23056,55.28328,52.21740)" gradientUnits="userSpaceOnUse" id="radialGradient2421" r="229.93484" xlink:href="#linearGradient4385"/>
<radialGradient cx="128.43826" cy="306.29892" gradientTransform="matrix(.95867,9.901272e-2,-.17219,1.66722,64.33527,-207.5994)" gradientUnits="userSpaceOnUse" id="radialGradient2555" r="229.93484" xlink:href="#linearGradient4385"/>
</defs>
<path d="m732.26868,362.48032a350.78738,350.78738 0 1,1 -701.57477,0 350.78738,350.78738 0 1,1 701.57477,0z" fill="#d1d1d2" fill-rule="evenodd" transform="matrix(.97605,0,0,.96239,2.92296,24.20663)"/>
<path d="m54.33527,490.77237c-26.85857-76.63413-32.15714-163.21645 8.83832-256.54276 1.72196-3.92005 7.02434,9.71967 7.02434,13.97149v18.52572c0,7.92624 1.03976,9.4898 3.70514,14.82059l6.17525,12.35049c2.43561,4.87122 1.84977,7.39908 3.70514,14.82058 1.08107,4.32431 2.32228,12.05485 4.94019,17.29067 3.35325,6.70651 3.94978,14.07482 7.41029,20.99584 2.96435,5.92869 6.90577,14.03754 8.64535,20.99583 1.78225,7.12899 5.17294,14.05104 8.64533,20.99582 2.61572,5.23142 3.6702,12.31553 7.4103,16.05563 3.19189,3.19189 6.13337,5.85603 12.35049,7.41029 7.69248,1.92313 19.73856,3.69404 27.17107,7.4103 4.95587,2.47794 12.4491,3.75445 17.29068,6.17524 3.65229,1.82613 6.93187,5.3185 11.11544,7.4103 6.17652,3.08825 9.47733,5.77219 13.58553,9.88038 2.04551,2.04551 8.64534,8.27534 8.64534,12.35049v18.52573c0,2.93458-1.84564,16.68009 0,18.52573 2.80001,2.80001 4.81422,9.32585 11.11544,6.17524 4.01217-2.00609 7.47128-3.76613 11.11544-7.41029 2.10804-2.10805 6.37175-8.59621 11.11544-7.41029 2.41168.60292 7.25849,1.08325 11.11546,4.94019 3.18057,3.18056 6.10695,4.87193 9.88034,8.64534 2.32869,2.32869 6.36378,6.88705 9.88044,8.64534 1.75726.87862 10.48751,4.89867 11.11541,7.41029 1.09682,4.38743 2.51367,10.79579-3.7051,12.35049-5.57671,1.39416-8.1245,2.20965-13.58555,4.9402-3.01361,1.50679-8.48779,5.20955-12.35048,6.17523-6.61352,1.65339-9.58942,1.88809-12.35052,7.4103-2.2026,4.40519-4.77893,6.01398-8.64535,9.88038-2.99603,2.99604-7.83415,5.75139-2.47009,11.11545 2.69442,2.69443 5.7135,6.56189 9.88039,8.64534 4.86185,2.43093 8.66669,4.95086 13.58557,7.41029 3.27203,1.63603 9.74847,3.57325 12.35048,6.17524 5.57858,5.57858 3.60531,5.53277-3.7052,3.70515-5.45804-1.36451-10.06204-3.75055-14.82057-4.9402-5.46209-1.36552-10.5999-1.23504-17.29067-1.23504-6.70915,0-11.81227-1.23505-18.52573-1.23505-7.49379,0-13.79365-1.23506-20.99583-1.23506-3.70914,0-15.96059.9501-11.11544,7.41029 4.47181,5.96242 5.88616,6.17526 14.82059,6.17526 6.27635,0 11.07913-.03631 14.82058,3.70514 3.30219,3.30219 5.16076,6.61638 7.41029,11.11545 2.70498,5.40994 6.12267,9.7752 8.64534,14.82057 2.91469,5.82937 4.61984,8.32498 9.88039,13.58554 3.18371,3.1837 9.33695,5.38482 16.05564,3.70514 4.11999-1.02999 15.67241-5.70667 17.29065-2.4701-2.22456-4.44922-2.65783,10.06812-6.17524,13.58554-4.4299,4.42995-9.87697,1.85429-13.58554,0-4.21484-2.10743-9.58154-2.9382-13.58551-4.94019-5.04251-2.52126-7.79079-5.13044-12.35048-7.4103-7.20461-3.6023-6.11113-3.96163-4.9402-8.64534 2.11439-8.45756-1.00937-4.94019-8.64534-4.94019-6.91963,0-11.4251,1.31246-16.05563,2.4701-8.01001,2.0025-3.19692,5.44842 0,8.64534 6.77128,6.77128-3.51953.0928-6.17524-1.23505-4.42517-2.21259-8.34718-5.87707-11.11544-8.64534-4.25022-4.25022-8.46603-5.99593-12.3505-9.8804-3.52245-3.52246-7.31845-5.51179-11.11543-7.41028-4.45385-2.22693-7.02457-5.78952-9.88039-8.64534-2.58248-2.58248 4.94021-4.30126 4.94021-11.11543 0-8.68665-.9127-9.55804-4.94021-13.58555-3.40728-3.40728-1.53291,10.17826-4.94019,13.58555-.99412.99411-11.73321-5.86662-12.35049-6.17526-4.48893-2.24445-7.81893-4.11378-11.11543-7.41029-3.34893-3.34893-4.94949-9.06941-7.4103-12.35048-3.25024-4.33366-4.68027-7.34532-9.88039-8.64534-2.64149-.66037-7.05646-8.29151-8.64535-9.88039-3.77341-3.77342-5.46478-6.69984-8.64534-9.88038-4.0449-4.04491-1.68337-10.2188 0-13.58555 2.08187-4.16373 5.95268-7.18773 8.64534-9.88039 .08068-.08068-10.76419,3.30857-12.35048,3.70514-7.03383,1.75847-6.21592-2.51076-9.88039-6.17523-2.8298-2.8298-2.4701-10.55313-2.4701-16.05564 0-4.5088-8.66002-4.79912-12.15751-5.6735z" fill="url(#linearGradient2436)" fill-rule="evenodd"/>
<path d="m600.33781,514.64857c-12.7891,11.67925-2.34777,30.45354 11.18394,34.37646-2.13798,18.53673-22.98685,14.17519-33.21735,25.03878-5.20253,10.10725 33.87798,1.94632 14.01242,12.80037-10.24166,1.04596-23.4947,39.41462-11.42626,20.73607 12.32515-1.94149 21.92231-21.85459 34.48732-12.56461 10.61152-3.76663 11.62606.53096 2.64506,6.07991-8.63448,7.53515-14.78497,26.94066-26.20663,18.49421-8.49323,12.29475-25.01613,18.79286-39.76977,18.89316-10.87238,1.90442 6.82096,18.32192-9.88541,19.72059-16.47722,8.49667-2.54959-20.18442 6.28085-20.4151-.01078-12.56088 7.24841-18.44349 19.93601-17.37495 12.42935-18.59592 6.79226-23.25226-4.43271-11.25051-10.06532,10.2618-25.73754,15.20784-39.94574,14.15851-5.19052-12.93196-21.02155-5.89247-28.7655-11.93871 13.46998-14.30003 35.22186-15.0362 51.13899-25.70489 9.29166-4.19698 25.11585-2.95058 19.5989-17.25378 4.1529-9.23924 22.77505-8.96523 23.77468-14.7883-8.49839-1.0318-14.14648-.45716-15.05286-7.49337-13.77325,2.95239-14.98608,14.1228-13.53658,25.45266-7.59557,13.95824-25.13282,7.80734-37.20978,14.24738-15.16167,2.73239-32.16511,4.47038-46.18345-2.96318-10.14674-4.7335-26.69187,9.66877-31.95021,4.98169 9.37063-10.9059 25.12934-6.87217 36.89048-13.62702 12.38152-7.37281 33.24475-24.95896 27.08808-39.89853-18.58407-4.29995-26.01708,21.81755-37.24383,28.53597-9.11475-3.55443-15.38463-9.79153-25.6369-6.00172 1.17757-8.85579.85181-17.34247-11.99169-17.6063-16.13766,5.53218-31.77387-13.14201-13.96816-23.07671 1.19108-11.41201-19.31485,1.38398-24.48147,4.33044-20.95692,8.35526-6.04645-20.16176.42333-26.91912 .81043-13.93252 6.89609-30.38276-.85771-42.97639-9.45083-4.36544-26.78136-23.79661-8.46134-27.52786 15.21223,6.99388 36.86525-1.95726 26.00929-20.8251-2.92113-8.65394-12.81864-30.16562 2.74149-29.63753 4.315-9.07641-8.31829-23.85215 8.33161-28.1162 8.74396-11.27513 17.14189-21.29259 31.67482-24.36161 14.82549-9.64942 25.3222-23.43695 32.49594-39.51496 4.21087-19.56441 29.07477-5.41766 42.38032-4.60333 9.73552,7.03517 2.95067,26.81184.35297,37.705-5.03641,13.43435-3.88605,28.92951-1.24247,42.78973 6.28451,14.55103 20.63959,23.57184 28.95038,36.55722 6.92715,14.70646-1.99222,36.36073 12.50507,46.04089 11.97349,12.00547 20.30575,40.09516 27.00224,55.31684 1.78612,2.20415 26.76095,6.2457 35.42529-6.26241 10.41339,4.2562 17.39416,13.25144 16.57255,14.27011-2.40412,2.98073 11.93763,15.38759-1.33837,20.71651-6.50133,2.6096-9.83034-9.06388-15.37977-12.48303s-14.63596,2.07435-16.85215,2.15088c-8.86476.30614-15.54181-.87078-16.86592,1.79184z" fill="url(#linearGradient2433)" fill-rule="evenodd"/>
<path d="m450.59291,327.24422c-8.29468,4.93578-5.3294,15.66359-6.5727,23.56126-2.62022,8.26029-12.06013,10.21052-19.52833,11.72594-8.79209,1.51199-15.44576,9.79702-24.96932,8.0743-8.08149-.35636-17.23215,1.23824-23.77766-4.73612-60.39078-66.46625-29.6241-118.7794-23.95588-132.02594-25.0266-48.15226 155.54778-30.42611 134.10252,31.15054 2.11549,6.91196.73888,14.35135.20027,21.36785-3.84366,5.89235-11.33449,9.36377-11.6919,17.20059-3.13455,7.50683-20.82036,22.39912-23.807,23.68158z" fill="#b3b3b5" fill-rule="evenodd"/>
<path d="m523.46075,285.25255c-1.53241,1.56481-4.15675,1.61866-6.21951,2.24436-3.91034.74134-7.88559,1.57826-11.88148,1.3918-4.72622-1.04119-7.75775-5.22729-11.83515-7.48112-2.77545-1.65021-5.46292,1.13898-5.71083,3.85191-.23066,2.39516-1.40306,6.05754 1.20224,7.51509 3.82536,1.92589 8.16746,2.34062 12.21391,3.5934 2.68755,1.40943.40512,4.50986-1.05694,5.9818-1.89514,1.95488-3.99224,3.76827-6.35337,5.13363-2.43627.53394-5.58834,1.96286-5.37954,4.9214-.27089,2.47937 2.75501,4.65435 1.29361,6.97255-2.61581,3.93508-7.83297,5.68795-9.42167,10.36779-1.02392,1.76684.92656,3.40642 2.03087,1.31891 1.3889-2.06797 2.45119-4.51721 4.98107-5.46697 2.90752-1.5597 6.08744-2.50845 9.24738-3.39806 1.93481-1.52009 2.03349-4.29022 2.50006-6.53688 .52762-2.89042.39021-5.89251 1.11022-8.73716 1.61326-3.18216 5.76167-3.56956 7.88568-6.29342 2.73231-3.01255 5.38788-6.29785 9.21822-7.96874 2.3707-.73986 4.66665-1.60315 5.00704-4.44525 .38599-.9897.77339-1.97891 1.16819-2.96504z" fill="#fbfbfc" fill-rule="evenodd"/>
<path d="m533.27987,185.82027c4.47286-9.53289 6.80173-14.15769 0-20.95947-6.97995-6.97991-15.7196,5.07236-15.7196-10.47974 0-6.29753 8.95238-9.6101 10.47974-15.7196 1.4887-5.95492-4.69452-16.37548-6.98652-20.95946-4.3801-8.76031-4.46377-9.70363-10.47973-15.71961-7.32608-7.32608 1.42054-28.49318 6.11317-33.18583 3.731-3.73096-92.15152-51.41191-220.07438-18.33954-1.31156.33908-8.49433,22.4673-9.60652,23.5794-6.36593,6.36597-9.2303,6.74428-6.98642,15.7196 .22663.90655 30.93474-3.39638 33.30085-3.39638 8.73308,0 10.40357,4.21917 19.0978,3.39638 39.46044-3.70515 166.69098,22.16526 178.1555,26.19934 8.7975,3.09562 6.15469,10.39671 3.49321,15.7196-1.63475,3.26961-13.38444,8.14465-15.71959,10.47974-1.53232,1.53237 5.99832,10.70957 3.4933,15.7196-3.28385,6.56771-7.76159,7.95807 0,15.7196 5.6599,5.65994 6.61056,10.10383 12.22629,15.71961 3.04532,3.04522 18.3338-3.1416 19.2129-3.49325z" fill="url(#linearGradient2428)" fill-rule="evenodd"/>
<path d="m344.82222,282.03274c-.30696.6139 8.81589-2.20397 10.47974-2.61994 4.24931-1.06232 6.60639-2.86654 9.60641-4.36654 6.11656-3.0583 2.32087-1.74663 6.11319-1.74663 4.16189,0 5.85771-1.23571 7.8598-5.23987 1.47322-2.94644 4.20793-5.08125 6.11318-6.9865 1.77773-1.77773 4.32817-2.61034 7.8598-3.49323 5.07886-1.26972 6.68139-.56822 9.60643-3.49326 3.88597-3.88598-7.8994-3.49323-9.60643-3.49323-5.22028,0-6.66477,1.33305-5.23987-4.36657 .06691-.26762-11.25108-1.72113-11.35305-1.74661-3.51728-.87933-6.20217-4.84772-8.73311-6.11319-3.75838-1.87919-6.10389-3.49092-9.60642-4.36655-4.10982-1.02746-4.48399-5.7096-5.23987-8.73311-1.12092-4.48367 3.03101-7.07648 5.23987-8.73312 3.49437-2.62077 5.06539-2.35798 9.60642-3.49324 4.93658-1.23416 8.54501.68519 10.47974,2.61993 2.69249,2.6925 6.91185,2.60127 10.47972,3.49325 2.86285.71571 1.57824,5.23986 7.85981,5.23986 6.87413,0 7.20133,1.08815 8.73312,2.61994 1.18253,1.18254-18.21338,7.8598-2.61993,7.8598 4.40843,0 3.67061,5.23986 9.60641,5.23986 4.20762,0 5.92642-2.57323 9.60643-3.49323 2.0931-.52327 3.94284-7.03827 4.36656-8.73311 .87292-3.49174 3.47288-5.15846 4.36655-8.73312 1.00259-4.01033 2.57097-5.91734 3.49326-9.60642 .97226-3.88909 3.49323-4.80437 3.49323-9.60644 0-4.92135 1.21397-7.15681 4.36656-8.7331 2.92534-1.46268-.78311-4.00577-1.74662-7.85981-1.1683-4.67316-2.45129-7.18523-3.49325-11.35304-.93986-3.75946 2.32892-7.27777 3.49325-9.60642 2.52477-5.04955-3.74062-6.39336-6.11317-6.98649-1.94126-.48532-5.05181,4.53786-7.85981,5.23986-4.20953,1.05238-3.49325-4.26311-3.49325-8.73312 0-5.1308-1.82693-6.15332-5.23986-7.85979-2.98146-1.49073-6.43886,2.61993-10.47974,2.61993-2.62337,0-4.58228-5.45559-6.11318-6.98649-2.11006-2.11006-2.65815-6.26601-3.49325-9.60642-1.19975-4.79901-4.09277-3.49325-9.60642-3.49325-1.43615,0-5.9964-3.68238-8.73311-4.36656l-10.47973-2.61993c-3.47851-.86963-5.60486-2.49285-9.60644-3.49325-3.6593-.91482-7.95167-.85033-11.35304,0-.97145.24287-5.363-4.48969-6.11318-5.23986-5.60169-5.60168-18.85762,2.00567-21.83278,3.49325-3.02225,1.51111-6.63941,2.75148-9.60642,3.49324-4.33531,1.08383-6.7937,3.8335-9.60643,5.23987-2.98422,1.49211-5.32655,3.95157-6.9865,4.36655-.62712.15679-7.01774-3.93771-8.7331-4.36655-4.11819-1.02955-8.54316-.87332-13.09966-.87332-4.48245,0-6.56345,1.97177-9.60642,3.49326-2.59286,1.29641-4.15936,5.69877-5.23987,7.85979-1.90683,3.81366-3.49325,3.77691-3.49325,9.60642 0,4.09541 2.87004,5.11273 1.74663,9.60643-.85647,3.42586-7.75234-3.00286-8.73312-3.49324-.31385-.15693-5.6548,5.78025-6.98648,6.11318-3.31727.82931-3.72862,6.18135-4.36656,8.73311-.71921,2.87679-4.51677,5.39006-6.11318,6.98649-2.77521,2.77519-4.6442,4.92185-6.11319,7.8598-2.54699,5.094-5.24977,1.70701-6.11317-1.74663-.68295-2.73181 5.36829-6.98649-2.61994-6.98649-3.08003,0-6.22767,3.11384-8.7331,4.36656-4.22548,2.11274-6.39522-3.74808-6.9865-6.11317-.71893-2.87572 2.49184-7.6036 3.49325-9.60644 1.86626-3.73252 1.53514-7.01386 2.61993-11.35304 .78622-3.14487 3.37493-3.01997 4.36656-6.98649 1.13901-4.55605 7.0398.97994 3.49325-6.11318-1.96606-3.93209 3.27215-10.54606 4.36655-13.09966 1.92839-4.49961 4.58295-3.65748 8.73311-2.61994 3.80822.95205 9.15103,0 13.09967,0 5.69015,0 6.05449-1.68793 8.73311-4.36655 2.29058-2.29057 5.52893-4.07443 7.85981-5.23987 4.18428-2.09214 6.70838-.59521 9.60642-3.49324 1.82223-1.82222 7.27716-3.20193 9.60643-4.36656 3.62066-1.81033 6.69623-1.67406 10.47972-2.61993 3.38772-.84693 6.96637-2.17322 9.60642-3.49325 4.32689-2.16344-5.41994-5.06656-6.11318-5.23987-3.7093-.92733-6.42025-1.74662-11.35304-1.74662h-13.09967c-4.25113,0-6.97476,1.74076-10.47973,3.49325-3.21428,1.60714-6.22854,2.43045-10.47973,3.49324-3.66879.9172-6.07606,2.61066-9.60642,3.49325-3.01646.75412-2.9484,4.06611-8.73312,2.61993-2.5645-.64112-6.09028,2.61993-10.47974,2.61993-4.60061,0-6.02537-2.26869-6.98649-6.11318-1.10068-4.40276 2.60183-6.04076 3.49325-9.60642 .91784-3.67136-7.09491,2.67415-10.47974,4.36656l-8.73311,4.36656c-3.62483,1.81242-5.573,2.95306-7.8598,5.23987-4.66485,4.66485-13.91491,10.5796-21.83278,13.97297-3.09168,1.32502-4.87326,3.74661-7.8598,5.23988-2.65484,1.32741-4.37194,5.24525-6.11318,6.98648-2.87663,2.87662-4.55682,4.74708-6.11318,7.8598-2.01282,4.02566 5.10573-1.2429 6.11318-1.74662 6.29597-3.14798 2.83085,1.5357.87331,3.49325-2.66821,2.66821-4.73749,3.86418-6.98649,6.11318-2.6682,2.6682-3.86418,4.7375-6.11318,6.98649-3.5774,3.57739-5.26021,1.70593-6.98649-1.74662-.14933-.29867-6.28051,7.15381-6.98649,7.8598-2.12139,2.12138-4.0717,5.81832-6.11318,7.8598-3.47189,3.4719-4.27542,5.65374.87331,4.36655 3.06856-.76713-3.37707,4.25038-4.36656,5.23987-3.54337,3.54338-2.46843-.25621-6.98649.87331-2.49953.62488-5.5669,4.69359-6.98649,6.11318-4.37981,4.37981-2.28443,3.96196-1.74662,6.11318 .48266,1.93065 2.12678,2.23978-1.74663,6.11318-2.6682,2.66821-4.73749,3.86419-6.98649,6.11317-2.5768,2.57682-3.82134,5.02276-5.23987,7.85981-1.35306,2.70612-4.91815,4.91814-7.85981,7.8598-1.10848,1.10849 2.4477,2.96442 1.74662,4.36656l-4.36656,8.73311c-2.2398,4.4796 5.95499-8.05917 8.73311-12.22636 2.34976-3.52464 3.90408-6.52401 6.11318-8.73311l6.98649-6.98649c1.65955-1.65955.17628,4.88731-.87331,6.98649-1.66768,3.33536-3.73017,4.8404-5.23987,7.8598-1.53299,3.06599-4.57479,3.90972-6.11317,6.98648-1.62977,3.25955-4.52983,3.8198-6.11318,6.9865-2.31188,4.62377-3.56656,3.20003-2.61993,6.9865 .75051,3.00207 4.72928-4.21871 6.11317-6.9865 1.78658-3.57316 5.66292-.81887 6.98649-6.11318 .97018-3.88073 4.71108-4.88934 6.11318-5.23986 2.27688-.56923 3.8363,2.92402 6.11318,3.49324 3.04167.76042-3.49325,5.59784-3.49325,8.73311 0,8.14418-5.02463-3.48084-6.98649,4.36656-.6272,2.50884-4.02608,5.43224-5.23987,7.8598-1.66767,3.33535-3.73017,4.8404-5.23986,7.85981-1.97459,3.94916-4.36656-6.92172-4.36656-8.73312 0-4.81401-.38703-2.23291-3.49325.87331-2.16196,2.16197-3.31482,6.62965-4.36656,8.73312-1.59446,3.18892-.70631,8.52776 0,11.35304 1.22913,4.91649 5.11191,3.12057 7.85981,1.74662 4.37742-2.18871 2.61993,1.83374 2.61993,6.98649 0,5.94576-4.42354,2.61994-8.73311,2.61994-2.40669,0-4.61474,6.60954-5.23986,7.8598-1.48569,2.97139-.99346,8.34037-1.74663,11.35304-1.15709,4.62838-3.95627,6.43408 1.74663,7.8598 1.98282.49571 5.42848-6.94687 6.11317-7.8598 1.82256-2.43006 1.74662-7.44295 1.74662-11.35304 0-4.08584.87332,8.14053.87332,12.22635 0,5.53391 4.89699,2.61994 8.7331,2.61994 3.3191,0-.34875,8.12208 2.61994,9.60642 4.95345,2.47673.1712,3.40765-3.49325,5.23987-.61435.30717 3.49325,4.39482 3.49325,6.11317 0,7.55-5.23987-1.40142-5.23987,6.11318 0,5.94468.71937,6.83256 3.49325,9.60643 2.6682,2.66821 3.86418,4.7375 6.11317,6.98649 3.36283,3.36283.66879,7.19102-.87331,8.73311-1.71492,1.71492-4.04999-8.25275-6.11318,0-.56444,2.25779 0,8.87861 0,11.35305 0,4.25672-2.32356,7.26707-3.49324,9.60643-1.44972,2.89943-4.23578,4.9783-4.36656,5.23987-1.38389,2.76777 4.72928,4.21871 6.11318,6.98648 2.23043,4.46087 5.9299,1.9299 7.8598,0 4.88759-4.88758 3.49325.36661 3.49325,5.23987 0,5.69874 2.66817,5.26399 6.11317,6.98649 6.24838,3.12419 5.23987,3.06622 5.23987,13.97299 0,3.85496 3.03351,6.06704 4.36656,8.73311 2.0496,4.09919 3.88223,3.68392 2.61993,8.73311-.9086,3.63434-1.84642,6.58732-.87332,10.47973 .89663,3.58648 3.88629,4.75959 6.11318,6.98649 2.5768,2.5768 8.61618.05847 10.47974-.87331 1.59895-.79947.87331-9.68842.87331-12.22636 0-.96964 6.98222-5.02047 7.85981-5.23986 .43136-.10784 1.74663,9.34255 1.74663,11.35304 0,3.38253-5.75935,1.41538-4.36657,6.98649 .85105,3.40422 5.23987.58949 5.23987,7.8598 0,6.56492 4.56876,1.54442 6.11318,0 2.18036-2.18036 7.47042-2.42524 9.60643-3.49324 3.11628-1.55814-3.125-7.2601-3.49326-8.73311-.87293-3.49172-3.47289-5.15844-4.36655-8.73312-1.27783-5.11132 6.3544,2.22908 6.98649,3.49326 1.67471,3.34941 3.34651,5.20317 6.9865,6.11317 3.7627.94068.42936-12.25548 2.61992-3.49325 1.53653,6.14612 9.48579,2.2436 12.22636.87331 2.10491-1.05244 4.05217-4.64602 6.98649-6.11317 .31409-.15705 6.96609,5.66632 7.85981,6.11317 4.0837,2.04186-1.64625,5.91243-2.61994,7.85981-2.76374,5.52748 45.97261,32.6254 47.1588,31.43921 3.54441-3.54442 6.66413-1.19568 8.73312.8733 5.33835,5.33836 6.37279,1.81071 11.35305-1.74662 .21783-.15559-7.38795.80292-4.36656-5.23986 1.54944-3.09887.75991-9.3796 1.74662-11.35306 1.57304-3.14606 2.75267,4.06265 7.42315,3.05659 3.71043-.79925 2.61993-3.19095 2.61993-6.98648 0-2.22066 4.52907-.1498 5.67653-.43666 6.04199-1.5105 2.81179-2.96066 6.98648-.87331 .84108.42053 0,11.68667 0,13.09966 0,3.25465-.95725,6.44897-1.74661,9.60644-.56923,2.27688-4.88732-.17628-6.9865.8733-1.72814.86408-2.61993-3.68511-2.61993,5.23987 0,3.89632-4.36656,2.75362-4.36656,8.73311 0,4.08639-3.60119,2.61994-8.73311,2.61994-2.63606,0 .99066-5.99584-.8733-7.8598-3.61034-3.61033-6.38968,1.9793-6.9865,4.36655-1.31782,5.27131 33.58275,11.69866-.87331,7.8598-4.09048,2.04524-2.3835,5.71273-.87331,8.73311 .82852,1.65704 99.77244-69.23992 100.43078-102.17741 .08422-4.21367 2.67287-13.04674 3.49325-12.22635 1.83363,1.83362 11.02969.87331 13.97298.87331 4.56033,0 8.80345-.89091 12.22635-1.74663 6.44675-1.61169 1.41345-3.57654-1.74661-4.36656-5.31443-1.32861-6.57119-.45801-9.60643-3.49324-2.83837-2.83838-.37506-2.24488 2.61994-5.23987 .08953-.08954-3.55362-3.69648 2.61993-5.23987 4.02974-1.00743 4.36656-6.81806 4.36656-10.47974 0-7.23584 3.71519,1.31721 4.36656,2.61994 1.26883,2.53767 5.95907,5.16282 7.85979,6.11317 .03279.0164 4.20066-8.40132 4.36656-8.73311 1.45684-2.91366 2.61993-6.62002 2.61993-10.47973 0-5.17651-6.31633-1.47751-8.73311-.87331-4.56281,1.1407-6.11317.59318-6.11317-5.23987 0-5.85433.62772-6.00416 1.74662-10.47973 .20068-.80274 5.99984-4.13989 6.98648-6.11318 1.06313-2.12626-4.34891-.87332-8.7331-.87332-5.89381,0-1.3989-5.32679 1.74662-6.11317 4.61392-1.15348 8.25082.97106 11.35304,1.74662 2.05599.514 1.74662-3.99391 1.74662-6.11318 0-2.96869 5.85307,2.46664 8.73312,1.74663 4.93962-1.23491 1.07202-3.83055 6.98649-.87332 2.94563,1.47282 7.92463-2.65235 9.60642-3.49324 3.87161-1.93581 5.36985-2.80576 9.60643-1.74662 3.24669.81166 6.0148,4.26817 7.8598,6.11318 3.37174,3.37173 2.70458,4.78204 7.85981,3.49323 4.78671-1.19667 8.34385.99434 11.35304,1.74663 3.16835.79209 3.35766,4.98765 7.85979,6.11318 4.2779,1.06948 7.5956-.06605 11.35306.87331 7.17745,1.79436 5.1379-1.95057 3.49325-5.23986-.49542-.99085 4.24843-6.51397 4.36655-6.98649 .69138-2.76547-3.51754-5.14271-2.61993-8.73312 .07263-.29049 15.70194-1.75104 5.23987-4.36655-3.93367-.98342-8.2038-.78731-11.35305,0-4.925,1.23125-.85748,8.74895-6.98649,2.61993-4.40576-4.40574 1.89162-6.36777 4.36654-6.98649 2.75155-.68788 9.42588-.70013 1.74663-2.61994-4.16694-1.04173-6.53201-2.16546-8.73312-4.36655-1.49854-1.49855-4.05718-1.23262-6.11317-1.74663l4.36656-2.61992c2.10229-1.2614 2.85724-7.22381 4.36656-8.73312 2.30137-2.30138 5.57563,3.57719 8.7331,4.36656 5.1463,1.28657 2.74166,5.11815.87331,6.98648-4.00191,4.00193 4.40639,6.11318 6.98651,6.11318 2.91406,0 4.36655,9.07675 4.36655,0 0-3.24536 2.81093-6.98649 6.11317-6.98649 5.25755,0 4.63835-4.15271 3.49326-8.73311-1.27659-5.10637-4.36657-3.80598-4.36657,1.74663 0,5.64832-3.85792,4.36656-6.98648,4.36656-5.44847,0-6.74741-.79033-7.8598-5.23988-.87332-3.49324 7.25912,1.00963 10.47973,2.61993 3.35332,1.67666-2.16521-5.44916-3.49324-6.11317-1.66719-.8336 4.81127-3.04854 3.49324-4.36656-2.36393-2.36393-8.70836,3.04422-9.60642,3.49325-4.74444,2.37221-6.43303-1.03324-9.60644-2.61994-3.93508-1.96754-3.67426-3.97515-8.73311-5.23986-5.16422-1.29106-6.18106,2.89147-6.98649,6.11317-.77802,3.11211 5.88383,1.97597.87331,6.9865-3.89815,3.89816-6.19972-2.70648-7.8598-4.36656-2.45335-2.45335-7.42497-1.74662-11.35304-1.74662-5.34591,0-2.3189-5.57072-1.74663-7.85981 .65125-2.60497-4.83289-5.70619-6.11317-6.98649-3.78843-3.78842-4.14-1.77956-5.23988,2.61994-1.22019,4.88078-3.44876,6.11318 3.49325,6.11318 5.85629,0 2.04256,5.81725.87332,6.98649-3.70639,3.70637-6.82618-2.06725-9.60643,3.49324-2.29514,4.59028-6.40476,1.16345-3.49325,6.9865 1.37497,2.7499-3.12553,3.35536-.8733,7.85979 1.7551,3.51021 3.4307,4.98974 4.36655,8.73311 1.78391,7.13565-2.38102,6.43038-6.9865,8.73312-5.5136,2.7568-5.23986-1.38741-5.23986-6.11318 0-4.42225.87331-7.23406.87331-12.22635 0-5.98829-1.26213-5.77373-6.11318-6.98649-4.51416-1.12854-9.25225.69621-11.35304,1.74661-4.59591,2.29795-3.1387,2.36055-7.8598,0-2.85408-1.42704-1.74662-7.31083-1.74662-11.35304 0-3.60076-6.98649,1.74662-10.47974,2.61993-4.62357,1.15589-9.25548-.69783-13.09967-2.61993zm-92.67786,122.96405c.84445,3.14977-4.23939,4.34337-3.95923,6.27634 .13835,1.06661.57147,2.06377 1.02311,3.02991-.56287,1.65362-2.08264,2.65881-3.23709,3.87215-1.38538,1.19932-2.82069,2.6009-3.15433,4.48441-.54771,2.49382 2.82353,12.36223 1.99973,14.81414-.41306.81677-4.29966-6.36462-4.88759-7.01664-1.07563-.85789-2.09844-1.98845-3.54799-2.1398-1.94193-.46128-4.78776-.15832-6.70995-.71463-1.23421-.74236-2.36293-2.93906-2.51675-4.26139-.18594-1.36594-.31162-2.81889.23368-4.12332 .56915-.68463 1.54652-.77763 2.37428-.67076 .85742-.16129 1.15078-1.36788.60049-1.98928-.63004-1.6377-1.08569-4.98705-1.04358-6.81145 .2338-1.67624 1.57771-2.87712 2.83545-3.86778 1.25905-.93996 2.88096-1.49695 3.74177-2.89053 .44365-.6215.62534-1.55135 1.44998-1.79465 .9267-.03025 1.46949.87811 1.80323,1.61801 .5674,1.1821 1.94103,4.59104 2.12364,5.88963-.4517.73945.57912,1.82184 1.30211,1.24496 1.46996-.97076 2.26535-2.61852 3.55826-3.77627 1.05304-.66145 4.04663-1.4958 6.01078-1.17305z" fill="url(#radialGradient2555)" fill-rule="evenodd"/>
<path d="m171.69015,432.9839c.32274-.16137 7.15794,5.82237 8.07627,6.28153 4.19617,2.09809-1.69159,6.07526-2.69209,8.07627-2.83986,5.67971 5.64712,4.48681 8.97362,4.48681 5.54899,0 2.93755,6.19702 2.69209,7.1789-1.06422,4.25683-2.01236,5.84627 0,9.87098 1.91601,3.83203-.89737,5.5632-.89737,10.76836 0,5.03117-4.07501,4.48681-8.97362,4.48681-5.57123,0-7.67068-1.10016-11.66571.89736-.77727.38863-4.03009,8.06018-4.48681,8.97362-1.50623,3.01246-5.72612,4.2091-8.07626,5.38417-3.43827,1.71914.50216,9.97794.89736,10.76835 1.45256,2.90513 5.3436,3.5083 7.1789,7.1789 2.46127,4.92255-.63551,7.44076 2.69209,10.76835 2.85175,2.85176 2.31955,5.0667 7.1789,6.28154 4.41255,1.10313 2.73215-.4587 8.07626-1.79473 3.08476-.77118 4.03315,4.93051 6.28154,7.1789 1.14708,1.14709.89515,8.07185 1.79472,9.87099 2.25104,4.50207 7.37337-2.81154 8.97362,3.58944 1.32235,5.28939 6.129.97363 8.07626,0 3.05045-1.52522 1.16687,6.82055 2.69209,9.87099 1.7186,3.4372 8.39044,3.00626 3.58945-1.79472-2.47566-2.47567 2.7403-6.4744 3.58945-9.87099 .33518-1.34073-9.93539-2.48384-10.76835-2.69209-5.51145-1.37786-2.42394-5.65232-.89736-7.1789 2.68247-2.68247 7.76587,4.7634 8.07626,5.38417 .00557.01115 3.81729-6.28153 7.1789-6.28153 6.59028,0 4.7402-4.23342 1.79472-7.17889-5.46566-5.46568-.07399-4.41281 0-4.48682 1.48057-1.48057 5.34515,1.87279 6.28154,0 2.80439-5.60878 2.69208,4.49466 2.69208,7.1789 0,1.08824 7.40154-1.29039 8.97363-.89737 6.22717,1.5568 5.51343-.51701 6.28154-3.58944 .16837-.67348-7.63196-4.93987-8.07627-5.38417-3.78862-3.78862-5.38417-2.71883-5.38417-8.97363 0-7.02654-1.07423-7.00203-4.48681-3.58945-2.92132,2.92131-3.78978-1.09769-6.28154-3.58945-2.90951-2.90951-4.48681,8.53531-4.48681,0 0-3.65851-2.26354-7.21916-3.58945-9.87099-1.53704-3.07409.38795-10.52541.89736-12.56307 1.23055-4.92219 1.10176-.89736 5.38418-.89736 2.57087,0 5.06267-5.96003 6.28153-7.17889 3.64202-3.64203 6.84766-1.22861 8.97363.89735 5.48537,5.48538 6.54829,1.86058 11.66571-1.79472 .22383-.15988-7.59141.82503-4.48681-5.38417 1.59211-3.18421.78083-9.63791 1.79472-11.66572 1.61636-3.23271 2.82848,4.17453 7.62758,3.14077 3.81262-.82127 2.69209-3.27883 2.69209-7.17889 0-2.28182 4.6538-.15393 5.83286-.44869 6.20839-1.5521 2.88923-3.0422 7.17889-.89736 .86424.43211 0,12.00852 0,13.46043 0,3.34428-.98362,6.62657-1.79472,9.871-.5849,2.33958-5.02191-.18114-7.1789.89735-1.77574.88788-2.69209-3.7866-2.69209,5.38418 0,4.00362-4.48681,2.82945-4.48681,8.97362 0,4.19893-3.70037,2.69209-8.97362,2.69209-2.70866,0 1.01794-6.16096-.89736-8.07626-3.70976-3.70976-6.56565,2.03381-7.1789,4.48681-1.35412,5.41648 6.09584,4.57966-.89737,8.07626-4.20313,2.10156-2.44914,5.87006-.89736,8.97362 .85134,1.70267 6.15723,5.32202 8.07626,6.28154 1.33632.66815 3.48032,7.96713 4.48681,8.97363 1.19558,1.19557 2.91171-.91629 4.48681,5.38417 .7009,2.8036 2.29478,1.10284 3.58946,6.28154 1.63892,6.55567-4.46932,4.48681-8.07627,4.48681-4.98615,0-5.59001,3.10375-7.1789,6.28153-2.48286,4.96574 1.0593,7.89241-5.38417,6.28154-3.77672-.94418-5.97681-5.67209-2.69208.89736 1.262,2.52402-2.87975,5.19651.89735,8.97363 2.96429,2.96428 2.86399,5.38418 8.07627,5.38418 6.14912,0 7.00409-.54775 8.97363-4.48682 2.14712-4.29426 3.04272-5.38418 8.97361-5.38418 10.62105,0-2.22851,1.8543-.89736,7.1789 .94339,3.77353 7.2739,2.44401 9.87099,1.79473 3.421-.85525-7.86854-6.90263 1.79472-4.48681 4.27196,1.06798 6.27883.00271 8.97363-2.69209 2.52314-2.52316 4.96014-7.1789-.89736-7.1789-4.00024,0-8.1226.88578-11.66571,0-4.03514-1.00879-6.49393-1.79473-11.66571-1.79473-6.83633,0-.42414-4.06267.89736-5.38417 1.35432-1.35433 1.87634-3.63026 3.58944-4.48681 1.6274-.8137 4.57049.73003 5.38418-.89736 .66886-1.33771-2.1385-2.32935-3.58945-2.69209-2.85804-.71451 5.99313,1.50632 8.07627,3.58945 1.69207,1.69208 5.03856,1.07017 7.17889,0 1.59296-.79648 13.33378,5.25752 15.25515,7.1789 2.12826,2.12825 2.68596.00612 5.38418-2.69209 1.68515-1.68516-2.56327-6.66363-1.79473-3.58945 .88076,3.52306 8.98903,1.3422 10.76835.89737 3.39242-.84811 2.1976-4.48682 8.97362-4.48682 5.13745,0 7.43343-.89736 12.56308-.89736 4.99144,0 8.15933-2.71286 11.66571-3.58945 2.85804-.71451.64345,8.07626 3.58945,8.07626 2.02975,0 4.36819-7.06028 5.38418-8.07626 4.24742-4.24743 5.38417-.42693 5.38417,4.48681 0,3.12291 6.1804-1.29548 8.97362-2.69208 3.59018-1.79509.87623-8.11853 0-9.87099-2.43339-4.86677 1.04399-5.57186 5.38417-4.48682 3.24442.81111.57003-7.50622-1.79472-9.87098-2.0156-2.0156-7.71423-3.05026-9.87099-3.58945-4.03548-1.00887-7.95928-.50716-1.79472-3.58945 5.0396-2.5198 4.17257-8.62375-.89736-11.66571-2.82972-1.69783 2.03207-7.6536 2.69208-8.97362 1.90593-3.81185 3.88272-4.78008 6.28154-7.1789 2.74169-2.74169 4.86797-3.97061 7.1789-6.28154 2.57131-2.5713 2.69209-6.59842 2.69209-10.76835 0-3.55253.89736-7.91107.89736-12.56307 0-.8114-5.77763,3.78618-7.1789,4.48681-4.22163,2.11081-6.54672,2.11081-10.76835,0-4.2968-2.1484-5.19163-3.71664-6.28154-8.07626-1.56242-6.2497 1.27158-7.04811 5.38418-8.07627 3.44714-.86178 5.0062,7.46175 5.38418,8.97363 1.06222,4.24892 0-5.46366 0-8.07626 0-3.6882-3.38371-6.7674-4.48682-8.97362-1.60386-3.20773-4.17312-4.40839-8.07626-5.38417-4.2051-1.05128-5.63677-3.19727-7.1789-6.28154-1.86856-3.73713-1.79473-6.90938-1.79473-11.66571-8.918,4.459-13.11897,4.55771-23.34478,4.55771-2.86321,0-6.18446-12.56138-6.76471-14.88237-1.34801-5.39203-4.05883-11.42736-4.05883-17.58824 0-4.76153-5.94797-10.0068-8.11765-12.17648-4.63076-4.63076-6.59538-5.41177-14.88237-5.41177-6.32582,0-7.60543,6.25249-10.82353,9.47059-4.46655,4.46655-8.90481,1.79566-10.82354,9.4706-1.43403,5.73611-4.40438,8.80875-6.76471,13.52942-2.73807,5.47613 2.91811,5.57754 1.35294,11.83825-1.366,5.46399 9.41826,6.29754-9.80883,18.94118-4.91394,3.23139 6.07474,14.00241 3.72059,16.91178-3.4884,4.31114-6.57034,1.40345-8.79412-3.04412-2.78061-5.5612 4.27264-4.16086-2.02942-5.41177-5.55994-1.1036-16.21115-8.4438-20.9706-10.82353-5.83965-2.91983-7.55248-4.05883-16.23531-4.05883-8.03544,0-14.83018,2.00331-20.97061,5.07353-1.81441.90721-6.22784,5.95774-4.00446,10.52492z" fill="url(#linearGradient2557)" fill-rule="evenodd" transform="matrix(.9732,0,0,.9732,10.05795,9.9899)"/>
<path d="m614.13201,270.94355c2.92713,1.51503 5.36209,4.06084 8.61264,4.87412 3.50325.37436 5.23499-3.37308 7.89703-4.89809 1.20253,1.50557-1.39968,4.79325-1.56401,6.95682-.28601,2.00239-2.29296,6.78474.9696,6.87208 2.67519-1.20168 4.7689-3.46671 6.58037-5.71871 .99231-2.37906 3.55512-4.83044 5.71627-2.014 1.69675,2.88917 4.49706,1.14549 6.37025-.57007 1.81485-1.66405 3.13471.17462 1.61946,1.78826-1.56843,3.08852-4.05919,5.99072-4.15956,9.59501-.16097,2.04343 2.68934,4.42947 2.69497,5.45367-1.54854-.01709-4.70727-2.02079-5.33414-.81868 1.90181,3.01023 4.46733,5.60452 7.21437,7.85374 1.4447.62601 6.05151,3.12147 2.43955,3.92375-1.84486.87758-5.05124-1.07933-6.03492.79324 .637,3.33902 2.83933,6.1153 4.31106,9.12676 .66514,1.4314 2.2784,3.93293 1.88435,4.81795-1.83614-.95913-4.65821-1.97333-6.19184.01618-1.76748,2.55298-.12082,5.99169-1.69113,8.57066-2.36142-.64128-2.87479-4.05552-4.16331-5.98569-2.19184-4.21954-2.77555-9.41211-6.52306-12.7018-3.33-3.39668-5.9883-7.38411-9.39671-10.71033-3.74206-4.01571-4.12561-9.68388-5.76111-14.6583-1.49124-3.97444-4.50813-7.28179-5.26913-11.55349-.07983-.33631-.15318-.67415-.221-1.01308z" fill="#e5e5e6" fill-rule="evenodd"/>
<path d="m432.84907,205.90643c3.95669,1.6425 6.77551-.76783 10.47972-2.61994 3.58033-1.79017 3.25555-4.08879 7.85981-5.23986 1.0619-.26547 1.62744-10.87634 1.74662-11.35305 1.21638-4.86552-.29678-7.56729 4.36656-8.73312 3.35695-.83924 4.86697-3.99366 6.98649-6.11317 1.95554-1.95554 8.81507,1.74662 11.35304,1.74662 5.7292,0 7.7865-.0733 10.47974,2.61993 3.0192,3.0192 5.24641,3.27656 9.60642,4.36656 4.98183,1.24546 6.24638,3.55985 9.60643,5.23986 2.88239,1.4412 10.53831-.45129 12.22635-.87331 5.75043-1.43761-3.41725-7.8218-3.49324-7.85979-3.20677-1.60338-5.80813-3.1882-7.85981-5.23987-3.54541-3.54543-3.49323-2.20549-3.49323-4.36656 0-.90459-9.88357-2.76898 0-5.23987 5.5138-1.37845 7.3935-.46629 3.49323-4.36655-3.31468-3.31469 7.72148.80414 7.85981.87332 4.06038,2.03017 5.32803,2.70808 7.8598,5.23986 2.40931,2.40931-8.08264.44568-9.60642,3.49324-1.08434,2.16869 5.69121,5.69122 6.98649,6.98649 4.35641,4.35642-2.78964,5.85242 5.23986,7.85981 1.86355.46588 6.3444-6.34439 6.98649-6.98649 3.90912-3.90912 5.23988-2.13563 5.23988,1.74662 0,3.39511-5.89353,5.29477.8733,6.98648 4.79681,1.19921 4.84739,3.31655 3.49325,8.73312-1.00663,4.02652-2.61994,5.54765-2.61994,11.35305 0,3.59617 3.86077,5.33174 6.98649,6.11317 4.82476,1.20619 5.18708,1.10483 9.60643,0 3.40069-.85017-1.72348,7.07904-.87332,10.47974 .81684,3.26732 6.13645,5.26313 7.85981,6.98649 3.11895,3.11895-2.52124,6.06383-4.36655,6.98649-4.43604,2.21802-2.15437,6.17101-.87332,8.73311 1.85042,3.70084 3.64866,4.67736 5.23987,7.8598 2.29383,4.58766 4.57506,5.57228-1.74662,8.73312-2.09918,1.04959 2.53285,5.32694.87331,6.98648-3.69872,3.69874-5.14379,1.93878-2.61994,6.98649 .63193,1.26385 7.11529-.87331 10.47974-.87331 3.25464,0-.29111,6.6954-1.74662,9.60643-.96914,1.93829 8.22459,0 9.60642,0 3.55723,0 6.94606,4.20485 5.23987-2.61994-1.14583-4.58326-.71205-7.30901.87331-10.47973 .34069-.68138 9.16468,5.67143 9.60643,6.11318 2.47009,2.47009 1.56222-7.35529 0-10.47973-1.45283-2.90565-2.77407-7.60297-3.49325-10.47975-1.69871-6.79482 5.65123-1.54093 6.98649-.87329 4.45746,2.22873 7.8598-.54866 7.8598,6.11317 0,3.08062-3.49324,5.17756-3.49324,9.60642 0,4.14648 6.01617,1.74662 9.60642,1.74662 4.30978,0 5.23987,3.33334 5.23987,7.8598 0,3.09448-6.23597,3.1111-6.98649,6.11318-.26573,1.0629 4.79033,6.06169 5.23986,7.85981 .95206,3.80821 0,9.15102 0,13.09967 0,3.68068 5.16462,4.36655 8.73312,4.36655 3.34483,0 7.77972,1.94493 10.47973,2.61994 1.71785.42945-.84454,4.8104.87331,5.23986 7.58108,1.89527 5.28416-.17713 4.36656,3.49325-.13737.5495-1.73143,9.29766 3.89886,9.29766 4.0457,0 9.78846,2.3492 12.69406,3.802 2.06576,1.0329 0,9.1333 0,9.60643 0,3.70515 6.20281,4.54582 7.8598,7.8598l4.36655,8.73311c1.72242,3.44484 3.05431,5.67424 5.23986,7.8598 3.31898,3.31897 4.20837-1.74662 9.60644-1.74662 3.66985,0 4.36655,5.71574 4.36655,6.98649 0,3.13853-5.64485.93666-2.61994,6.98649 1.42829,2.85656 2.77281,6.72468 3.49326,9.60642 .98174,3.927 1.74661,6.31989 1.74661,11.35306 0,4.99974.87331,7.23418.87331,12.22635 0,5.06278-1.74662,7.18089-1.74662,12.22636 0,5.10367-.92184,8.05391-1.74662,11.35305-1.13001,4.52004-1.79134,6.20262-3.49325,9.60642l-4.36655,8.73311c-1.74663,3.49324-3.25364,7.31566-5.00026,10.80892-1.78175,3.56349-3.95587,4.57576-5.37621,7.41641-1.36643,2.73286-2.07642,8.88013-2.72321,11.46725-.9139,3.65562-2.88648,6.11318-6.98648,6.11318-1.81618,0 .67855-10.96354-3.49324-2.61992-1.76278,3.52554-.42509,8.70996-1.74663,11.35304-1.20867,2.41736-6.04541,4.33267-7.8598,5.23987-3.35222,1.67612-5.65835,2.50622-9.60643,3.49323-.81928.20483.87332-4.54377.87332-8.7331 0-6.11065-3.13174-3.79384-4.36655-8.73312-.76339-3.05351 5.56316-6.27482 6.98649-6.98648 3.56268-1.78135 7.8598.37079 7.8598-5.23988 0-7.64443 2.30819-3.41658 3.95876-.11544 .30922.61843 8.35341-4.60694 8.35341-6.81332 0-3.35926 5.85631-5.69801 7.05639-8.09817 2.92702-5.85404-10.78025-8.40768-13.25539-5.93253-3.64459,3.64459-3.53792,3.90756-7.8598,1.74662-4.04105-2.02052-1.5954-4.98373-6.11317-6.11318-.07112-.01778-6.2555,6.25548-6.98649,6.98649-3.75043,3.75042-6.95866,1.69095-4.36656-3.49324 2.2704-4.54083 1.17367-4.93952-1.74663-7.85981-3.54439-3.5444-1.10487-6.75492.87331-8.73311 2.90346-2.90345 5.10899-3.52597 8.73311-2.61994 2.60372.65093-3.71267,4.03962-6.11318,5.23987-5.28363,2.64183 7.38189,4.36656 8.73312,4.36656 4.16797,0 .32726-9.27915-2.61994-12.22636-3.00043-3.00043-3.43809-4.4217-6.98648-.8733-1.27405,1.27405-5.51577,1.1492-7.8598,3.49323-4.17773,4.17774-6.9865-.90472-6.9865-4.36655 0-4.23249 3.78025-5.31161 6.9865-6.11318 2.41293-.60323 5.22778.86123 6.98649,2.61994 2.18812,2.18812-3.92506-4.79837-6.11318-6.98649-3.13291-3.13291-3.22044-4.14866-4.36656-8.73312-1.11684-4.46737 4.10407-5.23986 7.8598-5.23986 3.92078,0 3.49325,5.84466 3.49325,9.60643 0,6.29123 1.5109,3.5628 2.61993-.87332 1.28664-5.14659-1.37546-7.99079-2.61993-10.47973-1.60336-3.20674-3.74938-4.87885-5.23987-7.85981-1.77787-3.55574 3.61997-7.98653-1.74662-2.61994-4.62947,4.62947-2.32376,1.15426-.87331-1.74661l4.36655-8.73311c1.47-2.94002 2.66996-6.31328 3.49325-9.60643 .6891-2.7564 3.9961-5.37228 5.23986-7.8598 1.64464-3.28927 1.2635-7.76685 2.61994-10.47974 2.1371-4.27423.5482-7.31161 4.36655-3.49324 2.7039,2.70389 2.43651,6.84687 1.74662,9.60642-1.18365,4.73463-.75423,6.35135 0,7.85979 1.52379,3.04757 2.66687-6.30087 3.49326-9.60641 .8484-3.39367.92838-8.0801 1.74662-11.35305 1.50112-6.00449-1.62858-7.88932-5.23988-6.98649-1.97688.49423 0,4.07545 0,6.11318 0,2.92555-6.11641-2.18166-8.73311-.87332-2.44631,1.22317-3.40207,6.80418-4.36656,8.73312-1.85643,3.71289.02077,7.06955.87332,10.47974 .622,2.48801-1.4699,2.30005.87331,6.98649 1.15822,2.31645-7.83424.02556-9.60642-1.74663-5.19358-5.19357-2.03372,5.539-1.74663,6.11318 3.8496,7.69922-3.86259,2.25058-5.23986.87331-2.37095-2.37094-5.15524-1.66199-7.85981-4.36655-1.04122-1.04123-5.04309,2.78907-7.85979,3.49324-5.20732,1.30183-3.47836-4.30697-4.36657-7.85981-.79878-3.19511-5.5136-4.04071-6.98648-6.98648-3.38481-6.7696-4.22759-.31743-3.49325,2.61993 1.17566,4.70263 2.62129,6.11048.87331,9.60644-2.50737,5.01473.28209,6.91595-6.98649,8.73311-1.92877.48219-3.94963,7.0654-4.36655,8.73311-1.11826,4.473-.185,6.24651.87331,10.47973 .40907,1.63632-2.79559,6.81577-3.49325,9.60642-1.34224,5.36901 1.63212,7.99825 3.49325,10.47974 2.72094,3.62793 2.8247,6.16741 1.74662,10.47973-.79142,3.16567 6.60854,3.49325 9.60642,3.49325 5.71706,0 7.79105-.06877 10.47974,2.61994 3.68532,3.68531-1.38875,6.20264 5.23986,7.8598 5.38247,1.34561 4.94471,3.18588 6.11319,7.8598 .35276,1.41104-3.46348,7.80027-4.36656,9.60641-1.41437,2.82874-.27812,9.84559-.87332,12.22637l-2.61993,10.47973c-.28441,1.13765 3.49325,6.13399 3.49325,9.60643 0,4.87452.0766,5.95999-1.74663,9.60642-1.88389,3.76781-1.46335,5.82404-6.11318,6.98649-6.35902,1.58976-1.85473-4.15033-.87331-6.11318 1.91844-3.83685 1.57693-6.30774 2.61994-10.47973 .78936-3.15746-7.27759-1.45552-8.73312-4.36655-.03643-.07288-4.12299,4.24477-6.11317,5.23986-2.36644,1.18322-5.12125-5.99457-6.11318-6.98649-7.91614-7.91615-5.42136-.18149-2.61993,2.61994 2.95586,2.95586 2.66773,5.92196 1.74663,9.60641-.85311,3.41241-7.11924-1.87936-9.60644-4.36655-4.14381-4.14381-4.72707-2.25942-.87331-6.11317 2.97106-2.97106 6.53907-.91637 5.23986-6.11318-.73711-2.94847-5.78463,3.35704-8.7331,2.61992-2.6263-.65657-7.12367-13.99828-.87331-31.4392 .98697-2.75405 7.35147-.28843 9.96816-1.59678 3.02692-1.51347 4.1212-1.518 6.62475-2.76978 5.01752-2.50875-.89795-6.6612-.97926-6.98649-.23962-.95847-4.98584-5.09178-6.00724-6.11318-3.00235-3.00236-.4591-5.19495-3.49323.87331-1.67286,3.34572-3.50889,5.24378-6.98649,6.11319-4.45522,1.1138-4.36656-4.77894-4.36656-8.73311 0-6.08523-1.53652-7.64971-4.36655-10.47974-2.26816-2.26815-6.01067,1.93931-8.73312,2.61993-5.86836,1.46709-5.23986-3.26353-5.23986-7.8598 0-3.24408.83666-8.00634 0-11.35305-.45401-1.81604-4.9626.87331-6.9865.87331-3.09447,0 3.92506-4.79836 6.11318-6.98649 3.27289-3.2729 11.35304-4.39522 11.35304-9.60642 0-4.62815.02222-7.90423.87332-9.60642 1.52379-3.04757-6.55886-1.96947-9.60643-3.49325-3.75805-1.87902-3.40233.69148-5.23986,4.36655-1.66782,3.33563-6.41935-3.79939-6.98649-4.36655-4.64835-4.64836-1.38111-2.61993-8.73312-2.61993-.84992,0-3.95647,1.2834-6.98649-1.74663-3.4797-3.47971-.9371-6.09723 2.61994-6.98649 5.15179-1.28795 6.06671,5.05401 6.11318,5.23987 .82639,3.30555 2.66686-6.30087 3.49323-9.60642 .20406-.81619-7.35844-9.23446-10.47972-6.11318-2.06868,2.06868.43504,6.11641-.87332,8.7331-1.52379,3.04757-3.49324-6.19913-3.49324-9.60641 0-3.52018-5.65916-2.68939-4.36655-7.8598 .56515-2.26062 2.93692-4.84518 1.74662-9.60643-.47468-1.89872 7.38933.73808 6.11317-4.36656-.81109-3.2444-3.47115-6.09108-5.23987-7.8598-3.33069-3.33069-5.36415-3.86943-4.36655-7.8598 .63602-2.54408 7.37325,3.39345 3.49325-4.36655-1.55151-3.10299-3.78825-5.82987-5.23988-8.73311-2.02731-4.05464-3.49323-3.82529-3.49323-7.85981 0-2.34695 5.32693.78625 6.98649-.87331 3.37266-3.37267 2.82644-3.95355 5.23986.87331 2.98499,5.96998 3.49325-.29311 3.49325-4.36655 0-4.94576 2.31807-6.54176 5.23986-8.73311 1.16442-.87332 2.46404,3.64913 3.49326,2.61993 3.0919-3.09191 3.62422-3.49325 7.85979-3.49325 1.5427,0 3.81068,6.39113 9.60642,3.49325 3.70968-1.85484-.2564-6.26546-.87331-8.73312-.14178-.56716-8.10132,4.05066-8.73311,4.36656-6.35917,3.17958-3.72496-3.02982-2.61993-5.23987 2.46744-4.93489-3.42514-.67201-6.11318,0-3.92698.98175-6.31987,1.74662-11.35305,1.74662-3.77487,0-5.79391-2.54011-9.60643-3.49323-4.71579-1.17896-7.37361-2.37684-11.35304-4.36657-3.04759-1.52379-6.25683-3.52915-9.60642-4.36655-3.49173-.87293-5.15845-3.4729-8.73312-4.36656-5.27026-1.31756-.59598,3.77058.87331,5.23987 3.77967,3.77967-3.8644,4.36655-6.98649,4.36655-6.23697,0-1.14259-5.10522.87332-6.11318 .14138-.07068-6.14997-4.40333-7.8598-6.11317-3.79212-3.79213-2.99513-1.99248-4.36657,3.49324-.67676,2.70708-6.50052-.19721-7.85979,5.23988-.60323,2.41291-4.57356-2.01671-6.98649-2.61995-3.0514-.76284-2.33351,5.5263-6.98649.87332-3.36041-3.36041-3.60435-3.93765-4.36655-6.98649-.92865-3.71455 7.52417,1.74662 11.35304,1.74662 3.50535,0-.69434-7.34446.87331-10.47973 1.10194-2.20389-.68757-8.60274 0-11.35305 .37128-1.48513 4.27185-3.98776 5.23986-7.85981 .76069-3.0427-1.21007-5.63945-.8733-6.98649 .39382-1.57528 3.49324-3.81167 3.49324-9.60642 0-4.47053-5.57414-1.74662-9.60643-1.74662-6.38217,0-1.06106.49781-4.36655-6.11318-1.77151-3.54303-.597-5.93065.87332-9.60642z" fill="url(#radialGradient2421)" fill-rule="evenodd"/>
<path d="m689.60257,274.0247c-3.41721-6.83443 5.13324,14.41981 6.98649,21.83279 1.84357,7.37425-6.46974,1.04254-7.8598,0-.34926-.26194 2.68828,8.80145 3.49325,9.60642 2.81026,2.81027-1.22951,7.34268-2.61994,8.73311-1.77245,1.77248-4.14166,5.6634-5.23986,7.85981-1.82971,3.65943-5.95534,2.61994-10.47974,2.61994-5.90811,0-6.52627-3.90636-9.60642-6.9865-3.12173-3.12173-.69638-5.58806-5.23987-7.85981-3.22778-1.61388-5.75145-5.38973-6.98649-7.85979-1.64319-3.28638-3.69404-4.76814-5.23986-7.85981-2.91853-5.83702-.62995-3.37156 2.61992-1.74661 6.63904,3.31951 1.62698-4.60587.87332-6.11319-2.51548-5.03096-5.14057-2.81855-2.61993-7.8598 1.85562-3.71125 5.82069-3.20283 0-6.11317-3.78144-1.89073-5.23988-2.98263-5.23988-7.85981 0-3.52785 3.37048-5.9904 5.23988-7.8598 3.0361-3.03611 2.95402-6.44727 5.23986-8.73311 2.64561-2.64562 6.04169-2.61993 10.47974-2.61993 5.33305,0 6.50069,2.81369 9.60642,4.36655 2.7144,1.3572 4.33843,5.21175 6.11318,6.98649 2.6682,2.66821 2.99087,5.61081 5.23987,7.8598 3.46491,3.46492 4.35191,8.49649 8.73312,13.97298" fill="#504f55" fill-rule="evenodd"/>
<path d="m523.67343,108.09556c-4.20855,1.05214-2.10866,8.88235-.87332,11.35305 2.05938,4.11875-3.28483.70708-6.11317,0-3.90045-.97511-4.27828-3.07866-9.60643-1.74662-5.82948,1.45737-7.87457-.90287-5.23986,4.36655 2.44455,4.8891-5.67256,1.53029-6.98649.87332-2.73183-1.36592-6.11318-8.4096-6.11318,0 0,4.29433-3.62527,5.27288-6.98649,6.11317-5.55546,1.38887-6.11318.57981-6.11318,6.9865 0,5.6643-1.03673,4.72148-5.23987,2.61993-3.56906-1.78452-6.25374-1.56344-10.47973-2.61993-3.86816-.96704-6.50456-1.94232-9.60642-3.49325-3.7177-1.85885-3.18474-4.0711-7.8598-5.23986-3.64309-.91077-6.10251-3.05126-8.73312-4.36656-3.45049-1.72525-5.48745-2.86753-8.73311-6.11318-3.87952-3.87953-4.81703-4.78939-1.74663-7.8598 4.38406-4.38406-.83096-2.63053-4.36654-1.74663-3.23143.80786-5.00944,3.43564-8.73312,4.36656-4.99553,1.24888-5.87894.06368-6.98648-4.36656-1.23231-4.92917 3.85686-4.6214-2.61995-7.8598-3.62845-1.81423-10.24643-1.46997-14.84628-2.61993-4.54998-1.13749-6.51916-2.5031-10.47975-3.49325-4.0791-1.01978-7.47122-.97045-11.35304,0-3.70173.92543-5.98062,3.4601-9.60642,4.36656-3.43585.85896-6.13339,3.06669-8.73312,4.36656-3.80894,1.90447-8.06406.33452-10.47973-.87332-4.21114-2.10557-6.85129.36906-9.60643,1.74663-5.56006,2.78003-3.57984.95991-.87331-1.74663 2.90378-2.90378 3.73587-3.11724 8.73311-4.36655 6.86491-1.71623-3.54113-1.74662-6.11318-1.74662-5.46242,0-6.50962,1.62741-10.47974,2.61993-5.79881,1.4497-4.85133,1.50423-7.85979,0-2.46807-1.23404 14.92402-3.7714.8733-6.11318-5.20545-.86758-.83475-5.27842.87332-6.98649 1.23874-1.23874-8.07924-.87331-10.47973-.87331-6.83658,0-7.09702-.98383-8.73311-2.61993-.39071-.39071 10.70115-1.74662 12.22635-1.74662 3.83395,0 7.54924-1.88731 10.47974-2.61993 5.42562-1.3564.55291,4.36656 7.8598,4.36656 1.42079,0 4.43119-5.47436 6.98649-6.11318 2.96971-.74243 4.51771,1.05385 8.73312,0 4.74802-1.18701 6.84477.94417 10.47972-.87331 2.70052-1.35025 4.07277-4.65631 6.9865-6.11318 4.79232-2.39616 2.19978,5.30591 2.61993,6.98649 .3138,1.25519 5.92076,2.72357 6.98649,6.98649 .76042,3.04167 5.69144-4.25366 8.73312-3.49324 3.00018.75005 3.56733,2.16475 8.7331.87331 3.39368-.84842 8.0801-.92838 11.35305-1.74662 4.37044-1.09261 2.11476-5.74505 6.98649-.87331 3.57913,3.57913-.57101,5.82767 5.23987,8.73311 3.28878,1.64439 7.6056,1.9014 10.47973,2.61993 3.66278.91569 5.82972,2.91486 8.73312,4.36656 3.066,1.533 3.90972,4.5748 6.98649,6.11318 6.32871,3.16435 2.03895-4.07423.87332-5.23987-4.49581-4.4958 2.9456-5.53961 5.23986-6.11318 3.69881-.9247 13.25052,7.06192 16.59291,8.73311 3.34818,1.67409 6.68417-4.06423 7.85981-5.23987 1.67189-1.67189 9.87243,1.37647 11.35305,1.74662 5.25481,1.3137 8.08184,2.63482 6.98649-1.74662-.85311-3.4124 8.75332.95416 9.60641,4.36656 .39298,1.57189 9.92746.87331 12.22637.87331 1.565,0 6.55675,4.58834 7.85979,5.23986 4.19823,2.09912 5.15339,2.70642 7.8598,0 4.78303-4.78302 5.23987,5.76903 5.23987,6.98649z" fill="url(#radialGradient2417)" fill-rule="evenodd"/>
<path d="m67.80495,382.75197c-5.0503,1.84949-6.488,8.01993-6.26385,12.85648 .2782,4.32143-.22159,9.08941 2.616,12.73389 2.00176,3.17311 7.05063,5.50217 10.0703,2.35479 3.43847-4.37235 2.11422-10.29137 2.25444-15.43093 .23679-5.44762-2.77944-11.68736-8.67689-12.51423z" fill="#4f4f4f" fill-rule="evenodd"/>
<path d="m373.8101,93.16455a10.24137,5.35344 0 1,1 -20.48275,0 10.24137,5.35344 0 1,1 20.48275,0z" fill="#4d4d53" fill-rule="evenodd" transform="matrix(.938,0,0,.938,24.13939,23.54532)"/>
<path d="m387.43688,368.34232c2.09372-3.00057 4.14241-6.96321 5.23986-11.35305 1.32797-5.31186 4.79604-2.63427 6.11318,0 2.00404,4.00808 2.25253,5.55006 6.98649,4.36656 5.85659-1.46414-2.36969-6.4247-3.49324-6.98648-4.72111-2.36056-3.35329-4.50652-.87331-6.98649 3.54396-3.54396 5.04884-1.93765 7.8598.87331 1.25844,1.25844 2.84212,8.30415 3.49324,9.60641 1.55039,3.10078 2.69875-5.95556 1.74663-7.8598-2.58692-5.17381 5.03976-4.85323 6.98649-4.36655 5.93932,1.48483 1.35726,12.13174.8733,13.09967-2.1411,4.28222-2.98008,4.51958-.8733,8.73311 1.87564,3.75129 3.67446,4.51498 2.61993,8.73311-.218.872-10.3809.87332-12.22637.87332-.62907,0-6.50253,5.62922-6.98649,6.11318-3.1474,3.1474-2.37126,4.95937-6.98648,6.11317-4.16548,1.04137-6.17953-3.50983-9.60643-4.36655-3.42314-.85579-4.36655-5.13746-4.36655-8.73312 0-3.39526 1.23705-4.09948 3.49325-7.8598z" fill="#5d5c63" fill-rule="evenodd"/>
<path d="m575.19881,184.94695c1.62187,1.6219 6.84306-.14341 9.60641,2.61994 4.37851,4.3785-3.55085,7.43756-5.23987,7.85981-4.98843,1.24709-4.86517-.99725-6.98649-5.23988-.90217-1.80434-8.5123-2.39912-3.49324,2.61994 4.34225,4.34225.52536,3.49324-5.23987,3.49324-.83559,0 4.36067,5.23398 5.23987,6.11318 .72708.72709-9.34986.56494-10.47974,0-3.93591-1.96795-5.06783-2.80512-6.11317-6.98648-1.25013-5.00047 4.25566-5.29532-2.61994-8.73312-.14562-.0728.6329,5.87276-3.49325,1.74663-4.41574-4.41575 2.36282-6.98649-4.36655-6.98649-5.1008,0-2.52903,3.10204-6.98649.87331-2.11623-1.05813 5.96006-6.83337 6.11318-6.98649 1.07378-1.07379 9.49868-2.12941 10.47974-2.61994 3.03641-1.51821-4.4165-5.43964-5.23988-8.73311-.42946-1.71785 3.52203-.44386 5.23988-.87332 2.04664-.51165 3.11373.49381 6.11318,3.49325 2.15601,2.15603 2.60429-7.87544 9.60642-.8733 1.65954,1.65953-2.53286,5.32693-.87331,6.98648 2.49221,2.49221 4.49967,2.80498-1.74663,4.36656-2.93852.73462 9.68892,7.54346 10.47975,7.85979z" fill="#5f5e64" fill-rule="evenodd"/>
<path d="m700.95562,329.91663c2.74628-2.74627.12633,8.60678-2.61993,11.35304-2.87235,2.87235.79325,8.57299 1.74662,10.47974 1.85807,3.71612.33204,8.06903-.87331,10.47973-1.7518,3.50361-2.77815,7.61935-3.49325,10.47974-.99368,3.9747-2.61992,4.76423-2.61992,10.47974 0,3.25647 6.98648.45967 6.98648,6.11317 0,5.47588 4.36656.27577 4.36656-4.36655 0-3.34133-4.36656-5.96669-4.36656-11.35306v-13.09965c0-2.23267 7.76639,5.05305 3.49324-3.49326-2.29311-4.58621 3.92728,2.61468 4.36656,3.49326 1.69742,3.39482-.87331-7.55752-.87331-11.35305 0-2.01346 3.75502-4.19277 2.61994-8.73311-.13104-.52416-8.33559-9.98284-8.73312-10.47974z" fill="#5f5e64" fill-rule="evenodd"/>
<path d="m624.97754,479.25286c0-3.90557-3.49324,6.98648-5.23987,10.47974-2.14344,4.28688.3686,4.24037 4.36656,5.23986 5.1457,1.28642 5.37127,2.35714 3.49325,6.11318-1.57585,3.15169-3.88596,5.15198-5.23987,7.8598-1.83854,3.67707-5.36362,3.96083-6.98649,4.36656-3.15747.78936 2.91104-5.82208 4.36655-8.73312 2.12841-4.25681-1.32353-7.88693-2.61993-10.47973-1.82217-3.64434-2.03772-6.69546-.8733-11.35304 2.21025-8.84104 8.91154-3.19585 6.11317-7.85981-.87331-1.45552 2.61993,2.66915 2.61993,4.36656z" fill="#69686f" fill-rule="evenodd"/>
<path d="m611.87787,152.63444c-.34082-.56805-8.02775-4.45054-9.60643-5.23986-1.52998-.765-4.10245-7.59571-5.23986-8.73312-2.94035-2.94035-6.00757-4.75041-8.73312-6.11318-3.57194-1.78597-3.518-4.37893-6.98648-6.11318-6.78835-3.39417-5.31081,3.35137-4.36656,5.23987 .85579,1.71156 7.54836,3.77418 8.73311,4.36656 4.46754,2.23377 4.77958,3.08022 1.74663,6.11318-3.37103,3.37102.99592,8.10503 1.74662,9.60642 2.02079,4.04157 2.42194,5.04187 5.23986,7.8598 4.63676,4.63675 4.87308.13971 3.49326-2.61993-1.68921-3.37841-4.42392-3.60795-6.11318-6.98649-2.9063-5.81259 1.91766-5.19711 5.23986-4.36656 1.83227.45807 5.87963,5.00632 6.98649,6.11318 2.26367,2.26366 4.3425,1.57677 7.8598.87331z" fill="#5f5e64" fill-rule="evenodd"/>
<path d="m621.4843,151.32447c-3.44179-4.9826-10.84834-13.26409-7.85981-1.30996 .36001,1.44002 6.40429,1.01887 7.85981,1.30996z" fill="#5f5e64" fill-rule="evenodd"/>
<path d="m179.58879,597.14988c-.94196-3.76785-7.87926-.88305-11.35305-2.61994-5.03976-2.51988-3.3505,4.06417-2.61992,6.9865 1.20556,4.8223 11.11216,3.49323 12.22635,3.49323 4.54226,0 3.35894-3.82901 1.74662-7.85979z" fill="#56555b" fill-rule="evenodd"/>
<path d="m180.4621,578.81034c5.03999,0 4.36655-7.92387 4.36655-13.09967 0-5.09044-3.266-4.33095-4.36655-8.73312-1.24367-4.97468 9.33156.59845 9.60643.87332 2.06868,2.06868 5.8949-1.58287 8.7331-.87332s-2.18164,6.11642-.8733,8.73312c1.13683,2.27367 11.10474-1.68455 11.35304-1.74663 4.73803-1.18451-.95389,5.32047-1.74662,6.11319-3.18037,3.18037.18605,5.61196 1.74662,8.73311 2.61564,5.23127-.92189,6.12533-4.36655,6.98649-1.97599.494-5.47399-6.58143-6.11319-7.8598-1.55621-3.11244-4.98788-4.11457-6.98649-6.11318-2.98033-2.98033-3.83326,1.55337-5.23986,4.36656-.99147,1.98293-4.05476,1.79656-6.11318,2.61993z" fill="#6b6a71" fill-rule="evenodd"/>
<path d="m223.25435,571.82385c-2.30531,4.61062 6.34935,6.17222 9.60642,6.98649 3.40071.85018-.02312-7.07904-.8733-10.47973-2.05649-8.22596-5.8123,4.0774-8.73312,3.49324z" fill="#6b6a71" fill-rule="evenodd"/>
<path d="m251.20032,568.33061c-1.05905-4.23618 6.57416,5.90701 10.47973,7.8598 3.04327,1.52162-1.66453-5.19883-3.49324-6.11318-3.04233-1.52117-2.46964-1.74662-6.98649-1.74662z" fill="#6b6a71" fill-rule="evenodd"/>
<path d="m259.93343,586.67013c-5.44772-2.72384-7.62214-1.66928-6.11318,4.36657 1.0617,4.2468 8.06039.3865 9.60642,0 3.28729-.82183 6.52022,4.13342 8.73312,5.23987 3.50553,1.75276 8.79318-1.77666 10.47973-2.61994 2.82187-1.41094-4.37625-2.18812-6.98649-3.49324-4.16324-2.08162-5.62966-3.49326-10.47973-3.49326h-5.23987z" fill="#6b6a71" fill-rule="evenodd"/>
<path d="m193.56177,608.50293c-5.00588,0-5.23986-3.32626-5.23986,6.11318 0,5.16004 3.97127,6.82099 5.23986,1.74661 .44229-1.76913 0-6.63617 0-7.85979z" fill="#6b6a71" fill-rule="evenodd"/>
<path d="m142.90972,554.35762c.63149-2.52597-6.98649.88954-6.98649,3.49325 0,1.92735 6.70544,4.6627 7.85979,5.23986 2.6167,1.30836-.29956-5.86436-.8733-8.73311z" fill="#6b6a71" fill-rule="evenodd"/>
<path d="m142.90972,577.06372c3.39482,1.69742-4.41576-6.2116-6.11318-9.60642-3.59324-7.18649-4.85437,2.41532-4.36656,4.36655 1.13541,4.5416.07654,4.56575-2.61993,5.23987-4.23618,1.05905 9.35537,2.24658 13.09967,0 2.79083-1.6745-1.41084,8.81705 1.74662,9.60641 5.23326,1.30832 3.42798-6.6495-1.74662-9.60641z" fill="#6b6a71" fill-rule="evenodd"/>
<path d="m152.51614,512.43869c1.80832.45208-3.94532,2.55822-3.49324,4.36655 .46382,1.8553 7.61084,3.80542 8.73311,4.36656 1.40675.70338 2.39056,9.56223 2.61994,10.47973 .68347,2.73391 4.36655,8.75759 4.36655,1.74662 0-5.24764-1.9091-6.43813-3.49325-9.60642-2.23228-4.46456-3.19472-6.92232-8.73311-11.35304z" fill="#6b6a71" fill-rule="evenodd"/>
<path d="m80.90462,461.78663c-1.45552-2.91104 1.20909,7.94375 4.36656,8.73311 6.08214,1.52054-4.42052-9.00293-5.23987-13.09967-.793-3.96499-4.25055-5.88116-6.11318-9.60642-3.08098-6.16196-9.09816-.36505-1.74662,6.98649 2.8892,2.8892 4.75693,3.80554 8.73311,6.98649z" fill="#6b6a71" fill-rule="evenodd"/>
<path d="m130.68336,451.3069c1.95278,1.95278-3.85498,5.3897-2.61994,7.8598 2.06779,4.13556 2.02054,5.83927-.87331,8.73311-1.6672,1.66719 3.36315,8.38018 5.23987.8733 1.27556-5.10221 1.36157-5.92064 5.23986-7.85979 .71185-.35591-5.20192-6.63215-6.98648-9.60642z" fill="#6b6a71" fill-rule="evenodd"/>
<path d="m53.39531,371.83558c-5.99538,5.40101-1.51446,10.72573-.87331,12.00802 .72776,1.45553 3.65252-1.68757 4.80321-2.83826 1.22346-1.22346-.73017-5.39024-.87331-5.67653-.93353-1.86707-.16082-2.33493-3.05659-3.49323z" fill="#56555b" fill-rule="evenodd"/>
<path d="m446.822,162.24086c-2.02861,3.49233-.05393,9.18325-5.23986,10.47974-1.72067.43018-8.74706-3.06356-9.60635-3.49325-4.18866-2.09432-2.22325-4.90239-7.8598-3.49323-2.69028.67255-2.13836,9.42654-2.61994,11.35304-.8531,3.41228-.82881,8.03808 0,11.35305 .62771,2.51106 4.68814,5.56148 6.11314,6.98649 2.94589,2.94586 4.37184,5.26085 5.23988,8.73311 .81183,3.24728 1.13479,8.90585 1.74664,11.35304 .13733.54932-3.88848,7.77692-4.36658,8.73311-2.58063,5.16131-7.17712-1.06395-8.73308-2.61993-2.58306-2.58305-4.79046-4.25419-8.73317-5.23987-3.31348-.82836-5.12674-4.33826-8.73308-5.23986-5.08837-1.2721-7.03332,1.93402-7.85979,5.23986-1.3314,5.32557 3.19596,5.81589 5.23987,7.8598 3.54442,3.54441 2.90415,4.95561 0,7.8598-2.65474,2.65472-8.18407-3.81743-8.73317-4.36655-2.09606-2.09608-2.89711-7.22206-3.49322-9.60642-.76371-3.05475-5.63326-3.01336-7.8598-5.23987-3.07889-3.0789.21284-9.15882.87328-10.47974 2.37399-4.74795 14.94218-.87332 19.21291-.87332 3.09446,0 3.34537-5.60259 6.11314-6.98648 5.63354-2.81675 2.68991-.87331-3.49322-.87331-3.26105,0-6.77715,2.78593-9.60644,3.49324-5.75482,1.43871-2.47642-6.40028-1.74665-7.85979 2.40925-4.81852 1.87027-5.98955-.87328-8.73312-2.26424-2.26425-6.49988.77664-9.60646,0-2.81203-.70301-5.42043-4.5471-6.98642-6.11318-2.91127-2.91127-5.48046-3.73385-7.85979-6.11318-3.66299-3.66296 2.92515-6.26581 4.36649-6.98649 3.20158-1.60077 7.2424-1.74662 11.3531-1.74662 5.35299,0 6.11314-1.89382 6.11314-6.98649 0-4.7773-3.3693-5.23986 4.36659-5.23986 3.45756,0 5.66253,3.38058 9.60636,4.36655 1.16968.2924 7.0578-2.61994 10.47982-2.61994 4.5751,0 7.75277-.44543 8.73307-4.36656 1.86166-7.44647 5.9988,3.90905 6.11314,4.36656 1.52642,6.10572.0879,6.20103 3.49332,9.60644 3.26424,3.26431 5.69723-4.44955 6.11314-6.11319 1.1998-4.79923 7.65156,4.40706 7.85979,5.23987 .36001,1.44003.58223,2.91104.87328,4.36655zm-51.92814,45.41221c0,2.41035-2.55812,4.36657-5.71008,4.36657s-5.71019-1.95622-5.71019-4.36657 2.55812-4.36655 5.71019-4.36655 5.71008,1.95622 5.71008,4.36655zm23.98226-20.74116c0,2.77189-1.76063,5.02153-3.92994,5.02153s-3.92986-2.24964-3.92986-5.02153 1.76064-5.02154 3.92986-5.02154 3.92994,2.24966 3.92994,5.02154z" fill="#a8a7aa" fill-rule="evenodd"/>
<path d="m1237.0215,97.76867a11.85013,7.90008 0 1,1 -23.7002,0 11.85013,7.90008 0 1,1 23.7002,0z" fill="#959595" fill-rule="evenodd" stroke="#b9b9b9" stroke-width="2.11833" transform="matrix(.9164,.20013,-.20013,.9164,-638.3873,-218.7429)"/>
<path d="m1237.0215,97.76867a11.85013,7.90008 0 1,1 -23.7002,0 11.85013,7.90008 0 1,1 23.7002,0z" fill="#a7a7a7" fill-rule="evenodd" stroke="#cacaca" stroke-width="1.6096" transform="matrix(.59641,.8946,-.91507,.56892,-94.25593,-952.2113)"/>
<path d="m1237.0215,97.76867a11.85013,7.90008 0 1,1 -23.7002,0 11.85013,7.90008 0 1,1 23.7002,0z" fill="#959595" fill-rule="evenodd" stroke="#b9b9b9" stroke-width="3.89438" transform="matrix(.54745,.39622,-.40283,.58267,-162.8355,-400.4167)"/>
<path d="m1237.0215,97.76867a11.85013,7.90008 0 1,1 -23.7002,0 11.85013,7.90008 0 1,1 23.7002,0z" fill="#cacaca" fill-rule="evenodd" transform="matrix(-.34151,1.01428,-.77321,-.36335,1178.013,-773.0684)"/>
<path d="m1237.0215,97.76867a11.85013,7.90008 0 1,1 -23.7002,0 11.85013,7.90008 0 1,1 23.7002,0z" fill="#cdcdcd" fill-rule="evenodd" transform="matrix(-.49894,.94681,-.70534,-.48205,1339.567,-612.7228)"/>
<path d="m1222.5381,289.6749a6.91257,6.25423 0 1,1 -13.8252,0 6.91257,6.25423 0 1,1 13.8252,0z" fill="#e7e6e8" fill-rule="evenodd" stroke="#a9a9a9" stroke-width="3.62217" transform="matrix(.62533,0,0,.69116,-304.6393,93.68646)"/>
<path d="m464.86869,476.45167c-.79429,1.15747-1.87328,2.07806-2.84514,3.08052-1.36338,1.38589-2.79186,2.76751-3.73456,4.48851-.4433.82358-.758,1.94919-.13807,2.76746 .63146.66442 1.66533.59643 2.49067.43441 2.53965-.55556 4.7446-2.66847 5.15882-5.27349 .38712-2.27889-.4084-6.04909-.93172-5.49741z" fill="#ececed" fill-rule="evenodd"/>
<path d="m501.84738,541.52514c4.70295-2.35151 7.55097-4.65914 11.11551,0 2.94701,5.8942-8.3485,7.64483-12.35047,8.64535-5.4059,1.35145-8.90164,3.83328-13.58556,6.17524-5.74394,2.87196 2.2908-4.85055 4.94018-6.17524 4.43487-2.21745 5.17739-6.29385 9.88034-8.64535z" fill="url(#radialGradient2378)" fill-rule="evenodd"/>
<path d="m545.69169,392.70178c3.55917-1.75973 4.46049,8.80402-.60003,11.71933-4.51263,4.96974-13.63817,4.9664-15.41596,12.45454-2.08612,5.59643-4.26669,12.299 1.00178,16.96968 2.6387,5.6915 8.87191,5.74098 14.26194,6.35602 7.36548-1.36969 8.95604,6.65603 12.66003,11.17322 5.40963.32584 10.72432-16.17144 17.73423-5.69018 4.69357,3.3756 3.65695,13.42519-1.2776,15.13416-4.52079,2.20396-10.78715-1.82015-12.66812,3.46065 .18619,4.72969-4.23234,12.36594-4.07442,19.2711 3.95058,4.45023 1.77299,1.07094 2.1708,7.68413 2.05197,4.43328 6.57269,10.22677 1.43451,11.84956-5.3801,3.00701-6.68852,11.6679-11.88945,14.953-4.36828,4.62609-10.27647,7.31357-14.71003,11.85737-3.49902,2.59917-11.52692,6.94035-14.42488,3.56797 3.4149-4.77604 8.29607-8.33603 12.58358-12.30152 4.72884-2.67736 8.33603-6.83554 12.99705-9.56257 4.37043-2.2661 8.5707-8.71142 5.10919-13.24945-3.81597-3.80091-11.51443-4.28944-12.07957-10.77583-2.29999-6.64719 5.25637-10.68427 4.71682-17.06312 .26921-3.24395-2.93106-13.49161-4.92722-5.72621-.4161,3.94619-5.24034,6.49725-5.97873,1.13541-2.73024-5.97127-1.22034-14.13095-6.37625-18.78807-5.21792-.85985-10.69951,1.12747-16.02248,1.38225-6.87996,1.72495-9.17431,9.02113-12.56669,14.33575-6.59096,3.92834-6.34136-8.93499-5.91719-12.97239 .52809-4.50317-1.14502-16.01617 6.77649-11.86953 4.64377,2.20426 14.0161,9.2367 14.99011-.35295 2.44547-6.63697-1.57762-12.62145-8.52089-13.22504-7.21558-1.95863.16105-10.34648 2.34153-13.92382 4.04626-3.38587 4.48393-9.86613 9.23181-12.37679 5.76543-1.15768 11.31146,2.13555 16.98815,1.80581 3.90209-1.1763 8.53908-6.0856 12.45149-7.23248z" fill="#ececed" fill-rule="evenodd"/>
<path d="m480.41504,363.09727c-2.21499-2.87501-11.8554-7.56406-13.69791-7.78198-2.5601-.16681-5.13116-.37928-7.64247-.90768-.85058,1.28119.0288,3.10865.18075,4.5559 .68371,3.15915 1.08724,14.49491.23582,16.99712-.85396,2.24473-1.55661,4.6232-1.46394,7.04627 .92252,1.92467 8.08482,7.54855 10.21306,8.60369 1.84138.38369 2.62649-1.79146 3.26592-3.10773 1.07449-2.23653 6.95482-6.68319 8.33669-7.66548 2.57162-1.45544 2.91005-4.77721 2.74656-7.43471-.13169-2.24488-1.66336-9.34887-2.17448-10.3054z" fill="#ececed" fill-rule="evenodd"/>
<path d="m460.47331,422.34295c2.03435.38417 1.9624,3.11513 1.52144,4.7087-.80058,3.20352-9.84667,7.48422-10.52213,8.93214-1.52846,4.07714-2.13939,8.43851-2.20148,12.7743-.12907,2.43452-9.05565,6.54282-10.37045,4.67106-.41057-2.21647 5.85331-14.07235 6.13546-18.50037 .54573-4.36292-1.35559-8.46985-2.09221-12.67904-.46121-4.98135 1.89936-9.65826 4.20412-13.90429 1.9442-1.50403 10.88513,9.97511 13.32525,13.9975z" fill="#ececed" fill-rule="evenodd"/>
<path d="m438.24239,482.86034c.60811-.68616.14399-1.73762-.80593-1.31674-2.37089.5979-4.55249,1.75543-6.84544,2.58282-2.32033.83434-4.74882,1.79518-7.26088,1.54381-1.28657-.20737-2.36489-1.01879-3.50147-1.60422-1.8139-1.04099-3.64958-2.41318-4.28413-4.50329-.35241-1.18123-.72264-2.37932-.86897-3.60355 .30758-1.09763 1.60999-.00254 2.22663.33888 3.14953,2.08731 6.00181,4.71059 9.53704,6.15223 1.53973.65492 3.23638.33492 4.85603.41006h6.94712z" fill="#ececed" fill-rule="evenodd"/>
<path d="m328.32305,596.48484c-5.77209-7.22004-13.39757-19.55421-20.99576-27.78862-9.57531-9.49357-16.35696-21.16564-22.04004-33.27347-6.10217-8.68171-10.95295-24.96713-17.995-29.28841 .65866,6.50138-8.46171,10.46596 2.13865,13.49867 11.0142,4.82207 6.24034,19.40075 15.78318,25.22337 5.12506,10.73501 11.74501,20.86598 18.97062,30.38737 4.99439,6.00309 18.95824,16.45549 17.89285,20.8109-4.71214-11.76695-18.57871-18.1534-30.54161-18.57028-9.39221,4.41039 9.51603,9.25623 14.11739,7.45236 6.05105-.0207 18.31646,11.07551 5.846,5.90927-7.20864,5.50201-14.80607-6.53808-20.81303-1.43237 2.01773,3.72221 18.299,5.39011 14.15547,7.41953-4.97854.1379-17.23606-8.45515-16.63555.29567 6.12965,3.74554 15.97548,1.11901 20.50631,5.79073-3.50822,5.39339-8.78523,4.67425-13.30931,7.56065-1.22109,9.33839 17.80703.62158 7.85333,8.65477-10.86122,10.61845 12.03419-.06328 10.91121.53302-6.24128,7.37481 2.81898,5.1496 5.55644,4.85882-4.6675,10.10439-11.70279,18.63644-17.33718,28.15271-6.66788,8.16812-11.82913,17.60092-19.76079,24.70097-3.66533,7.88423 7.12281-3.22506 9.10838-5.31151 10.931-6.64881 17.59719-18.23751 24.23796-28.65233 3.49903-6.01706 8.02986-13.97922 11.83636-18.37258 6.12956,8.70393-.5189,19.47844 1.74918,30.10554 8.90146,6.35105-2.30214,17.57361 2.39688,23.30398 15.5167.75094 9.82698-16.25478 9.34944-25.507-1.563-5.91277 4.18573-11.18631 6.2272-3.16612-.61777,5.45234 3.51676,9.63398 3.50578,1.85993-.19275-5.20975.58795-8.21363 2.11463-1.15469 1.44087,3.96417 10.35264,18.71159 8.51735,5.89895 .09632-6.57015-10.3895-16.6775-2.35167-21.21485 7.12956,4.02032 12.75776,9.04616 6.07872,16.73222-7.07206,3.45631 6.01662,14.7826 9.50299,7.18475 6.75679,1.24293 9.0126-4.35638 11.26267-8.41694 8.01176,7.0539 22.67282-.26513 27.32568-7.01707-3.74019.49242-14.14703-4.4109-4.26903-2.70622 4.15113,1.68597 14.95399,3.67265 6.49857-2.28694 1.11041-5.20465 14.3789,1.15718 19.73471.44346-.26977-6.91324-14.54006-3.67671-10.29598-13.94808-2.67583-6.11348-13.06167,11.77285-12.04797-.80255-3.55644-7.83087-7.14916,3.46859-5.22345,6.9743-6.98249-3.77856-6.56366,11.71287-8.09383,1.59079 2.08508-5.11967 7.6388-14.57824 3.45344-19.07276-4.35055,5.00831-13.91075,4.12333-18.34684,2.0087 10.8765-.15676 21.46551-3.02511 31.81138.97692 8.84724-.099 12.66181-6.43571 17.85956-11.59241 6.81364.48329-2.94261-17.02685-5.31978-7.14515-3.04616,10.96809-12.1067,7.30458-19.41223,3.9497-2.75932,2.4151-14.62401,5.17718-13.53996,2.50145 8.72745-2.94411 20.95618-1.89197 26.93209-7.85375-1.67987-2.80786 5.67247-8.4563.63775-7.82133 5.27138-6.8405 9.46246,6.79872 14.37618-2.88201 11.7587-3.73404 24.80752-4.77707 35.78374-10.12928 6.23414-5.46638 23.09904-7.87895 22.94558-15.65939-10.881.86816-19.71398,13.76231-32.21848,13.25003-11.06176,5.73328-23.02081,10.93063-35.7737,10.68607-4.27212.27104-16.46164.40643-5.55774-2.4701 9.05968-.60234 22.23579.98128 27.50792-8.01922-3.49406-7.32884-20.32509,8.68969-22.39479.38692 8.10508-7.12731 16.70338-13.34756 24.97786-20.0549 6.32898-4.37056 20.15268-10.17639 9.32083-17.48736 5.56282-7.99939 31.58607-5.60056 24.21001-20.54109-12.46191-10.0973-13.46371,12.19021-23.3796,12.75511-4.38901-4.10384-17.21458,1.44542-13.17751-7.87351-8.15143-2.82329-19.78387,12.86323-4.83381,11.4321-.10111,5.57142 6.06053,15.95864 10.48395,11.03509-2.47239-9.10003 10.26634-3.42672 2.48401,1.93292-5.49744,3.97699-11.77998,11.7748-18.50001,6.72199-7.70315,3.4631-7.84488-2.8352-3.2634-6.87748-7.13922-3.79453-15.4653,2.65313-15.10483-9.78648-5.93886-.7007-17.80702,1.59175-8.21099-6.73118 10.12629-7.03025 11.70983-19.58241 19.85516-28.21096 5.31415-2.71037 8.81871-13.4484-.43054-7.82293-5.7388,7.20314-6.23791,24.29121-16.01554,25.22284 .48879-10.59336-8.72098,7.78227-5.14551-3.59773 2.5176-4.77078.51966-10.14026-1.5447-2.41116 1.5448,8.17406-13.50375,15.50523-7.38028,21.57712 6.46067-.35999-5.32344,18.00561-6.62924,4.50568-1.33693-3.93122-.58362-13.97061-6.17523-6.17524-1.77649,10.04175-10.96984,3.56238-7.10161-4.10122-1.90415-7.28434 5.89364-15.51734 4.9367-20.79902-9.09843,8.48065-6.81684-9.06393-14.04949-6.54372-2.64413,9.47476 14.37928,11.43533 7.70775,22.4309-2.56516,12.91316-3.97929-10.17777-10.18407-.52344-8.72004,1.70783-5.29802,17.78142-16.89538,14.6642-2.20759-9.74998-8.25498-4.56663-8.51199,2.44409-6.43328.60844-7.87575-9.17428-15.18428-3.24913-4.95002-1.45705-8.04402-5.49178-9.88034,2.47011-4.76205,1.7655-13.71715-6.93459-13.18549,4.20509 .13375,8.20796 11.69753,4.32155 10.77867,13.635 5.66871,3.33799 1.40456,1.22465.13048,3.7548 6.25215,3.77407 15.66284,11.41308 9.98258,19.09157-7.68289-8.36713-17.53828-14.62926-21.90937-25.86588-7.82237-8.74348-9.04768-21.15811-15.62195-30.71649-12.71602-7.04704-4.67856-20.14974-9.07901-31.03594-6.79095-10.16234-15.01056,5.86738-5.72782,10.07051 5.28949,9.7034 10.21691,18.91211 14.99068,28.83352 2.88257,11.313 9.72614,20.74636 15.43163,30.69309 6.43253,7.97925 15.74117,14.08453 20.02558,23.62105-9.38714-5.86436-14.07237-16.42384-22.48915-23.43792-1.11406-2.52978-9.08295-14.89055-8.32477-8.39151 6.5254,10.48523 15.95757,18.5859 23.03254,28.65749 1.65933,5.57972 9.8447,8.9834 9.37561,14.93293z" fill="url(#radialGradient2371)" fill-rule="evenodd"/>
<path d="m523.12723,157.76315c.95526,7.03103-3.43581,13.41499-1.71439,20.40433 .04109,7.0161 1.8488,15.00121-3.50981,20.63167-3.73813,5.49945-4.50776,12.11995-6.18313,18.38502-1.6686,4.79391-3.92449,9.35032-4.81991,14.39468-2.67518,5.48639-2.49002,11.7595-4.31528,17.51771-.95245,5.0786-1.06154,10.28784-1.33168,15.43386 1.33271,3.30391 2.59986-5.0018 3.4102-6.43272 1.50427-6.11854 5.2378-11.46108 6.34127-17.65125-.26433-6.3572 4.75951-11.24041 5.37042-17.49913 1.64245-5.1622 4.47568-9.83956 5.97696-15.05802 2.39068-6.09997 1.761-12.92785 2.99382-19.31405 1.25476-6.37355 1.87731-12.77123 2.21096-19.23794 1.18966-6.77475 1.81822-13.62054 2.70491-20.44469 1.86531-6.63445 1.2906-13.63984 3.45278-20.18532 .35861-2.29537 3.7567-11.76666.2059-5.83533-2.80022,5.9657-4.44838,12.45914-6.35947,18.77062-.55173,1.69161-6.11436,8.39075-4.43355,16.12056z" fill="#e3e3e3" fill-opacity=".44643" fill-rule="evenodd"/>
<path d="m362.08721,549.22559a1.39897,.82293 0 1,1 -2.79795,0 1.39897,.82293 0 1,1 2.79795,0z" fill="#54535a" fill-rule="evenodd" transform="matrix(6.51084,0,0,8.81722,-2020.984,-4298.028)"/>
<path d="m1222.5381,289.6749a6.91257,6.25423 0 1,1 -13.8252,0 6.91257,6.25423 0 1,1 13.8252,0z" fill="#e7e6e8" fill-rule="evenodd" stroke="#a9a9a9" stroke-width="3.62217" transform="matrix(.62533,0,0,.69116,-252.1501,172.7296)"/>
<path d="m1222.5381,289.6749a6.91257,6.25423 0 1,1 -13.8252,0 6.91257,6.25423 0 1,1 13.8252,0z" fill="#e7e6e8" fill-rule="evenodd" stroke="#a9a9a9" stroke-width="4.11997" transform="matrix(.48335,0,0,.69116,-53.61561,91.21640)"/>
<path d="m1237.0215,97.76867a11.85013,7.90008 0 1,1 -23.7002,0 11.85013,7.90008 0 1,1 23.7002,0z" fill="#959595" fill-rule="evenodd" opacity=".65803" stroke="#b9b9b9" stroke-width="3.89438" transform="matrix(.67532,2.531968e-2,-1.124810e-2,.70827,-488.0738,126.9378)"/>
<path d="m1222.5381,289.6749a6.91257,6.25423 0 1,1 -13.8252,0 6.91257,6.25423 0 1,1 13.8252,0z" fill="#94939a" fill-opacity=".65476" fill-rule="evenodd" transform="matrix(.83831,0,0,.96578,-707.4206,225.0190)"/>
<path d="m1222.5381,289.6749a6.91257,6.25423 0 1,1 -13.8252,0 6.91257,6.25423 0 1,1 13.8252,0z" fill="#94939a" fill-opacity=".65476" fill-rule="evenodd" transform="matrix(.83831,0,0,.96578,-719.1539,170.9856)"/>
<path d="m1222.5381,289.6749a6.91257,6.25423 0 1,1 -13.8252,0 6.91257,6.25423 0 1,1 13.8252,0z" fill="#94939a" fill-opacity=".65476" fill-rule="evenodd" transform="matrix(.83831,0,0,.96578,-724.0940,173.4557)"/>
<path d="m1222.5381,289.6749a6.91257,6.25423 0 1,1 -13.8252,0 6.91257,6.25423 0 1,1 13.8252,0z" fill="#94939a" fill-opacity=".65476" fill-rule="evenodd" transform="matrix(.83831,0,0,.96578,-716.6837,217.9175)"/>
<path d="m1222.5381,289.6749a6.91257,6.25423 0 1,1 -13.8252,0 6.91257,6.25423 0 1,1 13.8252,0z" fill="#94939a" fill-opacity=".65476" fill-rule="evenodd" transform="matrix(.83831,0,0,.96578,-799.4321,191.9815)"/>
<path d="m1222.5381,289.6749a6.91257,6.25423 0 1,1 -13.8252,0 6.91257,6.25423 0 1,1 13.8252,0z" fill="#94939a" fill-opacity=".65476" fill-rule="evenodd" transform="matrix(.83831,0,0,.96578,-424.8178,156.8980)"/>
<path d="m78.28468,480.12617c.44872,2.21742 3.89308,9.53277 5.23987,12.22635 3.45848,6.91697 6.21071-1.06838 6.98649-2.61992 1.87767-3.75536 9.9097,6.41645 10.47973,6.98649 3.01751,3.01749 7.92824-.90754 9.60644-1.74663 4.80954-2.40477 8.92219-.96785 3.49323,1.74663-4.18707,2.09353-3.51904,5.18826-1.74662,8.73311s1.32831,7.89647 2.61994,10.47972c1.47204,2.94408-4.40604,3.49326-7.8598,3.49326-3.94868,0-6.65747-3.02816-9.60643-5.23986-1.74144-1.30609-7.55455,3.77727-8.73311,4.36655-2.70449,1.35224-3.25361,10.56496-5.23986,2.61994-.61682-2.46728 5.27992-5.68655 6.98649-6.11319 5.19647-1.29913 3.77387-4.95138-.87332-6.11318-5.42843-1.35711-1.28728-3.95259.87332-6.11317 2.22652-2.22652-5.63329-3.01336-7.85981-5.23987-2.87099-2.871-3.35938-4.70442-4.36656-8.73312-1.39635-5.5854 1.55491-.95858 0-8.73311zm16.59292-42.79225c-.0497-.19877 6.09173,6.9436 6.98649,8.73311 2.11456,4.22912 4.3109,8.51048 5.23987,12.22636 1.65733,6.62929-3.29497-.67503-4.36656-1.74663-3.74237-3.74236-5.51624-3.35506-8.73312-1.74662-7.42968,3.71485-1.61036-4.50281-.87331-5.23986 2.72273-2.72274 1.74662-7.68977 1.74662-12.22636zm413.2805-375.76858c71.96637,29.72991 127.05483,80.86572 161.57298,138.98043-9.8024.91283-17.19885-6.45847-23.23301-13.40805-5.6585-6.13972-4.95855-20.17736-14.77616-20.61272-7.1924,5.42572-.31732,13.80531 3.194,19.20019 4.40016,6.11382-3.87235,12.50407-6.17524,3.70514-5.09889-8.46707-5.57745-18.84541-11.52017-26.85295-4.06698-8.64957-8.21679-17.81662-16.96403-22.72115-7.14635-5.54522-16.21468-8.06781-23.89156-12.84183-9.4348-.97224 2.00985,12.52953.0317,17.49041-4.77846,5.28856-5.39182-14.81091-8.36707-4.03443-.53166,3.11757-2.12316,8.32744-1.36413,1.71365 .50539-7.04057 1.61881-15.78847 9.13623-17.85408-1.3027-11.30698-15.80251-1.96148-20.2842-11.18464-5.492-5.71218-14.10369-4.07136-19.72438-3.18399-.31968,11.25025-10.32431-3.17707-11.47608-7.24539-6.87912-3.7187-13.68929-8.84831-20.28288-12.14168-2.982,2.69023-18.33352,5.96402-9.74912-.82852 3.95874-3.01163 13.01562-8.33295 2.64132-6.77271-8.63843-.44246-17.29253.54285-24.65997,5.40678 3.61253-6.80808 10.16953-13.58718 18.72073-11.60335 7.41903.94325 19.21956,1.5284 16.87643-9.43101 .32961-1.71457-.06023-4.07081.29461-5.7801zm-297.91807,15.32573c64.26896-34.78467 153.18966-57.1362 252.50542-30.4615-8.10153,1.567-23.31818,11.63608-30.5634,5.00338-6.48244-3.61601-18.44271-2.15137-13.164,7.70497-6.32055,3.4208-15.63687-6.937-21.23149.61231-1.97965,3.77039 8.52071,9.30506-1.27005,8.63117-9.93401,2.24757-8.83223-12.8717-18.58584-9.3446-10.69904-.75854-4.0776-12.14769 3.71317-11.32445 6.30356-.05033 6.2152-4.98247-.20824-5.01619-5.09344-1.1169-22.51617-5.73851-14.09573,4.30685-2.97384,3.29776-16.02313,1.00216-7.62539,7.25091 4.39942,8.08324-12.39306,5.05638-10.09486-1.91398-6.89657,1.28095-10.82689-1.25747-5.73419-6.56166-8.65551-.55875-17.3399,2.302-26.11162,1.87069-10.88993,1.81191-20.58135,8.04615-31.71374,9.46544-15.22809-.14249 1.071,16.93998-10.24918,22.13892-7.07515,4.37183-16.05483.52568-23.61868,3.61872-8.91312,1.81633-18.09412,4.16712-24.00569,11.68585-5.49941,4.16869-20.66187,8.92219-17.08169-3.58622 .23729-3.80072-.07207-10.29848-.8648-14.0806zm502.34053,237.55049c-7.0032-41.43123-22.93575-80.7102-39.22835-107.81099-1.4463-5.04969-12.13173-3.3828-12.66771,1.44384-1.95621,4.52535 5.4028,8.59206 2.23676,12.24261-3.66121.54225-6.12111,3.19247-2.04165,5.82888 3.66271,3.7883 8.69968,5.58751 12.94263,8.52783 3.39838,2.40123 5.32598,8.13677-.42735,8.78195-4.50156,2.52923-2.77057,9.3376 2.02843,10.35785 3.9488,2.09604 9.27412,1.41745 12.29617,5.08422 2.91099,4.81373.17362,10.89199 3.0455,15.7741 2.84421,4.96211 1.89645,10.74262 3.01802,16.12206 1.03734,6.11029 1.7686,12.90429 6.68636,17.29593 2.88192,3.61206 7.97967,4.55404 12.11119,6.35172zm-33.2029,205.98181c7.14954-3.57477-10.01074,12.61123-13.58555,19.76077-2.45335,4.90664-5.18575,8.89093-8.64538,12.3505-4.18818,4.18822-4.90612,6.15822-9.88034,8.64535-6.22299,3.11149.40344-9.04877 1.23506-9.8804l9.88035-9.88039c3.44406-3.44405 5.58111-7.45712 7.41031-11.11544 2.57828-5.15655 6.99261-7.24322 13.58555-9.88039zm-55.57717,35.81641c2.21697-4.43395-5.4465,8.89847-9.88043,11.11544-5.13444,2.56722-7.41031,6.36539-7.41031-3.70514 0-4.02645 5.15732-10.09752 7.41031-12.35049 3.44406-3.44406 7.45711-5.58113 11.11541-7.41029 3.7006-1.85028.30156,8.50903-1.23498,12.35048zm24.70096-22.23087c4.78681-2.39343-4.87723,9.6285-6.17524,14.82058-1.44846,5.79377-6.25046,6.17524-12.35048,6.17524-1.652,0-5.61918,9.60234-8.64537,11.11544-7.28348,3.64175-8.66967,7.3616-6.17524,12.35049 2.68062,5.36127 10.43415-4.25886 11.11541-4.9402 3.7734-3.77341 4.22974-7.93487 7.41031-11.11543l9.88045-9.88039c2.51749-2.51754 4.00263-9.83536 4.94016-13.58554 .3994-1.59756 0-3.29346 0-4.94019zm-451.7552,127.32934c95.64595,58.00465 216.27982,65.74336 320.90436,19.21287-6.83859-2.06874-19.13008-5.91098-28.55137-3.33292-9.34447.57242-12.19411,16.74955-24.71025,11.21513-7.45814-7.63227-19.24573-3.16842-27.17334-8.31887-5.38638,1.98543-10.75625,7.57996-14.0144,1.15667-9.78327.37051-18.03186,7.89956-27.37745.73347-11.87483-5.21127-14.07941,5.2-7.06522,8.79998-10.16419,2.27034-22.03432-3.22617-28.17457-11.15221 1.5735-6.05748 2.05432-16.47839-7.24728-12.65069 .31788,8.22053-8.02864,12.42042-12.15031,15.39214-8.19823-10.6596-16.70628-1.50563-24.06678,4.34688-10.14712,1.73158-19.32893-7.77607-29.7248-2.81233-7.25272,2.91184-13.98355-1.59031-12.03897-9.57353-6.89469-.41935-23.10693-6.5899-11.05585-13.45324-10.01589-2.42914-21.17721-.23605-29.39358-7.84637-3.67699-4.09505-21.75287-6.92882-11.25132.66752 9.48326,1.56871 15.76126,17.08968 1.55493,14.26332-10.32511,1.62833-19.13062-16.1768-28.4638-6.64782zm408.14516-269.41652c-3.17354-.79338-7.57746-3.23693-8.73317-7.8598-.89514-3.58076.91999-8.04651 1.74666-11.35305 .77666-3.10653-6.49988.77664-9.60646,0-4.15562-1.03891-3.48045-4.41776-5.23986,2.61993-1.31845,5.27384.84692,7.91267-.87328,11.35305-.93715,1.87439-6.55748,3.93758-7.85979,5.23987-3.77152,3.77154-.96689,6.89291.87328,8.73312 .18496.18495 8.3498-4.95242 8.73316-5.23987 3.71928-2.78947 5.05546-2.2511 6.98643-6.11318 1.44893-2.89776 8.56639,5.94644 8.73317,6.11318 3.70295,3.70296 5.23986,3.34274 5.23986-3.49325z" fill="#fbfbfc" fill-rule="evenodd"/>
<path d="m566.90234,111.58881c.78541-2.70784-7.6035-9.05236-11.7897-8.73311-5.30415.40451-.79684,5.4554 0,6.11318 8.5507,7.05831 12.08081,4.07545 11.7897,2.61993z" fill="#5f5e64" fill-rule="evenodd"/>
<path d="m615.16319,275.98968c.28487,1.13974 6.00949,4.77449 7.41021,6.17526 1.27484,1.27481 4.74263,3.29758 6.79282,4.32266 2.29688,1.14843 3.94946,2.71441 5.55776,4.32267 2.18788,2.18789 3.39631,4.11675 4.94017,6.17524 1.27971,1.7063 1.23506,5.22585 1.23506,8.02782 0,3.02606-2.47013,3.67209-2.47013,7.41029 0,1.65954 4.53768-.99247 4.94018.61752 .53888,2.15562 2.2481,4.49615 3.08761,6.17526 1.69853,3.39695-.05525,4.954-2.47003,5.5577-2.47013.61753-.05225,5.60993-1.85265,7.41029-2.04391,2.04394-3.19512,2.47011-6.79273,2.47011-4.78774,0-1.4282,3.86906 0,4.94019 2.18536,1.63901 2.47013,4.07075 2.47013,5.55772 0,4.73065-9.01729-3.74965-9.26295-4.32267-1.54676-3.60931-5.52877,3.02989-5.55766,3.08762-1.80987,3.6198-2.6008-2.2087-1.85255-3.70514 .57274-1.14547 7.40262-.92439 8.64527-1.23505 2.6266-.65665-.02419-5.60623-1.23506-8.02782-.74214-1.48434 3.33028-1.02002 4.94027-.61753 2.23263.55817 1.46028-4.54792 3.08762-6.17524 2.35213-2.35213 1.57068-4.94018-1.85255-4.94018-3.95556,0-4.81505-.73424-5.55776-3.70515-.6717-2.68674-4.46123-1.88722-6.79282-2.47011-2.93163-.7329-4.72422-1.32788-6.48401-3.08761-1.96473-1.96477-2.71882-2.84763-3.39634-5.55772-.66175-2.6472-1.29604-5.80166-1.85255-8.02783-.93331-3.73298-.65191-5.00888-1.85255-7.41029-1.5524-3.10472-2.40598-3.15174 0-5.55771 2.42117-2.42121 2.90001-3.31629 6.17524-7.4103z" fill="#98989e" fill-rule="evenodd"/>
<path d="m1222.5381,289.6749a6.91257,6.25423 0 1,1 -13.8252,0 6.91257,6.25423 0 1,1 13.8252,0z" fill="#e7e6e8" fill-rule="evenodd" transform="matrix(.14924,.2226,-.18452,.12372,494.2918,-6.51565)"/>
<path d="m1100.745,620.16174a11.19179,8.22925 0 1,1 -22.3836,0 11.19179,8.22925 0 1,1 22.3836,0z" fill="url(#radialGradient31693)" fill-rule="evenodd" opacity=".59585" transform="matrix(1.68282,-.49476,.69756,1.87092,-1921.439,-13.29896)"/>
<path d="m1100.745,620.16174a11.19179,8.22925 0 1,1 -22.3836,0 11.19179,8.22925 0 1,1 22.3836,0z" fill="#fff" fill-rule="evenodd" opacity=".84974" transform="matrix(.83071,-.24423,.34435,.92356,-773.9664,301.2549)"/>
<path d="m318.44525,271.40476c-.13488-10.66389 2.86747-21.12099 1.74666-31.87585-1.0622-11.67911 3.00319-23.43952.52406-34.97529-4.60962-3.93136-3.83014,12.58195-4.01728,16.74492 2.41789,9.52496-4.57313,19.28421-.06669,27.87419 2.96362,8.15258-2.84533,18.77663-7.62961,24.85812-13.6966.72528-3.73747-17.06983-1.32961-23.72946 .18891-11.85641-2.10826-23.43956-5.44755-34.7715-.30071-5.58106-7.29708-22.44443-5.8867-7.58959-.93462,10.449 3.47923,20.05074 4.52923,30.251 .0453,10.47268.79815,21.39396-1.61392,31.5232-5.77012,3.3414-23.52396-.05484-18.84821-7.65315 13.11485-.18345-13.09113-16.61839 3.40982-18.07781 6.14101-1.80555 11.57738,5.29419 11.58207-5.16479 5.54284-15.02529-12.44277-10.41283-19.10136-5.03521-1.18611-6.6696-.55653-20.74018-5.44633-23.45575-6.53468,9.026 3.7263,18.45986 1.33599,28.09022-.98509,4.19107 6.59547,8.75982-1.77075,7.95068 1.36751,7.54667.97308,14.67119-8.00988,16.95453-2.63785,12.19182-14.82494,1.90436-21.79818-.20688-2.85177-11.8955-18.80587-2.46753-24.38888-12.15955-2.76836-3.9318-9.27931-4.44892-2.57019.36182 8.16582,8.19829 21.89915,9.35943 27.38997,20.43708-9.47521,1.82308-17.79353-7.63315-26.88821-10.21134-3.26784-3.38169-22.4963-6.40352-10.243-.93441 10.67829,6.39261 22.70588,10.66004 32.40356,18.62794-3.3741,5.44322-18.33591-1.22181-25.71664-2.36808-3.11802,1.45566 12.51344,7.89514 17.19476,8.75833-4.12493,1.53607-19.64849,7.09358-8.45231,8.0415 6.99658,1.6626 17.11482-11.06788 20.65837-4.34752-2.0511,6.37744-.08618,11.36968-2.3487,16.94007 1.95881,5.54578 19.90173,10.49717 5.73458,11.90256-5.86857-.58392-16.94342,3.5877-5.27968,5.63871 7.94149-.43847 19.40396-.34216 25.13881-2.36221-8.65952,3.77261-18.40541,6.1153-27.40997,8.38077-5.45027-1.83736-20.64558-6.36858-21.37157-1.46296 6.3325,7.00997 20.69562,2.11732 24.39908,8.75315-6.80366-1.72736-22.15057-5.07018-16.87694,7.20668-2.99611,6.61288-4.33549,12.89838 3.26826,16.93698 .7387,10.34 18.18381,1.93122 14.15574,12.3647 8.46807,2.2914 17.60432,4.01546 20.15965,14.52501 2.67631,3.71032 1.58148,16.48616 8.47053,8.26999-2.81212-9.09416-3.13255-18.71227-8.18078-27.08354-3.85841-9.06103 2.65211,9.00186 6.38835,9.7558 5.82443,7.02908 8.13896-12.04889 14.27677-2.28801 9.71901,2.77189-8.71441-12.84219 3.61496-13.79 12.07724-2.62007 7.85736,16.24018 7.83607,23.61351 .09998,5.55842-.19173,13.20906-7.45824,7.15093-9.77567-3.12479-2.81297,8.32773-8.0793,11.80403-2.24641,8.48729 4.82434,17.98761 11.78225,8.75429 3.67781,9.64853 11.09421,16.60021 19.44814,21.79032 6.70213,6.18707 9.37205,14.04612 6.59735,22.83799 5.90866.38021 7.14991-10.37091 14.74904-9.54465 4.08227-8.40595-.06876-21.55215-8.64828-24.86787-6.17505-6.39027 11.4545-6.05433 8.35028-15.16007 3.00047-4.82498.51421-21.92957-4.80942-12.89395 4.85369,6.60356-1.68174,16.0665-3.70951,5.03381 5.01652-8.5138-3.13584-12.61579-7.21736-17.60143 2.68597-12.43719-8.88447-21.13837-3.22523-33.55399 .68644-4.39166 6.71018,6.13948 11.47729,3.56299 9.50262,1.89256 19.27603,1.29037 28.89214,2.19218 14.65553-1.20252-7.71966-11.38761-13.07039-10.41662-8.62867,3.48214-17.6637.43144-24.60387-5.09244-12.75561-7.3274 8.59425-11.0092 14.27638-6.7457 6.8717,2.65159 11.10209,12.51205 16.2958,13.8545 6.39746-5.81603 2.72039-17.63988 11.87811-19.66321 .03874-5.56359-16.75693-11.86125-2.39041-12.9941 10.60298-7.30676-9.69368-8.20439-14.16203-11.29803 1.38261-6.11452 14.74612-12.48989 4.85931-19.7263-7.47681-.25311-5.6403-12.90029-12.4259-4.87538-12.00811,7.81343-1.3434-9.18094-2.66842-11.59681-3.7674-2.03123-6.5889,2.51976-9.66208,3.83095z" fill="#a8a7aa" fill-opacity=".86706" fill-rule="evenodd"/>
<path d="m293.99258,293.23755c-3.47032-4.79745-6.26584-11.42294-12.7979-12.4999-4.30984-1.49063-9.76056-.71598-11.07312,4.33074-1.96464,5.0385 7.24325,3.34292 10.03672,5.13607 2.37689,2.56459 6.25469,6.1996 6.09541,9.40818-4.41479,2.17208-9.1108,4.29635-14.16842,4.07919-4.96062,1.27946-7.26013-3.97543-8.97686-7.5708-2.22457-4.60322-7.13364-7.80193-7.47013-13.24864 .23402-3.43188-2.45018-11.55286-5.26416-4.83697-2.37286,4.14385.28972,8.44515 2.90753,11.65473 2.64927,4.57993-6.164,3.89892-6.80647,7.83891-2.26256,4.99863 2.08368,10.78143 7.32154,11.02211 2.71678.44207 12.22484-.24297 7.24021,4.0027-2.82066.45876-5.04215,2.47257-.80847,3.05874 4.2847,2.08966 13.46839-.80561 13.40836,6.01861-3.78849,3.58534-9.73279,5.58215-10.96224,11.24543-1.52603,3.13533-2.32568,10.51294 3.29792,7.78493 2.9761-.39749 5.48413-9.30408 5.30675-2.57395 .29425,4.489-1.60623,10.15672 2.29416,13.57068 2.6947.99324 7.48422-4.95979 6.15395,1.11688-1.60858,3.3687-.00975,6.94396 3.99739,4.55114 5.67829-4.07592 5.0502,7.51396 11.14111,6.64944 6.00387.95914 4.39454-6.11089 1.38674-8.51397-4.32371-.84233-6.6463-4.43213-6.53853-8.79147-1.33074-4.38124-9.63787.82267-9.82556-5.02255 .61767-4.0001 2.87835-10.02095-3.4298-10.23528-6.645-2.15451 3.11576-6.42872 6.12609-6.92165 5.76608-1.16698 12.28575,2.04131 17.49213-1.75672 4.75398-2.45037 9.08595-6.67535 14.82165-6.22576 4.11801,1.83012 8.79817,1.55215 12.81103,3.43065 2.9336,2.4107 5.08932,6.33324 9.3259,6.56965 2.74074.84107 9.00997,2.04366 5.68119-2.72458-1.74271-4.19425-6.04551-5.77155-9.78345-7.64778-2.37793-1.64055-8.91796-5.73571-2.15393-5.42472 4.77339,1.31059 8.31379-.94901 6.87884-6.121 1.21133-5.14873-8.04272-5.75434-7.76609-.85882-.75332,4.25927-2.74676,9.68374-7.60241,10.35988-5.2349.33896-10.59455-.50378-15.54804-2.13897-2.86316-2.15468-7.59462-8.74996-1.09558-9.00033 2.77526-.81319 9.30713-1.89436 4.74375-5.58366-2.45053-3.59341-8.21839-4.19572-9.12178-8.83798 1.64619-4.77575-4.14813-10.12921-6.18378-3.66528-.92487,2.68225-1.0697,5.55877-1.09165,8.37212z" fill="#b9b8ba" fill-rule="evenodd"/>
<path d="m294.86586,304.5906c.16903-1.3263-1.37042-1.73358-2.38317-1.35111-3.2953.77184-6.24025,2.75655-9.64735,3.0935-2.13255-.12499-3.91063,1.44755-4.8582,3.22824-.95751,1.82067-1.72076,3.84732-1.68699,5.92982 .02729,1.82122 1.47491,3.2467 3.09943,3.84429 2.24061.84906 4.61225,1.28232 6.92537,1.88814 3.61224.82936 7.37925,1.0648 11.05969.61844 1.87563-.22015 3.67199-1.22413 4.63579-2.88141 1.24764-1.86749 2.02365-4.26381 1.22129-6.46323-.57425-1.67817-1.60812-3.14467-2.43403-4.69955-1.46338-1.56444-3.5947-2.23322-5.51864-3.04521l-.41319-.16192z" fill="#e5e5e6" fill-rule="evenodd"/>
<path d="m216.26784,302.84398c-5.08061-13.01739-20.71653-17.86282-9.6064-34.05914-23.70079-3.68459-1.99977-19.10078-17.00256-32.31532 12.41277-.06565 19.34962,13.84487 12.30477-6.1069 7.28789-17.84568 17.82252,6.31788 30.11423-8.49529 23.90805-6.94251 4.89542-21.96793-10.57015-11.59435-11.77322,5.75591-32.12646-5.88253-7.85979-6.98649 30.20859-8.07505-4.89328-19.62914-18.74734-17.72232-16.67287-.05403 9.74288-39.48421-10.74883-21.76014 7.18568,31.63447-42.62272,13.39416-39.49544,27.2561 16.38839,8.4447-27.24489,19.71364-32.31251,34.05914-10.66008,9.90283-28.82494,28.4394-4.36655,10.47974 21.15358-6.26904 50.22593-50.06333 66.23544-27.63966-10.92472,17.62695-21.54494,36.73247-43.41132,20.31535-13.96381,10.75216 29.09737,10.07777 9.39649,28.67118-1.71975,25.50381 17.69069-22.7191 14.74715,7.06527 5.46096-22.4712 6.93876-4.74479 13.64505-1.96589 24.9274-14.74256 7.65169,14.48795-6.39733,19.16866-31.31108,16.74597 32.34429,22.24082 4.24295,35.59184-3.2019,9.06196-59.59931-1.06782-25.2726,7.871 16.99025-2.07235 31.44874,3.38329 7.0028,7.40323-19.06344,25.61931 23.75555-6.77835 23.7495,13.212 1.85268,14.83692 26.90678,23.29153 15.5864.29984 4.27418-22.32648 12.2706,8.01108 11.71259,8.54521 7.44825-15.41796 19.65635-32.81887 17.05345-51.29306z" fill="#a8a7aa" fill-opacity=".86706" fill-rule="evenodd"/>
<path d="m212.77462,312.45041c-2.53802.77699-5.05593,2.87417-7.82192,2.04907-2.67574-.9231-.44129-5.03365-3.20235-5.46323-2.67286-.82434-4.90245-3.26552-4.69534-6.19228 .02779-2.18383.09599-6.27721-3.14278-5.82563-2.40158.10046-5.76453,1.07312-5.05584,4.19342 .12504,2.5044 1.55299,4.85812 1.23928,7.37456-1.76037,2.27638-4.97446-2.57526-6.39067.51204-1.1122,1.96062-2.15519,4.82517-4.95519,4.44534-1.4577.29493-3.54814-.91262-4.56991-.52643 1.60836,1.91688 3.5158,3.58705 5.33208,5.28715 .65541,3.00015-3.58739,2.67734-5.52197,3.21785-3.22155.64101-6.56713.23665-9.75089,1.0397-2.53102.41939-.7978,2.26291.85628,2.00221 5.09342.49822 10.15214-.61827 15.0875-1.70131 2.67277.89052 2.22769,4.4799 2.90642,6.72547 .14327,1.57982 1.17263,3.54826 1.61275,4.61152-.37541-2.94974 4.66315-2.27371 5.24845-.03437 .3007,1.42187 1.70844,2.99935 2.08877.66663 .61034-1.67014.99465-6.3113 3.59813-4.18609 1.58537,1.44394 1.72358,3.93618 2.91756,5.4405 1.58418-1.66122 1.79237-4.21406 2.60047-6.31625 .55247-2.48236 3.61661-2.40315 5.60622-2.21975 2.17816-.08956 5.011,1.28026 6.79075.17429-1.58357-2.27078-4.25678-3.51222-6.32521-5.30576-1.13224-.68961-2.02843-1.67181-.03314-1.4962 3.39321-.36315 6.89449-.43717 10.24489-.68771-3.28129-.98785-6.73792-1.40755-10.13821-1.7333 .6589-2.0887 2.94708-3.43464 4.43387-5.04941 .34939-.33082.71576-.64582 1.04-1.00203z" fill="#b9b8ba" fill-rule="evenodd"/>
<path d="m173.47561,226.86589c-4.62893-.51128-7.4943.14232-9.60642,4.36655-.10579.21158-7.19193,4.57199-7.85981,5.23988-4.49995,4.49996 2.1427.47723 3.49325-.87331 1.79225-1.79224 8.88011-.87331 12.22636-.87331 4.33331,0 3.14681-4.35934 1.74662-7.85981z" fill="#f3f3f4" fill-rule="evenodd"/>
<path d="m174.34892,216.38616c1.19401,0 3.41393,8.0583-4.36656,6.11318-3.14092-.78523-.11243-8.50823 0-8.73312 .75911-1.51821 2.91104,1.74662 4.36656,2.61994z" fill="#e5e5e6" fill-rule="evenodd"/>
<path d="m195.3084,315.94364c.19058-.38117-8.97376,6.11318.87331,6.11318 4.02966,0 .41058-3.97335-.87331-6.11318z" fill="#e5e5e6" fill-rule="evenodd"/>
<path d="m732.26868,362.48032a350.78738,350.78738 0 1,1 -701.57477,0 350.78738,350.78738 0 1,1 701.57477,0z" fill="url(#radialGradient31695)" fill-rule="evenodd" transform="matrix(.97605,0,0,.96239,2.92296,24.20663)"/>
</svg>
