<?xml version="1.0" encoding="UTF-8" standalone="no"?>
<svg width="529.11" xmlns="http://www.w3.org/2000/svg" xmlns:xlink="http://www.w3.org/1999/xlink" version="1.0" height="678.34">
 <defs id="defs3">
  <filter id="filter5526" y="-1.0014" width="1.1328" height="3.0028" x="-.066392">
   <feGaussianBlur id="feGaussianBlur5528" stdDeviation="10.11582"/>
  </filter>
  <linearGradient id="linearGradient7736" y2="436.17" xlink:href="#linearGradient5442" gradientUnits="userSpaceOnUse" x2="250.16" gradientTransform="translate(64.65 -86.873)" y1="345.26" x1="351.53"/>
  <linearGradient id="linearGradient7738" y2="436.17" xlink:href="#linearGradient5442" gradientUnits="userSpaceOnUse" x2="250.16" gradientTransform="matrix(.21442 -.59947 -.59947 -.21442 602.61 616.71)" y1="345.26" x1="351.53"/>
  <linearGradient id="linearGradient7734" y2="825.08" gradientUnits="userSpaceOnUse" x2="256.3" gradientTransform="translate(54.548 -74.751)" y1="664.46" x1="261.63">
   <stop id="stop5434" stop-color="#ff8080" offset="0"/>
   <stop id="stop5436" stop-color="#ff8080" stop-opacity="0" offset="1"/>
  </linearGradient>
  <linearGradient id="linearGradient5442">
   <stop id="stop5444" stop-color="#c83737" offset="0"/>
   <stop id="stop5446" stop-color="#c83737" stop-opacity="0" offset="1"/>
  </linearGradient>
  <radialGradient id="radialGradient7759" gradientUnits="userSpaceOnUse" cy="814.61" cx="243.2" gradientTransform="matrix(1.2697 -.87543 .77190 1.1897 -665.06 82.754)" r="347.41">
   <stop id="stop5460" stop-color="#501616" offset="0"/>
   <stop id="stop5462" stop-color="#a02c2c" offset="1"/>
  </radialGradient>
 </defs>
 <g id="layer1" transform="translate(-20.283 -303.23)">
  <rect id="rect5454" rx="50.647" ry="50.647" height="669.1" width="519.86" stroke="#c83737" y="307.85" x="24.906" stroke-width="9.246" fill="url(#radialGradient7759)"/>
  <path id="path5484" opacity=".856" d="m537.4 925.08c0 6.6947-81.859 12.122-182.84 12.122s-182.84-5.4271-182.84-12.122c0-6.6947 81.859-12.122 182.84-12.122s182.84 5.4271 182.84 12.122z" transform="matrix(.80045 0 0 1.5342 7.8636 -522.38)" filter="url(#filter5526)" fill="#280b0b"/>
  <g id="g5464" transform="matrix(.80045 0 0 .80045 -1.918 179.84)">
   <path id="path5315" fill-rule="evenodd" fill="#f55" d="m417.52 247.56c-18.306 0.30901-41.979 8.8718-72.031 34.062-68.69 57.579-46.993 114.65-41.438 124.25 2.6116 4.511 5.8609 16.305 10.688 26.844-15.693 11.44-25.844 29.528-25.844 49.906 0 21.877 11.708 41.135 29.406 52.344-3.2464 4.0453-7.3244 9.8641-12.312 18.344-0.02406 0.0409-0.03859 0.08416-0.0625 0.125-7.2821-0.38047-14.845 1.6735-22.312 7.375-18.985-19.329-85.222-84.79-96.219-68.906-12.857 18.571-8.5625 67.147-18.562 85.719-10 18.571-14.268-12.866-27.125-11.438-12.857 1.4286-8.5759 17.152 4.2812 21.438 6.3352 2.1117 11.267 2.4729 14.656 2.3125 3.1128-0.572 5.3438-0.90626 5.3438-0.90625 0 0-1.8543 0.74114-5.3438 0.90625-10.176 1.8699-30.908 6.4991-23.25 11.969 10 7.1429 31.438-7.1562 31.438-7.1562 0-0.00003-27.138 20.018-14.281 22.875 12.857 2.8572 22.862-20 25.719-30 2.8571-10 7.1429-82.857 20-80 10.345 2.2989 55.337 46.627 72.719 64.062-1.392 1.8252-2.788 3.7874-4.1562 5.9375-20 31.429-27.125 54.263-17.125 141.41 0.40788 3.5544 0.94218 6.9172 1.5625 10.125-2.4609-0.99614-5.1659-1.5312-8-1.5312-11.434 0-20.719 8.96-20.719 20s9.2845 20 20.719 20c0.89864 0 1.7877-0.08015 2.6562-0.1875-6.0916 9.9496-10.952 21.88-9.0938 33.031 4.2857 25.714 52.862 60.009 55.719 71.438 2.8571 11.429-10.004-15.714-45.719-10-35.714 5.7143-59.987 28.562-42.844 28.562 17.143-0.00003 115.71 4.2902 114.28-4.2812-1.4286-8.5714-54.281-58.585-54.281-77.156 0-15.426 18.713-23.923 34.062-27.188 15.801-4.7294 22.337-5.2847 36.375-8.6562 24.136-7.6202 55.249-18.438 66.688-18.438 17.143-0.00003 52.866 35.732 61.438 52.875 8.5714 17.143 20.004 35.71 25.719 24.281 5.7143-11.429 28.554-47.156 47.125-47.156 18.571-0.00003 38.594 0 38.594 0-0.00002-0.00003 4.2857-21.42-20-28.562-24.286-7.1428-62.862 21.42-65.719 38.562-2.8572 17.143-8.5625 11.438-8.5625 11.438 0.00001 0.00002-54.308-54.29-68.594-65.719-13.239-10.592-37.857-6.5667-60.406-21.75-7.1616-8.9114-18.304-17.066-26.719-29.688-17.143-25.714 19.996-57.147 24.281-75.719 1.5271-6.6176 1.4204-13.586-0.125-20.344 14.175-2.1146 38.854-5.3438 57.25-5.3438 27.143 0 41.451-8.5803 58.594-21.438 17.143-12.857 28.567-48.585 34.281-57.156 5.7143-8.5714 28.567 10.013 44.281-2.8438s-27.143-0.01341-30-7.1562c-2.8572-7.1429 29.996-7.125 24.281-17.125-5.7143-10-42.844 14.281-42.844 4.2812 0-10 17.134-14.277 28.562-18.562 11.429-4.2857-14.286-11.433-30 4.2812s-5.7232 31.424-11.438 44.281c-5.7143 12.857-32.857 54.29-50 55.719-16.311 1.3593-86.342 0.15353-93.281 0.03125-3.1106-3.8136-6.7962-7.2287-11-10.031-0.19375-0.12916-0.39856-0.2477-0.59375-0.375 0.19579-0.35507 0.38376-0.69502 0.59375-1.0625 4.5249-7.9185 8.3348-12.876 11.25-16.656 4.5023 0.94777 9.1723 1.4688 13.969 1.4688 35.966 0 65.156-28.085 65.156-62.656 0-31.526-24.263-57.613-55.812-61.969-0.00967-6.7224 1.833-15.357 8.3438-24.906 15.152-22.223 16.159-11.106 65.656-16.156 49.498-5.0508 54.551-22.216 49.5-50.5-5.0508-28.284-37.389-13.14-51.531 7.0625-14.142 20.203-66.67 30.327-77.781 44.469-8.6867 11.056-5.0114 22.741-3 39.375-0.17645-0.00135-0.35447 0-0.53125 0-2.1951 0-19.513 4.1802-21.652 4.3844-2.1166-7.1455-3.7848-24.908-6.1148-35.685-8.0812-37.376 33.331-44.463 79.798-55.574 46.467-11.112 71.736-47.463 57.594-63.625-7.955-9.0914-22.62-22.335-46.156-21.938z"/>
   <path id="path5322" transform="translate(54.548 -74.751)" fill="#fff" d="m298 541.22c0 11.158-9.2713 20.203-20.708 20.203s-20.708-9.0452-20.708-20.203 9.2713-20.203 20.708-20.203 20.708 9.0452 20.708 20.203z"/>
   <path id="path5324" transform="translate(54.548 -74.751)" fill="#fff" d="m329.31 533.14c0 7.2526-6.3316 13.132-14.142 13.132-7.8105 0-14.142-5.8794-14.142-13.132s6.3316-13.132 14.142-13.132c7.8105 0 14.142 5.8794 14.142 13.132z"/>
   <path id="path5326" transform="translate(54.548 -74.751)" fill="#280b0b" d="m320.22 569.51c0 5.021-4.5226 9.0914-10.102 9.0914-5.5789 0-10.102-4.0704-10.102-9.0914s4.5226-9.0914 10.102-9.0914c5.5789 0 10.102 4.0704 10.102 9.0914z"/>
   <path id="path5328" fill="none" stroke="#501616" d="m366.69 498.8l5.0508 45.457"/>
   <path id="path5336" transform="translate(52.467 -71.075)" fill="#280b0b" d="m288.9 536.17c0 3.3474-2.4874 6.0609-5.5558 6.0609s-5.5558-2.7136-5.5558-6.0609c0-3.3474 2.4874-6.0609 5.5558-6.0609s5.5558 2.7136 5.5558 6.0609z"/>
   <path id="path5338" transform="translate(55.558 -77.782)" fill="#280b0b" d="m320.22 537.18c0 4.4631-3.6181 8.0812-8.0812 8.0812s-8.0812-3.6181-8.0812-8.0812 3.6181-8.0812 8.0812-8.0812 8.0812 3.6181 8.0812 8.0812z"/>
   <path id="path5340" d="m290.42 536.05c0 4.5329-3.6746 8.2075-8.2075 8.2075s-8.2075-3.6746-8.2075-8.2075 3.6746-8.2075 8.2075-8.2075 8.2075 3.6746 8.2075 8.2075z" transform="translate(53.477 -70.823)" stroke="#2b0000" stroke-width="1.687" fill="none"/>
   <path id="path5342" d="m290.42 536.05c0 4.5329-3.6746 8.2075-8.2075 8.2075s-8.2075-3.6746-8.2075-8.2075 3.6746-8.2075 8.2075-8.2075 8.2075 3.6746 8.2075 8.2075z" transform="matrix(1.4361 0 0 1.3926 -69.596 -281.27)" stroke="#2b0000" stroke-width="1.687" fill="none"/>
   <path id="path5422" fill-rule="evenodd" fill="url(#linearGradient7734)" d="m286.88 702.85s-5.0508-68.69 2.0203-92.934 21.213-31.315 35.355-25.254c14.142 6.0609 2.0203 18.183-7.0711 55.558-9.0914 37.376-6.0609 47.477 6.0609 62.63 12.122 15.152 21.213 28.284 3.0304 34.345-18.183 6.0609-31.315 11.112-34.345 0-3.0305-11.112-5.0508-34.345-5.0508-34.345z"/>
   <path id="path5440" fill-rule="evenodd" fill="url(#linearGradient7736)" d="m315.17 345.26s23.234-53.538 58.589-72.731 68.69-21.213 55.558-5.0508-56.568 34.345-72.731 46.467c-16.162 12.122-34.345 30.305-35.355 39.396-1.0102 9.0914-8.0812-7.0711-6.0609-8.0812z"/>
   <path id="path5450" fill-rule="evenodd" fill="url(#linearGradient7738)" d="m397.28 373.88s37.076-2.4482 56.162-19.527 27.445-36.629 14.94-32.222c-12.505 4.4067-32.718 26.547-43.45 33.636-10.732 7.0897-25.531 14.091-31.197 12.747-5.6666-1.3438 2.5061 6.3606 3.5448 5.3661z"/>
  </g>
 </g>
</svg>
